G04 #@! TF.FileFunction,Legend,Bot*
%FSLAX46Y46*%
G04 Gerber Fmt 4.6, Leading zero omitted, Abs format (unit mm)*
G04 Created by KiCad (PCBNEW 4.0.1-stable) date Fri 15 Jan 2016 03:53:27 PM CST*
%MOMM*%
G01*
G04 APERTURE LIST*
%ADD10C,0.100000*%
%ADD11C,0.200000*%
%ADD12C,0.300000*%
%ADD13C,0.150000*%
%ADD14C,0.010000*%
G04 APERTURE END LIST*
D10*
D11*
X117759952Y-101766714D02*
X117521857Y-102433381D01*
X117283761Y-101766714D01*
X116950428Y-101528619D02*
X116902809Y-101481000D01*
X116807571Y-101433381D01*
X116569475Y-101433381D01*
X116474237Y-101481000D01*
X116426618Y-101528619D01*
X116378999Y-101623857D01*
X116378999Y-101719095D01*
X116426618Y-101861952D01*
X116998047Y-102433381D01*
X116378999Y-102433381D01*
X115902809Y-102385762D02*
X115902809Y-102433381D01*
X115950428Y-102528619D01*
X115998047Y-102576238D01*
X114759952Y-101528619D02*
X114712333Y-101481000D01*
X114617095Y-101433381D01*
X114378999Y-101433381D01*
X114283761Y-101481000D01*
X114236142Y-101528619D01*
X114188523Y-101623857D01*
X114188523Y-101719095D01*
X114236142Y-101861952D01*
X114807571Y-102433381D01*
X114188523Y-102433381D01*
X113569476Y-101433381D02*
X113474237Y-101433381D01*
X113378999Y-101481000D01*
X113331380Y-101528619D01*
X113283761Y-101623857D01*
X113236142Y-101814333D01*
X113236142Y-102052429D01*
X113283761Y-102242905D01*
X113331380Y-102338143D01*
X113378999Y-102385762D01*
X113474237Y-102433381D01*
X113569476Y-102433381D01*
X113664714Y-102385762D01*
X113712333Y-102338143D01*
X113759952Y-102242905D01*
X113807571Y-102052429D01*
X113807571Y-101814333D01*
X113759952Y-101623857D01*
X113712333Y-101528619D01*
X113664714Y-101481000D01*
X113569476Y-101433381D01*
X112283761Y-102433381D02*
X112855190Y-102433381D01*
X112569476Y-102433381D02*
X112569476Y-101433381D01*
X112664714Y-101576238D01*
X112759952Y-101671476D01*
X112855190Y-101719095D01*
X111426618Y-101433381D02*
X111617095Y-101433381D01*
X111712333Y-101481000D01*
X111759952Y-101528619D01*
X111855190Y-101671476D01*
X111902809Y-101861952D01*
X111902809Y-102242905D01*
X111855190Y-102338143D01*
X111807571Y-102385762D01*
X111712333Y-102433381D01*
X111521856Y-102433381D01*
X111426618Y-102385762D01*
X111378999Y-102338143D01*
X111331380Y-102242905D01*
X111331380Y-102004810D01*
X111378999Y-101909571D01*
X111426618Y-101861952D01*
X111521856Y-101814333D01*
X111712333Y-101814333D01*
X111807571Y-101861952D01*
X111855190Y-101909571D01*
X111902809Y-102004810D01*
X110902809Y-102052429D02*
X110140904Y-102052429D01*
X109474238Y-101433381D02*
X109378999Y-101433381D01*
X109283761Y-101481000D01*
X109236142Y-101528619D01*
X109188523Y-101623857D01*
X109140904Y-101814333D01*
X109140904Y-102052429D01*
X109188523Y-102242905D01*
X109236142Y-102338143D01*
X109283761Y-102385762D01*
X109378999Y-102433381D01*
X109474238Y-102433381D01*
X109569476Y-102385762D01*
X109617095Y-102338143D01*
X109664714Y-102242905D01*
X109712333Y-102052429D01*
X109712333Y-101814333D01*
X109664714Y-101623857D01*
X109617095Y-101528619D01*
X109569476Y-101481000D01*
X109474238Y-101433381D01*
X108188523Y-102433381D02*
X108759952Y-102433381D01*
X108474238Y-102433381D02*
X108474238Y-101433381D01*
X108569476Y-101576238D01*
X108664714Y-101671476D01*
X108759952Y-101719095D01*
X107759952Y-102052429D02*
X106998047Y-102052429D01*
X105998047Y-102433381D02*
X106569476Y-102433381D01*
X106283762Y-102433381D02*
X106283762Y-101433381D01*
X106379000Y-101576238D01*
X106474238Y-101671476D01*
X106569476Y-101719095D01*
X105093285Y-101433381D02*
X105569476Y-101433381D01*
X105617095Y-101909571D01*
X105569476Y-101861952D01*
X105474238Y-101814333D01*
X105236142Y-101814333D01*
X105140904Y-101861952D01*
X105093285Y-101909571D01*
X105045666Y-102004810D01*
X105045666Y-102242905D01*
X105093285Y-102338143D01*
X105140904Y-102385762D01*
X105236142Y-102433381D01*
X105474238Y-102433381D01*
X105569476Y-102385762D01*
X105617095Y-102338143D01*
D12*
X140929286Y-104945571D02*
X140929286Y-103945571D01*
X140929286Y-104088429D02*
X140857858Y-104017000D01*
X140715000Y-103945571D01*
X140500715Y-103945571D01*
X140357858Y-104017000D01*
X140286429Y-104159857D01*
X140286429Y-104945571D01*
X140286429Y-104159857D02*
X140215000Y-104017000D01*
X140072143Y-103945571D01*
X139857858Y-103945571D01*
X139715000Y-104017000D01*
X139643572Y-104159857D01*
X139643572Y-104945571D01*
X138715000Y-104945571D02*
X138857858Y-104874143D01*
X138929286Y-104802714D01*
X139000715Y-104659857D01*
X139000715Y-104231286D01*
X138929286Y-104088429D01*
X138857858Y-104017000D01*
X138715000Y-103945571D01*
X138500715Y-103945571D01*
X138357858Y-104017000D01*
X138286429Y-104088429D01*
X138215000Y-104231286D01*
X138215000Y-104659857D01*
X138286429Y-104802714D01*
X138357858Y-104874143D01*
X138500715Y-104945571D01*
X138715000Y-104945571D01*
X137357857Y-104945571D02*
X137500715Y-104874143D01*
X137572143Y-104802714D01*
X137643572Y-104659857D01*
X137643572Y-104231286D01*
X137572143Y-104088429D01*
X137500715Y-104017000D01*
X137357857Y-103945571D01*
X137143572Y-103945571D01*
X137000715Y-104017000D01*
X136929286Y-104088429D01*
X136857857Y-104231286D01*
X136857857Y-104659857D01*
X136929286Y-104802714D01*
X137000715Y-104874143D01*
X137143572Y-104945571D01*
X137357857Y-104945571D01*
X136215000Y-103945571D02*
X136215000Y-104945571D01*
X136215000Y-104088429D02*
X136143572Y-104017000D01*
X136000714Y-103945571D01*
X135786429Y-103945571D01*
X135643572Y-104017000D01*
X135572143Y-104159857D01*
X135572143Y-104945571D01*
X134857857Y-103945571D02*
X134857857Y-105445571D01*
X134857857Y-104017000D02*
X134715000Y-103945571D01*
X134429286Y-103945571D01*
X134286429Y-104017000D01*
X134215000Y-104088429D01*
X134143571Y-104231286D01*
X134143571Y-104659857D01*
X134215000Y-104802714D01*
X134286429Y-104874143D01*
X134429286Y-104945571D01*
X134715000Y-104945571D01*
X134857857Y-104874143D01*
X132857857Y-103945571D02*
X132857857Y-104945571D01*
X133500714Y-103945571D02*
X133500714Y-104731286D01*
X133429286Y-104874143D01*
X133286428Y-104945571D01*
X133072143Y-104945571D01*
X132929286Y-104874143D01*
X132857857Y-104802714D01*
X132143571Y-103945571D02*
X132143571Y-104945571D01*
X132143571Y-104088429D02*
X132072143Y-104017000D01*
X131929285Y-103945571D01*
X131715000Y-103945571D01*
X131572143Y-104017000D01*
X131500714Y-104159857D01*
X131500714Y-104945571D01*
X130143571Y-104874143D02*
X130286428Y-104945571D01*
X130572142Y-104945571D01*
X130715000Y-104874143D01*
X130786428Y-104802714D01*
X130857857Y-104659857D01*
X130857857Y-104231286D01*
X130786428Y-104088429D01*
X130715000Y-104017000D01*
X130572142Y-103945571D01*
X130286428Y-103945571D01*
X130143571Y-104017000D01*
X129500714Y-104945571D02*
X129500714Y-103445571D01*
X128857857Y-104945571D02*
X128857857Y-104159857D01*
X128929286Y-104017000D01*
X129072143Y-103945571D01*
X129286428Y-103945571D01*
X129429286Y-104017000D01*
X129500714Y-104088429D01*
X128143571Y-104802714D02*
X128072143Y-104874143D01*
X128143571Y-104945571D01*
X128215000Y-104874143D01*
X128143571Y-104802714D01*
X128143571Y-104945571D01*
X127214999Y-104945571D02*
X127357857Y-104874143D01*
X127429285Y-104802714D01*
X127500714Y-104659857D01*
X127500714Y-104231286D01*
X127429285Y-104088429D01*
X127357857Y-104017000D01*
X127214999Y-103945571D01*
X127000714Y-103945571D01*
X126857857Y-104017000D01*
X126786428Y-104088429D01*
X126714999Y-104231286D01*
X126714999Y-104659857D01*
X126786428Y-104802714D01*
X126857857Y-104874143D01*
X127000714Y-104945571D01*
X127214999Y-104945571D01*
X126072142Y-104945571D02*
X126072142Y-103945571D01*
X126072142Y-104231286D02*
X126000714Y-104088429D01*
X125929285Y-104017000D01*
X125786428Y-103945571D01*
X125643571Y-103945571D01*
X124500714Y-103945571D02*
X124500714Y-105159857D01*
X124572143Y-105302714D01*
X124643571Y-105374143D01*
X124786428Y-105445571D01*
X125000714Y-105445571D01*
X125143571Y-105374143D01*
X124500714Y-104874143D02*
X124643571Y-104945571D01*
X124929285Y-104945571D01*
X125072143Y-104874143D01*
X125143571Y-104802714D01*
X125215000Y-104659857D01*
X125215000Y-104231286D01*
X125143571Y-104088429D01*
X125072143Y-104017000D01*
X124929285Y-103945571D01*
X124643571Y-103945571D01*
X124500714Y-104017000D01*
X139191143Y-140362714D02*
X139262572Y-140434143D01*
X139476858Y-140505571D01*
X139619715Y-140505571D01*
X139834000Y-140434143D01*
X139976858Y-140291286D01*
X140048286Y-140148429D01*
X140119715Y-139862714D01*
X140119715Y-139648429D01*
X140048286Y-139362714D01*
X139976858Y-139219857D01*
X139834000Y-139077000D01*
X139619715Y-139005571D01*
X139476858Y-139005571D01*
X139262572Y-139077000D01*
X139191143Y-139148429D01*
X138548286Y-139719857D02*
X138048286Y-139719857D01*
X137834000Y-140505571D02*
X138548286Y-140505571D01*
X138548286Y-139005571D01*
X137834000Y-139005571D01*
X136334000Y-140505571D02*
X136834000Y-139791286D01*
X137191143Y-140505571D02*
X137191143Y-139005571D01*
X136619715Y-139005571D01*
X136476857Y-139077000D01*
X136405429Y-139148429D01*
X136334000Y-139291286D01*
X136334000Y-139505571D01*
X136405429Y-139648429D01*
X136476857Y-139719857D01*
X136619715Y-139791286D01*
X137191143Y-139791286D01*
X135691143Y-140505571D02*
X135691143Y-139005571D01*
X134834000Y-140505571D01*
X134834000Y-139005571D01*
X132691143Y-139005571D02*
X132405429Y-139005571D01*
X132262571Y-139077000D01*
X132119714Y-139219857D01*
X132048286Y-139505571D01*
X132048286Y-140005571D01*
X132119714Y-140291286D01*
X132262571Y-140434143D01*
X132405429Y-140505571D01*
X132691143Y-140505571D01*
X132834000Y-140434143D01*
X132976857Y-140291286D01*
X133048286Y-140005571D01*
X133048286Y-139505571D01*
X132976857Y-139219857D01*
X132834000Y-139077000D01*
X132691143Y-139005571D01*
X131405428Y-140505571D02*
X131405428Y-139005571D01*
X131405428Y-139719857D02*
X130548285Y-139719857D01*
X130548285Y-140505571D02*
X130548285Y-139005571D01*
X129119713Y-140505571D02*
X129833999Y-140505571D01*
X129833999Y-139005571D01*
X126691142Y-140505571D02*
X127548285Y-140505571D01*
X127119713Y-140505571D02*
X127119713Y-139005571D01*
X127262570Y-139219857D01*
X127405428Y-139362714D01*
X127548285Y-139434143D01*
X126048285Y-140362714D02*
X125976857Y-140434143D01*
X126048285Y-140505571D01*
X126119714Y-140434143D01*
X126048285Y-140362714D01*
X126048285Y-140505571D01*
X125405428Y-139148429D02*
X125333999Y-139077000D01*
X125191142Y-139005571D01*
X124833999Y-139005571D01*
X124691142Y-139077000D01*
X124619713Y-139148429D01*
X124548285Y-139291286D01*
X124548285Y-139434143D01*
X124619713Y-139648429D01*
X125476856Y-140505571D01*
X124548285Y-140505571D01*
X140909143Y-102786571D02*
X140909143Y-101286571D01*
X140552000Y-101286571D01*
X140337715Y-101358000D01*
X140194857Y-101500857D01*
X140123429Y-101643714D01*
X140052000Y-101929429D01*
X140052000Y-102143714D01*
X140123429Y-102429429D01*
X140194857Y-102572286D01*
X140337715Y-102715143D01*
X140552000Y-102786571D01*
X140909143Y-102786571D01*
X138837715Y-102715143D02*
X138980572Y-102786571D01*
X139266286Y-102786571D01*
X139409143Y-102715143D01*
X139480572Y-102572286D01*
X139480572Y-102000857D01*
X139409143Y-101858000D01*
X139266286Y-101786571D01*
X138980572Y-101786571D01*
X138837715Y-101858000D01*
X138766286Y-102000857D01*
X138766286Y-102143714D01*
X139480572Y-102286571D01*
X138194858Y-102715143D02*
X138052001Y-102786571D01*
X137766286Y-102786571D01*
X137623429Y-102715143D01*
X137552001Y-102572286D01*
X137552001Y-102500857D01*
X137623429Y-102358000D01*
X137766286Y-102286571D01*
X137980572Y-102286571D01*
X138123429Y-102215143D01*
X138194858Y-102072286D01*
X138194858Y-102000857D01*
X138123429Y-101858000D01*
X137980572Y-101786571D01*
X137766286Y-101786571D01*
X137623429Y-101858000D01*
X136909143Y-102786571D02*
X136909143Y-101786571D01*
X136909143Y-101286571D02*
X136980572Y-101358000D01*
X136909143Y-101429429D01*
X136837715Y-101358000D01*
X136909143Y-101286571D01*
X136909143Y-101429429D01*
X135552000Y-101786571D02*
X135552000Y-103000857D01*
X135623429Y-103143714D01*
X135694857Y-103215143D01*
X135837714Y-103286571D01*
X136052000Y-103286571D01*
X136194857Y-103215143D01*
X135552000Y-102715143D02*
X135694857Y-102786571D01*
X135980571Y-102786571D01*
X136123429Y-102715143D01*
X136194857Y-102643714D01*
X136266286Y-102500857D01*
X136266286Y-102072286D01*
X136194857Y-101929429D01*
X136123429Y-101858000D01*
X135980571Y-101786571D01*
X135694857Y-101786571D01*
X135552000Y-101858000D01*
X134837714Y-101786571D02*
X134837714Y-102786571D01*
X134837714Y-101929429D02*
X134766286Y-101858000D01*
X134623428Y-101786571D01*
X134409143Y-101786571D01*
X134266286Y-101858000D01*
X134194857Y-102000857D01*
X134194857Y-102786571D01*
X132909143Y-102715143D02*
X133052000Y-102786571D01*
X133337714Y-102786571D01*
X133480571Y-102715143D01*
X133552000Y-102572286D01*
X133552000Y-102000857D01*
X133480571Y-101858000D01*
X133337714Y-101786571D01*
X133052000Y-101786571D01*
X132909143Y-101858000D01*
X132837714Y-102000857D01*
X132837714Y-102143714D01*
X133552000Y-102286571D01*
X131552000Y-102786571D02*
X131552000Y-101286571D01*
X131552000Y-102715143D02*
X131694857Y-102786571D01*
X131980571Y-102786571D01*
X132123429Y-102715143D01*
X132194857Y-102643714D01*
X132266286Y-102500857D01*
X132266286Y-102072286D01*
X132194857Y-101929429D01*
X132123429Y-101858000D01*
X131980571Y-101786571D01*
X131694857Y-101786571D01*
X131552000Y-101858000D01*
X129694857Y-102786571D02*
X129694857Y-101786571D01*
X129694857Y-101286571D02*
X129766286Y-101358000D01*
X129694857Y-101429429D01*
X129623429Y-101358000D01*
X129694857Y-101286571D01*
X129694857Y-101429429D01*
X128980571Y-101786571D02*
X128980571Y-102786571D01*
X128980571Y-101929429D02*
X128909143Y-101858000D01*
X128766285Y-101786571D01*
X128552000Y-101786571D01*
X128409143Y-101858000D01*
X128337714Y-102000857D01*
X128337714Y-102786571D01*
X126694857Y-101286571D02*
X125837714Y-101286571D01*
X126266285Y-102786571D02*
X126266285Y-101286571D01*
X124694857Y-102786571D02*
X124694857Y-102000857D01*
X124766286Y-101858000D01*
X124909143Y-101786571D01*
X125194857Y-101786571D01*
X125337714Y-101858000D01*
X124694857Y-102715143D02*
X124837714Y-102786571D01*
X125194857Y-102786571D01*
X125337714Y-102715143D01*
X125409143Y-102572286D01*
X125409143Y-102429429D01*
X125337714Y-102286571D01*
X125194857Y-102215143D01*
X124837714Y-102215143D01*
X124694857Y-102143714D01*
X123980571Y-102786571D02*
X123980571Y-101786571D01*
X123980571Y-101286571D02*
X124052000Y-101358000D01*
X123980571Y-101429429D01*
X123909143Y-101358000D01*
X123980571Y-101286571D01*
X123980571Y-101429429D01*
X123409142Y-101786571D02*
X123123428Y-102786571D01*
X122837714Y-102072286D01*
X122551999Y-102786571D01*
X122266285Y-101786571D01*
X121051999Y-102786571D02*
X121051999Y-102000857D01*
X121123428Y-101858000D01*
X121266285Y-101786571D01*
X121551999Y-101786571D01*
X121694856Y-101858000D01*
X121051999Y-102715143D02*
X121194856Y-102786571D01*
X121551999Y-102786571D01*
X121694856Y-102715143D01*
X121766285Y-102572286D01*
X121766285Y-102429429D01*
X121694856Y-102286571D01*
X121551999Y-102215143D01*
X121194856Y-102215143D01*
X121051999Y-102143714D01*
X120337713Y-101786571D02*
X120337713Y-102786571D01*
X120337713Y-101929429D02*
X120266285Y-101858000D01*
X120123427Y-101786571D01*
X119909142Y-101786571D01*
X119766285Y-101858000D01*
X119694856Y-102000857D01*
X119694856Y-102786571D01*
D13*
X131738000Y-112260000D02*
X131738000Y-111260000D01*
X133438000Y-111260000D02*
X133438000Y-112260000D01*
X134147000Y-111283000D02*
X134147000Y-111983000D01*
X135347000Y-111983000D02*
X135347000Y-111283000D01*
D14*
G36*
X129518890Y-130251200D02*
X129486970Y-130421582D01*
X129456980Y-130577359D01*
X129430458Y-130710878D01*
X129408942Y-130814487D01*
X129393970Y-130880532D01*
X129388628Y-130899313D01*
X129363965Y-130926206D01*
X129305228Y-130962692D01*
X129208788Y-131010594D01*
X129071020Y-131071737D01*
X128920322Y-131134821D01*
X128761182Y-131199594D01*
X128641821Y-131246259D01*
X128555408Y-131276905D01*
X128495107Y-131293618D01*
X128454087Y-131298486D01*
X128425512Y-131293596D01*
X128415423Y-131289052D01*
X128378603Y-131266268D01*
X128306864Y-131219151D01*
X128207046Y-131152295D01*
X128085989Y-131070295D01*
X127950533Y-130977746D01*
X127885268Y-130932894D01*
X127746779Y-130838824D01*
X127620381Y-130755384D01*
X127512637Y-130686712D01*
X127430111Y-130636946D01*
X127379366Y-130610226D01*
X127368091Y-130606800D01*
X127340274Y-130624004D01*
X127283301Y-130671594D01*
X127203342Y-130743530D01*
X127106570Y-130833775D01*
X126999156Y-130936292D01*
X126887272Y-131045042D01*
X126777090Y-131153988D01*
X126674781Y-131257092D01*
X126586518Y-131348317D01*
X126518472Y-131421624D01*
X126476814Y-131470976D01*
X126466600Y-131488712D01*
X126469455Y-131499722D01*
X126479858Y-131520347D01*
X126500570Y-131554738D01*
X126534353Y-131607046D01*
X126583967Y-131681422D01*
X126652172Y-131782017D01*
X126741729Y-131912981D01*
X126855399Y-132078465D01*
X126957243Y-132226430D01*
X127030560Y-132333980D01*
X127093556Y-132428430D01*
X127140462Y-132500979D01*
X127165510Y-132542829D01*
X127167665Y-132547423D01*
X127162389Y-132581392D01*
X127139550Y-132652476D01*
X127102922Y-132751689D01*
X127056283Y-132870045D01*
X127003406Y-132998558D01*
X126948067Y-133128243D01*
X126894042Y-133250113D01*
X126845107Y-133355182D01*
X126805037Y-133434465D01*
X126777607Y-133478976D01*
X126775056Y-133481853D01*
X126736882Y-133502261D01*
X126656472Y-133527290D01*
X126531722Y-133557458D01*
X126360522Y-133593279D01*
X126174500Y-133629008D01*
X126009149Y-133660413D01*
X125858006Y-133690194D01*
X125729147Y-133716676D01*
X125630645Y-133738180D01*
X125570574Y-133753030D01*
X125558550Y-133756960D01*
X125540557Y-133765502D01*
X125526807Y-133778419D01*
X125516735Y-133801966D01*
X125509774Y-133842395D01*
X125505360Y-133905959D01*
X125502927Y-133998911D01*
X125501910Y-134127505D01*
X125501742Y-134297993D01*
X125501789Y-134384505D01*
X125502656Y-134555599D01*
X125504878Y-134710317D01*
X125508233Y-134841232D01*
X125512496Y-134940916D01*
X125517445Y-135001942D01*
X125520839Y-135017238D01*
X125541408Y-135029717D01*
X125591331Y-135045897D01*
X125673964Y-135066496D01*
X125792663Y-135092237D01*
X125950782Y-135123838D01*
X126151677Y-135162021D01*
X126398703Y-135207507D01*
X126452475Y-135217278D01*
X126558549Y-135238093D01*
X126648597Y-135258636D01*
X126708569Y-135275585D01*
X126721534Y-135280899D01*
X126743202Y-135310494D01*
X126778748Y-135378897D01*
X126824532Y-135477230D01*
X126876913Y-135596619D01*
X126932251Y-135728188D01*
X126986904Y-135863060D01*
X127037231Y-135992359D01*
X127079591Y-136107211D01*
X127110344Y-136198737D01*
X127125849Y-136258063D01*
X127127000Y-136269366D01*
X127113009Y-136313631D01*
X127075392Y-136386803D01*
X127020681Y-136476913D01*
X126982993Y-136533227D01*
X126832535Y-136750731D01*
X126710072Y-136928971D01*
X126614171Y-137070089D01*
X126543398Y-137176228D01*
X126496318Y-137249530D01*
X126471498Y-137292138D01*
X126466601Y-137304823D01*
X126483851Y-137327802D01*
X126532344Y-137381377D01*
X126607190Y-137460434D01*
X126703499Y-137559859D01*
X126816382Y-137674538D01*
X126908670Y-137767172D01*
X127069247Y-137925546D01*
X127196695Y-138046765D01*
X127291783Y-138131509D01*
X127355279Y-138180463D01*
X127387950Y-138194307D01*
X127389111Y-138193976D01*
X127421848Y-138175213D01*
X127488596Y-138132416D01*
X127581719Y-138070637D01*
X127693579Y-137994930D01*
X127791591Y-137927619D01*
X127919909Y-137839160D01*
X128042104Y-137755320D01*
X128148515Y-137682699D01*
X128229485Y-137627893D01*
X128265383Y-137603972D01*
X128375066Y-137531956D01*
X128613121Y-137657128D01*
X128736885Y-137718596D01*
X128822821Y-137753135D01*
X128869086Y-137760041D01*
X128874707Y-137756900D01*
X128889854Y-137727952D01*
X128921743Y-137657821D01*
X128967865Y-137552335D01*
X129025715Y-137417322D01*
X129092783Y-137258612D01*
X129166565Y-137082033D01*
X129207944Y-136982200D01*
X129288328Y-136787836D01*
X129366655Y-136598669D01*
X129439691Y-136422488D01*
X129504204Y-136267083D01*
X129556962Y-136140244D01*
X129594734Y-136049760D01*
X129604062Y-136027536D01*
X129659923Y-135896435D01*
X129697784Y-135803469D01*
X129716710Y-135738925D01*
X129715767Y-135693089D01*
X129694020Y-135656249D01*
X129650534Y-135618692D01*
X129584375Y-135570705D01*
X129558263Y-135551560D01*
X129370423Y-135398031D01*
X129225402Y-135246345D01*
X129116137Y-135088755D01*
X129087098Y-135034881D01*
X128999022Y-134830813D01*
X128948458Y-134635386D01*
X128930579Y-134429170D01*
X128930400Y-134404099D01*
X128955058Y-134148510D01*
X129026796Y-133905165D01*
X129142267Y-133680191D01*
X129298120Y-133479717D01*
X129491008Y-133309871D01*
X129550868Y-133268849D01*
X129772984Y-133154468D01*
X130011150Y-133085024D01*
X130257879Y-133060434D01*
X130505687Y-133080617D01*
X130747084Y-133145492D01*
X130974585Y-133254976D01*
X131021812Y-133284898D01*
X131218680Y-133444599D01*
X131378132Y-133634039D01*
X131498584Y-133846950D01*
X131578451Y-134077063D01*
X131616152Y-134318108D01*
X131610102Y-134563816D01*
X131558717Y-134807919D01*
X131464322Y-135036736D01*
X131391162Y-135150531D01*
X131288296Y-135276854D01*
X131169221Y-135401508D01*
X131047434Y-135510297D01*
X130942888Y-135585200D01*
X130878388Y-135628242D01*
X130834668Y-135665298D01*
X130825517Y-135677716D01*
X130832113Y-135707283D01*
X130856234Y-135778038D01*
X130895710Y-135884342D01*
X130948370Y-136020557D01*
X131012041Y-136181044D01*
X131084554Y-136360166D01*
X131143382Y-136503216D01*
X131226419Y-136703953D01*
X131307438Y-136900055D01*
X131383300Y-137083907D01*
X131450867Y-137247893D01*
X131507000Y-137384400D01*
X131548560Y-137485812D01*
X131564162Y-137524100D01*
X131607014Y-137622661D01*
X131646910Y-137702142D01*
X131677971Y-137751374D01*
X131689116Y-137761494D01*
X131724746Y-137755539D01*
X131792970Y-137728936D01*
X131882406Y-137686469D01*
X131941083Y-137655600D01*
X132037558Y-137605921D01*
X132119373Y-137569148D01*
X132175230Y-137550083D01*
X132191545Y-137549127D01*
X132221165Y-137566609D01*
X132286094Y-137608647D01*
X132379849Y-137670920D01*
X132495947Y-137749106D01*
X132627902Y-137838881D01*
X132690089Y-137881472D01*
X132826510Y-137974284D01*
X132949637Y-138056518D01*
X133053098Y-138124042D01*
X133130517Y-138172724D01*
X133175520Y-138198428D01*
X133183561Y-138201400D01*
X133208386Y-138184124D01*
X133263636Y-138135578D01*
X133344089Y-138060683D01*
X133444522Y-137964363D01*
X133559713Y-137851540D01*
X133648723Y-137762985D01*
X133770075Y-137640805D01*
X133878516Y-137530323D01*
X133969150Y-137436635D01*
X134037079Y-137364837D01*
X134077406Y-137320027D01*
X134086601Y-137307303D01*
X134072804Y-137281857D01*
X134034489Y-137221751D01*
X133976265Y-137133945D01*
X133902741Y-137025400D01*
X133826009Y-136913868D01*
X133734888Y-136781732D01*
X133647431Y-136653820D01*
X133570426Y-136540141D01*
X133510662Y-136450704D01*
X133481494Y-136405958D01*
X133397569Y-136274216D01*
X133583245Y-135809147D01*
X133642751Y-135663167D01*
X133698662Y-135531663D01*
X133747380Y-135422663D01*
X133785306Y-135344198D01*
X133808840Y-135304296D01*
X133810228Y-135302772D01*
X133854242Y-135279244D01*
X133936245Y-135252922D01*
X134043844Y-135227532D01*
X134089718Y-135218750D01*
X134287133Y-135182855D01*
X134473087Y-135148119D01*
X134641118Y-135115827D01*
X134784762Y-135087261D01*
X134897556Y-135063708D01*
X134973038Y-135046451D01*
X135004467Y-135036957D01*
X135010491Y-135008858D01*
X135015882Y-134936975D01*
X135020403Y-134828322D01*
X135023815Y-134689915D01*
X135025879Y-134528767D01*
X135026400Y-134391612D01*
X135026156Y-134195509D01*
X135025151Y-134044270D01*
X135022975Y-133931960D01*
X135019220Y-133852642D01*
X135013475Y-133800383D01*
X135005333Y-133769247D01*
X134994382Y-133753298D01*
X134981950Y-133747071D01*
X134944055Y-133738644D01*
X134864634Y-133722669D01*
X134752123Y-133700785D01*
X134614958Y-133674632D01*
X134461576Y-133645846D01*
X134442200Y-133642241D01*
X134244794Y-133606564D01*
X134090025Y-133578676D01*
X133971240Y-133554070D01*
X133881789Y-133528236D01*
X133815019Y-133496667D01*
X133764278Y-133454855D01*
X133722914Y-133398292D01*
X133684275Y-133322469D01*
X133641709Y-133222878D01*
X133588565Y-133095011D01*
X133569796Y-133051002D01*
X133509463Y-132909505D01*
X133456755Y-132783298D01*
X133414780Y-132680038D01*
X133386649Y-132607387D01*
X133375469Y-132573004D01*
X133375400Y-132572113D01*
X133389184Y-132544291D01*
X133427896Y-132480785D01*
X133487583Y-132387701D01*
X133564289Y-132271143D01*
X133654059Y-132137218D01*
X133720555Y-132039331D01*
X133817552Y-131897219D01*
X133905150Y-131768738D01*
X133979231Y-131659940D01*
X134035674Y-131576881D01*
X134070360Y-131525612D01*
X134079404Y-131512018D01*
X134066280Y-131488642D01*
X134022290Y-131436104D01*
X133953315Y-131360313D01*
X133865239Y-131267178D01*
X133763946Y-131162609D01*
X133655318Y-131052515D01*
X133545239Y-130942806D01*
X133439591Y-130839391D01*
X133344258Y-130748180D01*
X133265122Y-130675083D01*
X133208067Y-130626009D01*
X133178976Y-130606867D01*
X133178235Y-130606800D01*
X133156284Y-130613107D01*
X133116262Y-130633662D01*
X133054385Y-130670916D01*
X132966863Y-130727319D01*
X132849910Y-130805320D01*
X132699738Y-130907370D01*
X132512562Y-131035918D01*
X132476164Y-131061014D01*
X132364391Y-131137635D01*
X132264491Y-131205223D01*
X132185375Y-131257814D01*
X132135957Y-131289445D01*
X132127365Y-131294438D01*
X132086607Y-131294346D01*
X132009278Y-131275744D01*
X131904486Y-131242351D01*
X131781337Y-131197885D01*
X131648940Y-131146063D01*
X131516402Y-131090603D01*
X131392831Y-131035224D01*
X131287336Y-130983644D01*
X131209022Y-130939579D01*
X131166999Y-130906749D01*
X131163295Y-130900884D01*
X131152487Y-130861655D01*
X131134388Y-130780088D01*
X131110550Y-130663870D01*
X131082525Y-130520686D01*
X131051861Y-130358223D01*
X131032208Y-130251200D01*
X130923759Y-129654300D01*
X129629223Y-129654300D01*
X129518890Y-130251200D01*
X129518890Y-130251200D01*
G37*
X129518890Y-130251200D02*
X129486970Y-130421582D01*
X129456980Y-130577359D01*
X129430458Y-130710878D01*
X129408942Y-130814487D01*
X129393970Y-130880532D01*
X129388628Y-130899313D01*
X129363965Y-130926206D01*
X129305228Y-130962692D01*
X129208788Y-131010594D01*
X129071020Y-131071737D01*
X128920322Y-131134821D01*
X128761182Y-131199594D01*
X128641821Y-131246259D01*
X128555408Y-131276905D01*
X128495107Y-131293618D01*
X128454087Y-131298486D01*
X128425512Y-131293596D01*
X128415423Y-131289052D01*
X128378603Y-131266268D01*
X128306864Y-131219151D01*
X128207046Y-131152295D01*
X128085989Y-131070295D01*
X127950533Y-130977746D01*
X127885268Y-130932894D01*
X127746779Y-130838824D01*
X127620381Y-130755384D01*
X127512637Y-130686712D01*
X127430111Y-130636946D01*
X127379366Y-130610226D01*
X127368091Y-130606800D01*
X127340274Y-130624004D01*
X127283301Y-130671594D01*
X127203342Y-130743530D01*
X127106570Y-130833775D01*
X126999156Y-130936292D01*
X126887272Y-131045042D01*
X126777090Y-131153988D01*
X126674781Y-131257092D01*
X126586518Y-131348317D01*
X126518472Y-131421624D01*
X126476814Y-131470976D01*
X126466600Y-131488712D01*
X126469455Y-131499722D01*
X126479858Y-131520347D01*
X126500570Y-131554738D01*
X126534353Y-131607046D01*
X126583967Y-131681422D01*
X126652172Y-131782017D01*
X126741729Y-131912981D01*
X126855399Y-132078465D01*
X126957243Y-132226430D01*
X127030560Y-132333980D01*
X127093556Y-132428430D01*
X127140462Y-132500979D01*
X127165510Y-132542829D01*
X127167665Y-132547423D01*
X127162389Y-132581392D01*
X127139550Y-132652476D01*
X127102922Y-132751689D01*
X127056283Y-132870045D01*
X127003406Y-132998558D01*
X126948067Y-133128243D01*
X126894042Y-133250113D01*
X126845107Y-133355182D01*
X126805037Y-133434465D01*
X126777607Y-133478976D01*
X126775056Y-133481853D01*
X126736882Y-133502261D01*
X126656472Y-133527290D01*
X126531722Y-133557458D01*
X126360522Y-133593279D01*
X126174500Y-133629008D01*
X126009149Y-133660413D01*
X125858006Y-133690194D01*
X125729147Y-133716676D01*
X125630645Y-133738180D01*
X125570574Y-133753030D01*
X125558550Y-133756960D01*
X125540557Y-133765502D01*
X125526807Y-133778419D01*
X125516735Y-133801966D01*
X125509774Y-133842395D01*
X125505360Y-133905959D01*
X125502927Y-133998911D01*
X125501910Y-134127505D01*
X125501742Y-134297993D01*
X125501789Y-134384505D01*
X125502656Y-134555599D01*
X125504878Y-134710317D01*
X125508233Y-134841232D01*
X125512496Y-134940916D01*
X125517445Y-135001942D01*
X125520839Y-135017238D01*
X125541408Y-135029717D01*
X125591331Y-135045897D01*
X125673964Y-135066496D01*
X125792663Y-135092237D01*
X125950782Y-135123838D01*
X126151677Y-135162021D01*
X126398703Y-135207507D01*
X126452475Y-135217278D01*
X126558549Y-135238093D01*
X126648597Y-135258636D01*
X126708569Y-135275585D01*
X126721534Y-135280899D01*
X126743202Y-135310494D01*
X126778748Y-135378897D01*
X126824532Y-135477230D01*
X126876913Y-135596619D01*
X126932251Y-135728188D01*
X126986904Y-135863060D01*
X127037231Y-135992359D01*
X127079591Y-136107211D01*
X127110344Y-136198737D01*
X127125849Y-136258063D01*
X127127000Y-136269366D01*
X127113009Y-136313631D01*
X127075392Y-136386803D01*
X127020681Y-136476913D01*
X126982993Y-136533227D01*
X126832535Y-136750731D01*
X126710072Y-136928971D01*
X126614171Y-137070089D01*
X126543398Y-137176228D01*
X126496318Y-137249530D01*
X126471498Y-137292138D01*
X126466601Y-137304823D01*
X126483851Y-137327802D01*
X126532344Y-137381377D01*
X126607190Y-137460434D01*
X126703499Y-137559859D01*
X126816382Y-137674538D01*
X126908670Y-137767172D01*
X127069247Y-137925546D01*
X127196695Y-138046765D01*
X127291783Y-138131509D01*
X127355279Y-138180463D01*
X127387950Y-138194307D01*
X127389111Y-138193976D01*
X127421848Y-138175213D01*
X127488596Y-138132416D01*
X127581719Y-138070637D01*
X127693579Y-137994930D01*
X127791591Y-137927619D01*
X127919909Y-137839160D01*
X128042104Y-137755320D01*
X128148515Y-137682699D01*
X128229485Y-137627893D01*
X128265383Y-137603972D01*
X128375066Y-137531956D01*
X128613121Y-137657128D01*
X128736885Y-137718596D01*
X128822821Y-137753135D01*
X128869086Y-137760041D01*
X128874707Y-137756900D01*
X128889854Y-137727952D01*
X128921743Y-137657821D01*
X128967865Y-137552335D01*
X129025715Y-137417322D01*
X129092783Y-137258612D01*
X129166565Y-137082033D01*
X129207944Y-136982200D01*
X129288328Y-136787836D01*
X129366655Y-136598669D01*
X129439691Y-136422488D01*
X129504204Y-136267083D01*
X129556962Y-136140244D01*
X129594734Y-136049760D01*
X129604062Y-136027536D01*
X129659923Y-135896435D01*
X129697784Y-135803469D01*
X129716710Y-135738925D01*
X129715767Y-135693089D01*
X129694020Y-135656249D01*
X129650534Y-135618692D01*
X129584375Y-135570705D01*
X129558263Y-135551560D01*
X129370423Y-135398031D01*
X129225402Y-135246345D01*
X129116137Y-135088755D01*
X129087098Y-135034881D01*
X128999022Y-134830813D01*
X128948458Y-134635386D01*
X128930579Y-134429170D01*
X128930400Y-134404099D01*
X128955058Y-134148510D01*
X129026796Y-133905165D01*
X129142267Y-133680191D01*
X129298120Y-133479717D01*
X129491008Y-133309871D01*
X129550868Y-133268849D01*
X129772984Y-133154468D01*
X130011150Y-133085024D01*
X130257879Y-133060434D01*
X130505687Y-133080617D01*
X130747084Y-133145492D01*
X130974585Y-133254976D01*
X131021812Y-133284898D01*
X131218680Y-133444599D01*
X131378132Y-133634039D01*
X131498584Y-133846950D01*
X131578451Y-134077063D01*
X131616152Y-134318108D01*
X131610102Y-134563816D01*
X131558717Y-134807919D01*
X131464322Y-135036736D01*
X131391162Y-135150531D01*
X131288296Y-135276854D01*
X131169221Y-135401508D01*
X131047434Y-135510297D01*
X130942888Y-135585200D01*
X130878388Y-135628242D01*
X130834668Y-135665298D01*
X130825517Y-135677716D01*
X130832113Y-135707283D01*
X130856234Y-135778038D01*
X130895710Y-135884342D01*
X130948370Y-136020557D01*
X131012041Y-136181044D01*
X131084554Y-136360166D01*
X131143382Y-136503216D01*
X131226419Y-136703953D01*
X131307438Y-136900055D01*
X131383300Y-137083907D01*
X131450867Y-137247893D01*
X131507000Y-137384400D01*
X131548560Y-137485812D01*
X131564162Y-137524100D01*
X131607014Y-137622661D01*
X131646910Y-137702142D01*
X131677971Y-137751374D01*
X131689116Y-137761494D01*
X131724746Y-137755539D01*
X131792970Y-137728936D01*
X131882406Y-137686469D01*
X131941083Y-137655600D01*
X132037558Y-137605921D01*
X132119373Y-137569148D01*
X132175230Y-137550083D01*
X132191545Y-137549127D01*
X132221165Y-137566609D01*
X132286094Y-137608647D01*
X132379849Y-137670920D01*
X132495947Y-137749106D01*
X132627902Y-137838881D01*
X132690089Y-137881472D01*
X132826510Y-137974284D01*
X132949637Y-138056518D01*
X133053098Y-138124042D01*
X133130517Y-138172724D01*
X133175520Y-138198428D01*
X133183561Y-138201400D01*
X133208386Y-138184124D01*
X133263636Y-138135578D01*
X133344089Y-138060683D01*
X133444522Y-137964363D01*
X133559713Y-137851540D01*
X133648723Y-137762985D01*
X133770075Y-137640805D01*
X133878516Y-137530323D01*
X133969150Y-137436635D01*
X134037079Y-137364837D01*
X134077406Y-137320027D01*
X134086601Y-137307303D01*
X134072804Y-137281857D01*
X134034489Y-137221751D01*
X133976265Y-137133945D01*
X133902741Y-137025400D01*
X133826009Y-136913868D01*
X133734888Y-136781732D01*
X133647431Y-136653820D01*
X133570426Y-136540141D01*
X133510662Y-136450704D01*
X133481494Y-136405958D01*
X133397569Y-136274216D01*
X133583245Y-135809147D01*
X133642751Y-135663167D01*
X133698662Y-135531663D01*
X133747380Y-135422663D01*
X133785306Y-135344198D01*
X133808840Y-135304296D01*
X133810228Y-135302772D01*
X133854242Y-135279244D01*
X133936245Y-135252922D01*
X134043844Y-135227532D01*
X134089718Y-135218750D01*
X134287133Y-135182855D01*
X134473087Y-135148119D01*
X134641118Y-135115827D01*
X134784762Y-135087261D01*
X134897556Y-135063708D01*
X134973038Y-135046451D01*
X135004467Y-135036957D01*
X135010491Y-135008858D01*
X135015882Y-134936975D01*
X135020403Y-134828322D01*
X135023815Y-134689915D01*
X135025879Y-134528767D01*
X135026400Y-134391612D01*
X135026156Y-134195509D01*
X135025151Y-134044270D01*
X135022975Y-133931960D01*
X135019220Y-133852642D01*
X135013475Y-133800383D01*
X135005333Y-133769247D01*
X134994382Y-133753298D01*
X134981950Y-133747071D01*
X134944055Y-133738644D01*
X134864634Y-133722669D01*
X134752123Y-133700785D01*
X134614958Y-133674632D01*
X134461576Y-133645846D01*
X134442200Y-133642241D01*
X134244794Y-133606564D01*
X134090025Y-133578676D01*
X133971240Y-133554070D01*
X133881789Y-133528236D01*
X133815019Y-133496667D01*
X133764278Y-133454855D01*
X133722914Y-133398292D01*
X133684275Y-133322469D01*
X133641709Y-133222878D01*
X133588565Y-133095011D01*
X133569796Y-133051002D01*
X133509463Y-132909505D01*
X133456755Y-132783298D01*
X133414780Y-132680038D01*
X133386649Y-132607387D01*
X133375469Y-132573004D01*
X133375400Y-132572113D01*
X133389184Y-132544291D01*
X133427896Y-132480785D01*
X133487583Y-132387701D01*
X133564289Y-132271143D01*
X133654059Y-132137218D01*
X133720555Y-132039331D01*
X133817552Y-131897219D01*
X133905150Y-131768738D01*
X133979231Y-131659940D01*
X134035674Y-131576881D01*
X134070360Y-131525612D01*
X134079404Y-131512018D01*
X134066280Y-131488642D01*
X134022290Y-131436104D01*
X133953315Y-131360313D01*
X133865239Y-131267178D01*
X133763946Y-131162609D01*
X133655318Y-131052515D01*
X133545239Y-130942806D01*
X133439591Y-130839391D01*
X133344258Y-130748180D01*
X133265122Y-130675083D01*
X133208067Y-130626009D01*
X133178976Y-130606867D01*
X133178235Y-130606800D01*
X133156284Y-130613107D01*
X133116262Y-130633662D01*
X133054385Y-130670916D01*
X132966863Y-130727319D01*
X132849910Y-130805320D01*
X132699738Y-130907370D01*
X132512562Y-131035918D01*
X132476164Y-131061014D01*
X132364391Y-131137635D01*
X132264491Y-131205223D01*
X132185375Y-131257814D01*
X132135957Y-131289445D01*
X132127365Y-131294438D01*
X132086607Y-131294346D01*
X132009278Y-131275744D01*
X131904486Y-131242351D01*
X131781337Y-131197885D01*
X131648940Y-131146063D01*
X131516402Y-131090603D01*
X131392831Y-131035224D01*
X131287336Y-130983644D01*
X131209022Y-130939579D01*
X131166999Y-130906749D01*
X131163295Y-130900884D01*
X131152487Y-130861655D01*
X131134388Y-130780088D01*
X131110550Y-130663870D01*
X131082525Y-130520686D01*
X131051861Y-130358223D01*
X131032208Y-130251200D01*
X130923759Y-129654300D01*
X129629223Y-129654300D01*
X129518890Y-130251200D01*
D13*
X103886000Y-136906000D02*
X103886000Y-103886000D01*
X108966000Y-134366000D02*
X108966000Y-103886000D01*
X103886000Y-103886000D02*
X108966000Y-103886000D01*
X103886000Y-136906000D02*
X106426000Y-136906000D01*
X109246000Y-135636000D02*
X109246000Y-137186000D01*
X106426000Y-136906000D02*
X106426000Y-134366000D01*
X106426000Y-134366000D02*
X108966000Y-134366000D01*
X109246000Y-137186000D02*
X107696000Y-137186000D01*
X132500666Y-115546143D02*
X132548285Y-115593762D01*
X132691142Y-115641381D01*
X132786380Y-115641381D01*
X132929238Y-115593762D01*
X133024476Y-115498524D01*
X133072095Y-115403286D01*
X133119714Y-115212810D01*
X133119714Y-115069952D01*
X133072095Y-114879476D01*
X133024476Y-114784238D01*
X132929238Y-114689000D01*
X132786380Y-114641381D01*
X132691142Y-114641381D01*
X132548285Y-114689000D01*
X132500666Y-114736619D01*
X131548285Y-115641381D02*
X132119714Y-115641381D01*
X131834000Y-115641381D02*
X131834000Y-114641381D01*
X131929238Y-114784238D01*
X132024476Y-114879476D01*
X132119714Y-114927095D01*
X133040381Y-107307143D02*
X133040381Y-106735714D01*
X133040381Y-107021428D02*
X132040381Y-107021428D01*
X132183238Y-106926190D01*
X132278476Y-106830952D01*
X132326095Y-106735714D01*
X132040381Y-107926190D02*
X132040381Y-108021429D01*
X132088000Y-108116667D01*
X132135619Y-108164286D01*
X132230857Y-108211905D01*
X132421333Y-108259524D01*
X132659429Y-108259524D01*
X132849905Y-108211905D01*
X132945143Y-108164286D01*
X132992762Y-108116667D01*
X133040381Y-108021429D01*
X133040381Y-107926190D01*
X132992762Y-107830952D01*
X132945143Y-107783333D01*
X132849905Y-107735714D01*
X132659429Y-107688095D01*
X132421333Y-107688095D01*
X132230857Y-107735714D01*
X132135619Y-107783333D01*
X132088000Y-107830952D01*
X132040381Y-107926190D01*
X132373714Y-109116667D02*
X133040381Y-109116667D01*
X132373714Y-108688095D02*
X132897524Y-108688095D01*
X132992762Y-108735714D01*
X133040381Y-108830952D01*
X133040381Y-108973810D01*
X132992762Y-109069048D01*
X132945143Y-109116667D01*
X135040666Y-115546143D02*
X135088285Y-115593762D01*
X135231142Y-115641381D01*
X135326380Y-115641381D01*
X135469238Y-115593762D01*
X135564476Y-115498524D01*
X135612095Y-115403286D01*
X135659714Y-115212810D01*
X135659714Y-115069952D01*
X135612095Y-114879476D01*
X135564476Y-114784238D01*
X135469238Y-114689000D01*
X135326380Y-114641381D01*
X135231142Y-114641381D01*
X135088285Y-114689000D01*
X135040666Y-114736619D01*
X134659714Y-114736619D02*
X134612095Y-114689000D01*
X134516857Y-114641381D01*
X134278761Y-114641381D01*
X134183523Y-114689000D01*
X134135904Y-114736619D01*
X134088285Y-114831857D01*
X134088285Y-114927095D01*
X134135904Y-115069952D01*
X134707333Y-115641381D01*
X134088285Y-115641381D01*
X135199381Y-107307143D02*
X135199381Y-106735714D01*
X135199381Y-107021428D02*
X134199381Y-107021428D01*
X134342238Y-106926190D01*
X134437476Y-106830952D01*
X134485095Y-106735714D01*
X134199381Y-107926190D02*
X134199381Y-108021429D01*
X134247000Y-108116667D01*
X134294619Y-108164286D01*
X134389857Y-108211905D01*
X134580333Y-108259524D01*
X134818429Y-108259524D01*
X135008905Y-108211905D01*
X135104143Y-108164286D01*
X135151762Y-108116667D01*
X135199381Y-108021429D01*
X135199381Y-107926190D01*
X135151762Y-107830952D01*
X135104143Y-107783333D01*
X135008905Y-107735714D01*
X134818429Y-107688095D01*
X134580333Y-107688095D01*
X134389857Y-107735714D01*
X134294619Y-107783333D01*
X134247000Y-107830952D01*
X134199381Y-107926190D01*
X134532714Y-108688095D02*
X135532714Y-108688095D01*
X134580333Y-108688095D02*
X134532714Y-108783333D01*
X134532714Y-108973810D01*
X134580333Y-109069048D01*
X134627952Y-109116667D01*
X134723190Y-109164286D01*
X135008905Y-109164286D01*
X135104143Y-109116667D01*
X135151762Y-109069048D01*
X135199381Y-108973810D01*
X135199381Y-108783333D01*
X135151762Y-108688095D01*
M02*
