G04 #@! TF.FileFunction,Soldermask,Bot*
%FSLAX46Y46*%
G04 Gerber Fmt 4.6, Leading zero omitted, Abs format (unit mm)*
G04 Created by KiCad (PCBNEW 4.0.1-stable) date Mon 21 Dec 2015 12:25:30 PM CST*
%MOMM*%
G01*
G04 APERTURE LIST*
%ADD10C,0.100000*%
%ADD11R,1.650000X1.900000*%
%ADD12R,1.150000X1.600000*%
%ADD13R,2.127200X2.127200*%
%ADD14O,2.127200X2.127200*%
%ADD15R,2.432000X2.127200*%
%ADD16O,2.432000X2.127200*%
G04 APERTURE END LIST*
D10*
D11*
X133200000Y-110150000D03*
X133200000Y-112650000D03*
D12*
X136600000Y-110450000D03*
X136600000Y-112350000D03*
D13*
X105156000Y-135636000D03*
D14*
X107696000Y-135636000D03*
X105156000Y-133096000D03*
X107696000Y-133096000D03*
X105156000Y-130556000D03*
X107696000Y-130556000D03*
X105156000Y-128016000D03*
X107696000Y-128016000D03*
X105156000Y-125476000D03*
X107696000Y-125476000D03*
X105156000Y-122936000D03*
X107696000Y-122936000D03*
X105156000Y-120396000D03*
X107696000Y-120396000D03*
X105156000Y-117856000D03*
X107696000Y-117856000D03*
X105156000Y-115316000D03*
X107696000Y-115316000D03*
X105156000Y-112776000D03*
X107696000Y-112776000D03*
X105156000Y-110236000D03*
X107696000Y-110236000D03*
X105156000Y-107696000D03*
X107696000Y-107696000D03*
X105156000Y-105156000D03*
X107696000Y-105156000D03*
D15*
X122428000Y-135636000D03*
D16*
X122428000Y-133096000D03*
X122428000Y-130556000D03*
X122428000Y-128016000D03*
X122428000Y-125476000D03*
X122428000Y-122936000D03*
X122428000Y-120396000D03*
X122428000Y-117856000D03*
X122428000Y-115316000D03*
X122428000Y-112776000D03*
X122428000Y-110236000D03*
X122428000Y-107696000D03*
X122428000Y-105156000D03*
D15*
X140208000Y-135636000D03*
D16*
X140208000Y-133096000D03*
X140208000Y-130556000D03*
X140208000Y-128016000D03*
X140208000Y-125476000D03*
X140208000Y-122936000D03*
X140208000Y-120396000D03*
X140208000Y-117856000D03*
X140208000Y-115316000D03*
X140208000Y-112776000D03*
X140208000Y-110236000D03*
X140208000Y-107696000D03*
M02*
