M48
;DRILL file {KiCad 4.0.1-stable} date Fri 15 Jan 2016 03:50:30 PM CST
;FORMAT={2:4/ absolute / inch / keep zeros}
FMAT,2
INCH,TZ
T1C0.012
T2C0.040
%
G90
G05
M72
T1
X043200Y-043900
X043200Y-044650
X046750Y-047900
X046750Y-048900
X047300Y-047100
X050700Y-045550
X050700Y-049300
X050700Y-051750
X050700Y-053300
X051550Y-043700
X053350Y-046400
T2
X041400Y-041400
X041400Y-042400
X041400Y-043400
X041400Y-044400
X041400Y-045400
X041400Y-046400
X041400Y-047400
X041400Y-048400
X041400Y-049400
X041400Y-050400
X041400Y-051400
X041400Y-052400
X041400Y-053400
X042400Y-041400
X042400Y-042400
X042400Y-043400
X042400Y-044400
X042400Y-045400
X042400Y-046400
X042400Y-047400
X042400Y-048400
X042400Y-049400
X042400Y-050400
X042400Y-051400
X042400Y-052400
X042400Y-053400
X048200Y-041400
X048200Y-042400
X048200Y-043400
X048200Y-044400
X048200Y-045400
X048200Y-046400
X048200Y-047400
X048200Y-048400
X048200Y-049400
X048200Y-050400
X048200Y-051400
X048200Y-052400
X048200Y-053400
X054200Y-042400
X054200Y-043400
X054200Y-044400
X054200Y-045400
X054200Y-046400
X054200Y-047400
X054200Y-048400
X054200Y-049400
X054200Y-050400
X054200Y-051400
X054200Y-052400
X054200Y-053400
T0
M30
