G04 #@! TF.FileFunction,Legend,Top*
%FSLAX46Y46*%
G04 Gerber Fmt 4.6, Leading zero omitted, Abs format (unit mm)*
G04 Created by KiCad (PCBNEW 4.0.1-stable) date Fri 15 Jan 2016 03:53:27 PM CST*
%MOMM*%
G01*
G04 APERTURE LIST*
%ADD10C,0.100000*%
%ADD11C,0.200000*%
%ADD12C,0.300000*%
%ADD13C,0.010000*%
%ADD14C,0.150000*%
G04 APERTURE END LIST*
D10*
D11*
X140460000Y-138000000D02*
X120000000Y-138000000D01*
X111387334Y-109546381D02*
X111054000Y-109070190D01*
X110815905Y-109546381D02*
X110815905Y-108546381D01*
X111196858Y-108546381D01*
X111292096Y-108594000D01*
X111339715Y-108641619D01*
X111387334Y-108736857D01*
X111387334Y-108879714D01*
X111339715Y-108974952D01*
X111292096Y-109022571D01*
X111196858Y-109070190D01*
X110815905Y-109070190D01*
X111815905Y-109546381D02*
X111815905Y-108546381D01*
X112196858Y-108546381D01*
X112292096Y-108594000D01*
X112339715Y-108641619D01*
X112387334Y-108736857D01*
X112387334Y-108879714D01*
X112339715Y-108974952D01*
X112292096Y-109022571D01*
X112196858Y-109070190D01*
X111815905Y-109070190D01*
X112815905Y-109546381D02*
X112815905Y-108879714D01*
X112815905Y-108546381D02*
X112768286Y-108594000D01*
X112815905Y-108641619D01*
X112863524Y-108594000D01*
X112815905Y-108546381D01*
X112815905Y-108641619D01*
X114054000Y-109165429D02*
X114815905Y-109165429D01*
X116054000Y-109546381D02*
X116054000Y-108546381D01*
X116625429Y-109546381D01*
X116625429Y-108546381D01*
X117530191Y-109546381D02*
X117530191Y-109022571D01*
X117482572Y-108927333D01*
X117387334Y-108879714D01*
X117196857Y-108879714D01*
X117101619Y-108927333D01*
X117530191Y-109498762D02*
X117434953Y-109546381D01*
X117196857Y-109546381D01*
X117101619Y-109498762D01*
X117054000Y-109403524D01*
X117054000Y-109308286D01*
X117101619Y-109213048D01*
X117196857Y-109165429D01*
X117434953Y-109165429D01*
X117530191Y-109117810D01*
X117911143Y-108879714D02*
X118149238Y-109546381D01*
X118387334Y-108879714D01*
X109839715Y-110765429D02*
X110601620Y-110765429D01*
X111077810Y-110765429D02*
X111839715Y-110765429D01*
X112315905Y-110765429D02*
X113077810Y-110765429D01*
X113554000Y-110765429D02*
X114315905Y-110765429D01*
X114792095Y-110765429D02*
X115554000Y-110765429D01*
X116030190Y-110765429D02*
X116792095Y-110765429D01*
X117268285Y-110765429D02*
X118030190Y-110765429D01*
X118506380Y-110765429D02*
X119268285Y-110765429D01*
X111387334Y-111794000D02*
X111292096Y-111746381D01*
X111149239Y-111746381D01*
X111006381Y-111794000D01*
X110911143Y-111889238D01*
X110863524Y-111984476D01*
X110815905Y-112174952D01*
X110815905Y-112317810D01*
X110863524Y-112508286D01*
X110911143Y-112603524D01*
X111006381Y-112698762D01*
X111149239Y-112746381D01*
X111244477Y-112746381D01*
X111387334Y-112698762D01*
X111434953Y-112651143D01*
X111434953Y-112317810D01*
X111244477Y-112317810D01*
X111768286Y-111746381D02*
X112434953Y-111746381D01*
X112006381Y-112746381D01*
X113577810Y-112365429D02*
X114339715Y-112365429D01*
X116101620Y-112746381D02*
X115530191Y-112746381D01*
X115815905Y-112746381D02*
X115815905Y-111746381D01*
X115720667Y-111889238D01*
X115625429Y-111984476D01*
X115530191Y-112032095D01*
X116530191Y-112746381D02*
X116530191Y-111746381D01*
X116911144Y-111746381D01*
X117006382Y-111794000D01*
X117054001Y-111841619D01*
X117101620Y-111936857D01*
X117101620Y-112079714D01*
X117054001Y-112174952D01*
X117006382Y-112222571D01*
X116911144Y-112270190D01*
X116530191Y-112270190D01*
X117530191Y-112746381D02*
X117530191Y-111746381D01*
X117911144Y-111746381D01*
X118006382Y-111794000D01*
X118054001Y-111841619D01*
X118101620Y-111936857D01*
X118101620Y-112079714D01*
X118054001Y-112174952D01*
X118006382Y-112222571D01*
X117911144Y-112270190D01*
X117530191Y-112270190D01*
X118482572Y-112698762D02*
X118625429Y-112746381D01*
X118863525Y-112746381D01*
X118958763Y-112698762D01*
X119006382Y-112651143D01*
X119054001Y-112555905D01*
X119054001Y-112460667D01*
X119006382Y-112365429D01*
X118958763Y-112317810D01*
X118863525Y-112270190D01*
X118673048Y-112222571D01*
X118577810Y-112174952D01*
X118530191Y-112127333D01*
X118482572Y-112032095D01*
X118482572Y-111936857D01*
X118530191Y-111841619D01*
X118577810Y-111794000D01*
X118673048Y-111746381D01*
X118911144Y-111746381D01*
X119054001Y-111794000D01*
X111339715Y-113394000D02*
X111244477Y-113346381D01*
X111101620Y-113346381D01*
X110958762Y-113394000D01*
X110863524Y-113489238D01*
X110815905Y-113584476D01*
X110768286Y-113774952D01*
X110768286Y-113917810D01*
X110815905Y-114108286D01*
X110863524Y-114203524D01*
X110958762Y-114298762D01*
X111101620Y-114346381D01*
X111196858Y-114346381D01*
X111339715Y-114298762D01*
X111387334Y-114251143D01*
X111387334Y-113917810D01*
X111196858Y-113917810D01*
X112244477Y-113679714D02*
X112244477Y-114346381D01*
X112006381Y-113298762D02*
X111768286Y-114013048D01*
X112387334Y-114013048D01*
X113530191Y-113965429D02*
X114292096Y-113965429D01*
X115387334Y-113346381D02*
X115958763Y-113346381D01*
X115673048Y-114346381D02*
X115673048Y-113346381D01*
X116863525Y-114346381D02*
X116530191Y-113870190D01*
X116292096Y-114346381D02*
X116292096Y-113346381D01*
X116673049Y-113346381D01*
X116768287Y-113394000D01*
X116815906Y-113441619D01*
X116863525Y-113536857D01*
X116863525Y-113679714D01*
X116815906Y-113774952D01*
X116768287Y-113822571D01*
X116673049Y-113870190D01*
X116292096Y-113870190D01*
X117292096Y-114346381D02*
X117292096Y-113346381D01*
X118292096Y-113394000D02*
X118196858Y-113346381D01*
X118054001Y-113346381D01*
X117911143Y-113394000D01*
X117815905Y-113489238D01*
X117768286Y-113584476D01*
X117720667Y-113774952D01*
X117720667Y-113917810D01*
X117768286Y-114108286D01*
X117815905Y-114203524D01*
X117911143Y-114298762D01*
X118054001Y-114346381D01*
X118149239Y-114346381D01*
X118292096Y-114298762D01*
X118339715Y-114251143D01*
X118339715Y-113917810D01*
X118149239Y-113917810D01*
X110649238Y-114994000D02*
X110554000Y-114946381D01*
X110411143Y-114946381D01*
X110268285Y-114994000D01*
X110173047Y-115089238D01*
X110125428Y-115184476D01*
X110077809Y-115374952D01*
X110077809Y-115517810D01*
X110125428Y-115708286D01*
X110173047Y-115803524D01*
X110268285Y-115898762D01*
X110411143Y-115946381D01*
X110506381Y-115946381D01*
X110649238Y-115898762D01*
X110696857Y-115851143D01*
X110696857Y-115517810D01*
X110506381Y-115517810D01*
X111649238Y-115946381D02*
X111077809Y-115946381D01*
X111363523Y-115946381D02*
X111363523Y-114946381D01*
X111268285Y-115089238D01*
X111173047Y-115184476D01*
X111077809Y-115232095D01*
X111982571Y-114946381D02*
X112649238Y-114946381D01*
X112220666Y-115946381D01*
X113792095Y-115565429D02*
X114554000Y-115565429D01*
X116315905Y-114994000D02*
X116220667Y-114946381D01*
X116077810Y-114946381D01*
X115934952Y-114994000D01*
X115839714Y-115089238D01*
X115792095Y-115184476D01*
X115744476Y-115374952D01*
X115744476Y-115517810D01*
X115792095Y-115708286D01*
X115839714Y-115803524D01*
X115934952Y-115898762D01*
X116077810Y-115946381D01*
X116173048Y-115946381D01*
X116315905Y-115898762D01*
X116363524Y-115851143D01*
X116363524Y-115517810D01*
X116173048Y-115517810D01*
X117315905Y-115946381D02*
X116744476Y-115946381D01*
X117030190Y-115946381D02*
X117030190Y-114946381D01*
X116934952Y-115089238D01*
X116839714Y-115184476D01*
X116744476Y-115232095D01*
X117696857Y-115041619D02*
X117744476Y-114994000D01*
X117839714Y-114946381D01*
X118077810Y-114946381D01*
X118173048Y-114994000D01*
X118220667Y-115041619D01*
X118268286Y-115136857D01*
X118268286Y-115232095D01*
X118220667Y-115374952D01*
X117649238Y-115946381D01*
X118268286Y-115946381D01*
X110649238Y-116594000D02*
X110554000Y-116546381D01*
X110411143Y-116546381D01*
X110268285Y-116594000D01*
X110173047Y-116689238D01*
X110125428Y-116784476D01*
X110077809Y-116974952D01*
X110077809Y-117117810D01*
X110125428Y-117308286D01*
X110173047Y-117403524D01*
X110268285Y-117498762D01*
X110411143Y-117546381D01*
X110506381Y-117546381D01*
X110649238Y-117498762D01*
X110696857Y-117451143D01*
X110696857Y-117117810D01*
X110506381Y-117117810D01*
X111077809Y-116641619D02*
X111125428Y-116594000D01*
X111220666Y-116546381D01*
X111458762Y-116546381D01*
X111554000Y-116594000D01*
X111601619Y-116641619D01*
X111649238Y-116736857D01*
X111649238Y-116832095D01*
X111601619Y-116974952D01*
X111030190Y-117546381D01*
X111649238Y-117546381D01*
X111982571Y-116546381D02*
X112649238Y-116546381D01*
X112220666Y-117546381D01*
X113792095Y-117165429D02*
X114554000Y-117165429D01*
X116315905Y-116594000D02*
X116220667Y-116546381D01*
X116077810Y-116546381D01*
X115934952Y-116594000D01*
X115839714Y-116689238D01*
X115792095Y-116784476D01*
X115744476Y-116974952D01*
X115744476Y-117117810D01*
X115792095Y-117308286D01*
X115839714Y-117403524D01*
X115934952Y-117498762D01*
X116077810Y-117546381D01*
X116173048Y-117546381D01*
X116315905Y-117498762D01*
X116363524Y-117451143D01*
X116363524Y-117117810D01*
X116173048Y-117117810D01*
X117315905Y-117546381D02*
X116744476Y-117546381D01*
X117030190Y-117546381D02*
X117030190Y-116546381D01*
X116934952Y-116689238D01*
X116839714Y-116784476D01*
X116744476Y-116832095D01*
X117649238Y-116546381D02*
X118268286Y-116546381D01*
X117934952Y-116927333D01*
X118077810Y-116927333D01*
X118173048Y-116974952D01*
X118220667Y-117022571D01*
X118268286Y-117117810D01*
X118268286Y-117355905D01*
X118220667Y-117451143D01*
X118173048Y-117498762D01*
X118077810Y-117546381D01*
X117792095Y-117546381D01*
X117696857Y-117498762D01*
X117649238Y-117451143D01*
X110649238Y-118194000D02*
X110554000Y-118146381D01*
X110411143Y-118146381D01*
X110268285Y-118194000D01*
X110173047Y-118289238D01*
X110125428Y-118384476D01*
X110077809Y-118574952D01*
X110077809Y-118717810D01*
X110125428Y-118908286D01*
X110173047Y-119003524D01*
X110268285Y-119098762D01*
X110411143Y-119146381D01*
X110506381Y-119146381D01*
X110649238Y-119098762D01*
X110696857Y-119051143D01*
X110696857Y-118717810D01*
X110506381Y-118717810D01*
X111077809Y-118241619D02*
X111125428Y-118194000D01*
X111220666Y-118146381D01*
X111458762Y-118146381D01*
X111554000Y-118194000D01*
X111601619Y-118241619D01*
X111649238Y-118336857D01*
X111649238Y-118432095D01*
X111601619Y-118574952D01*
X111030190Y-119146381D01*
X111649238Y-119146381D01*
X112506381Y-118479714D02*
X112506381Y-119146381D01*
X112268285Y-118098762D02*
X112030190Y-118813048D01*
X112649238Y-118813048D01*
X113792095Y-118765429D02*
X114554000Y-118765429D01*
X116315905Y-118194000D02*
X116220667Y-118146381D01*
X116077810Y-118146381D01*
X115934952Y-118194000D01*
X115839714Y-118289238D01*
X115792095Y-118384476D01*
X115744476Y-118574952D01*
X115744476Y-118717810D01*
X115792095Y-118908286D01*
X115839714Y-119003524D01*
X115934952Y-119098762D01*
X116077810Y-119146381D01*
X116173048Y-119146381D01*
X116315905Y-119098762D01*
X116363524Y-119051143D01*
X116363524Y-118717810D01*
X116173048Y-118717810D01*
X117315905Y-119146381D02*
X116744476Y-119146381D01*
X117030190Y-119146381D02*
X117030190Y-118146381D01*
X116934952Y-118289238D01*
X116839714Y-118384476D01*
X116744476Y-118432095D01*
X118173048Y-118479714D02*
X118173048Y-119146381D01*
X117934952Y-118098762D02*
X117696857Y-118813048D01*
X118315905Y-118813048D01*
X110649238Y-119794000D02*
X110554000Y-119746381D01*
X110411143Y-119746381D01*
X110268285Y-119794000D01*
X110173047Y-119889238D01*
X110125428Y-119984476D01*
X110077809Y-120174952D01*
X110077809Y-120317810D01*
X110125428Y-120508286D01*
X110173047Y-120603524D01*
X110268285Y-120698762D01*
X110411143Y-120746381D01*
X110506381Y-120746381D01*
X110649238Y-120698762D01*
X110696857Y-120651143D01*
X110696857Y-120317810D01*
X110506381Y-120317810D01*
X111649238Y-120746381D02*
X111077809Y-120746381D01*
X111363523Y-120746381D02*
X111363523Y-119746381D01*
X111268285Y-119889238D01*
X111173047Y-119984476D01*
X111077809Y-120032095D01*
X112220666Y-120174952D02*
X112125428Y-120127333D01*
X112077809Y-120079714D01*
X112030190Y-119984476D01*
X112030190Y-119936857D01*
X112077809Y-119841619D01*
X112125428Y-119794000D01*
X112220666Y-119746381D01*
X112411143Y-119746381D01*
X112506381Y-119794000D01*
X112554000Y-119841619D01*
X112601619Y-119936857D01*
X112601619Y-119984476D01*
X112554000Y-120079714D01*
X112506381Y-120127333D01*
X112411143Y-120174952D01*
X112220666Y-120174952D01*
X112125428Y-120222571D01*
X112077809Y-120270190D01*
X112030190Y-120365429D01*
X112030190Y-120555905D01*
X112077809Y-120651143D01*
X112125428Y-120698762D01*
X112220666Y-120746381D01*
X112411143Y-120746381D01*
X112506381Y-120698762D01*
X112554000Y-120651143D01*
X112601619Y-120555905D01*
X112601619Y-120365429D01*
X112554000Y-120270190D01*
X112506381Y-120222571D01*
X112411143Y-120174952D01*
X113792095Y-120365429D02*
X114554000Y-120365429D01*
X116315905Y-119794000D02*
X116220667Y-119746381D01*
X116077810Y-119746381D01*
X115934952Y-119794000D01*
X115839714Y-119889238D01*
X115792095Y-119984476D01*
X115744476Y-120174952D01*
X115744476Y-120317810D01*
X115792095Y-120508286D01*
X115839714Y-120603524D01*
X115934952Y-120698762D01*
X116077810Y-120746381D01*
X116173048Y-120746381D01*
X116315905Y-120698762D01*
X116363524Y-120651143D01*
X116363524Y-120317810D01*
X116173048Y-120317810D01*
X117315905Y-120746381D02*
X116744476Y-120746381D01*
X117030190Y-120746381D02*
X117030190Y-119746381D01*
X116934952Y-119889238D01*
X116839714Y-119984476D01*
X116744476Y-120032095D01*
X118173048Y-119746381D02*
X117982571Y-119746381D01*
X117887333Y-119794000D01*
X117839714Y-119841619D01*
X117744476Y-119984476D01*
X117696857Y-120174952D01*
X117696857Y-120555905D01*
X117744476Y-120651143D01*
X117792095Y-120698762D01*
X117887333Y-120746381D01*
X118077810Y-120746381D01*
X118173048Y-120698762D01*
X118220667Y-120651143D01*
X118268286Y-120555905D01*
X118268286Y-120317810D01*
X118220667Y-120222571D01*
X118173048Y-120174952D01*
X118077810Y-120127333D01*
X117887333Y-120127333D01*
X117792095Y-120174952D01*
X117744476Y-120222571D01*
X117696857Y-120317810D01*
X110649238Y-121394000D02*
X110554000Y-121346381D01*
X110411143Y-121346381D01*
X110268285Y-121394000D01*
X110173047Y-121489238D01*
X110125428Y-121584476D01*
X110077809Y-121774952D01*
X110077809Y-121917810D01*
X110125428Y-122108286D01*
X110173047Y-122203524D01*
X110268285Y-122298762D01*
X110411143Y-122346381D01*
X110506381Y-122346381D01*
X110649238Y-122298762D01*
X110696857Y-122251143D01*
X110696857Y-121917810D01*
X110506381Y-121917810D01*
X111077809Y-121441619D02*
X111125428Y-121394000D01*
X111220666Y-121346381D01*
X111458762Y-121346381D01*
X111554000Y-121394000D01*
X111601619Y-121441619D01*
X111649238Y-121536857D01*
X111649238Y-121632095D01*
X111601619Y-121774952D01*
X111030190Y-122346381D01*
X111649238Y-122346381D01*
X111982571Y-121346381D02*
X112601619Y-121346381D01*
X112268285Y-121727333D01*
X112411143Y-121727333D01*
X112506381Y-121774952D01*
X112554000Y-121822571D01*
X112601619Y-121917810D01*
X112601619Y-122155905D01*
X112554000Y-122251143D01*
X112506381Y-122298762D01*
X112411143Y-122346381D01*
X112125428Y-122346381D01*
X112030190Y-122298762D01*
X111982571Y-122251143D01*
X113792095Y-121965429D02*
X114554000Y-121965429D01*
X116315905Y-121394000D02*
X116220667Y-121346381D01*
X116077810Y-121346381D01*
X115934952Y-121394000D01*
X115839714Y-121489238D01*
X115792095Y-121584476D01*
X115744476Y-121774952D01*
X115744476Y-121917810D01*
X115792095Y-122108286D01*
X115839714Y-122203524D01*
X115934952Y-122298762D01*
X116077810Y-122346381D01*
X116173048Y-122346381D01*
X116315905Y-122298762D01*
X116363524Y-122251143D01*
X116363524Y-121917810D01*
X116173048Y-121917810D01*
X116744476Y-121441619D02*
X116792095Y-121394000D01*
X116887333Y-121346381D01*
X117125429Y-121346381D01*
X117220667Y-121394000D01*
X117268286Y-121441619D01*
X117315905Y-121536857D01*
X117315905Y-121632095D01*
X117268286Y-121774952D01*
X116696857Y-122346381D01*
X117315905Y-122346381D01*
X117934952Y-121346381D02*
X118030191Y-121346381D01*
X118125429Y-121394000D01*
X118173048Y-121441619D01*
X118220667Y-121536857D01*
X118268286Y-121727333D01*
X118268286Y-121965429D01*
X118220667Y-122155905D01*
X118173048Y-122251143D01*
X118125429Y-122298762D01*
X118030191Y-122346381D01*
X117934952Y-122346381D01*
X117839714Y-122298762D01*
X117792095Y-122251143D01*
X117744476Y-122155905D01*
X117696857Y-121965429D01*
X117696857Y-121727333D01*
X117744476Y-121536857D01*
X117792095Y-121441619D01*
X117839714Y-121394000D01*
X117934952Y-121346381D01*
X110815905Y-123946381D02*
X110482571Y-123470190D01*
X110244476Y-123946381D02*
X110244476Y-122946381D01*
X110625429Y-122946381D01*
X110720667Y-122994000D01*
X110768286Y-123041619D01*
X110815905Y-123136857D01*
X110815905Y-123279714D01*
X110768286Y-123374952D01*
X110720667Y-123422571D01*
X110625429Y-123470190D01*
X110244476Y-123470190D01*
X111149238Y-122946381D02*
X111815905Y-123946381D01*
X111815905Y-122946381D02*
X111149238Y-123946381D01*
X112387333Y-122946381D02*
X112482572Y-122946381D01*
X112577810Y-122994000D01*
X112625429Y-123041619D01*
X112673048Y-123136857D01*
X112720667Y-123327333D01*
X112720667Y-123565429D01*
X112673048Y-123755905D01*
X112625429Y-123851143D01*
X112577810Y-123898762D01*
X112482572Y-123946381D01*
X112387333Y-123946381D01*
X112292095Y-123898762D01*
X112244476Y-123851143D01*
X112196857Y-123755905D01*
X112149238Y-123565429D01*
X112149238Y-123327333D01*
X112196857Y-123136857D01*
X112244476Y-123041619D01*
X112292095Y-122994000D01*
X112387333Y-122946381D01*
X113911143Y-123565429D02*
X114673048Y-123565429D01*
X115768286Y-122946381D02*
X116339715Y-122946381D01*
X116054000Y-123946381D02*
X116054000Y-122946381D01*
X116577810Y-122946381D02*
X117244477Y-123946381D01*
X117244477Y-122946381D02*
X116577810Y-123946381D01*
X118149239Y-123946381D02*
X117577810Y-123946381D01*
X117863524Y-123946381D02*
X117863524Y-122946381D01*
X117768286Y-123089238D01*
X117673048Y-123184476D01*
X117577810Y-123232095D01*
X111744477Y-125546381D02*
X111744477Y-124546381D01*
X112173048Y-124641619D02*
X112220667Y-124594000D01*
X112315905Y-124546381D01*
X112554001Y-124546381D01*
X112649239Y-124594000D01*
X112696858Y-124641619D01*
X112744477Y-124736857D01*
X112744477Y-124832095D01*
X112696858Y-124974952D01*
X112125429Y-125546381D01*
X112744477Y-125546381D01*
X113744477Y-125451143D02*
X113696858Y-125498762D01*
X113554001Y-125546381D01*
X113458763Y-125546381D01*
X113315905Y-125498762D01*
X113220667Y-125403524D01*
X113173048Y-125308286D01*
X113125429Y-125117810D01*
X113125429Y-124974952D01*
X113173048Y-124784476D01*
X113220667Y-124689238D01*
X113315905Y-124594000D01*
X113458763Y-124546381D01*
X113554001Y-124546381D01*
X113696858Y-124594000D01*
X113744477Y-124641619D01*
X114220667Y-125498762D02*
X114220667Y-125546381D01*
X114173048Y-125641619D01*
X114125429Y-125689238D01*
X115363524Y-125498762D02*
X115506381Y-125546381D01*
X115744477Y-125546381D01*
X115839715Y-125498762D01*
X115887334Y-125451143D01*
X115934953Y-125355905D01*
X115934953Y-125260667D01*
X115887334Y-125165429D01*
X115839715Y-125117810D01*
X115744477Y-125070190D01*
X115554000Y-125022571D01*
X115458762Y-124974952D01*
X115411143Y-124927333D01*
X115363524Y-124832095D01*
X115363524Y-124736857D01*
X115411143Y-124641619D01*
X115458762Y-124594000D01*
X115554000Y-124546381D01*
X115792096Y-124546381D01*
X115934953Y-124594000D01*
X116363524Y-125546381D02*
X116363524Y-124546381D01*
X116744477Y-124546381D01*
X116839715Y-124594000D01*
X116887334Y-124641619D01*
X116934953Y-124736857D01*
X116934953Y-124879714D01*
X116887334Y-124974952D01*
X116839715Y-125022571D01*
X116744477Y-125070190D01*
X116363524Y-125070190D01*
X117363524Y-125546381D02*
X117363524Y-124546381D01*
D12*
X104003429Y-140505571D02*
X104003429Y-139005571D01*
X104860572Y-140505571D01*
X104860572Y-139005571D01*
X106217715Y-140505571D02*
X106217715Y-139719857D01*
X106146286Y-139577000D01*
X106003429Y-139505571D01*
X105717715Y-139505571D01*
X105574858Y-139577000D01*
X106217715Y-140434143D02*
X106074858Y-140505571D01*
X105717715Y-140505571D01*
X105574858Y-140434143D01*
X105503429Y-140291286D01*
X105503429Y-140148429D01*
X105574858Y-140005571D01*
X105717715Y-139934143D01*
X106074858Y-139934143D01*
X106217715Y-139862714D01*
X106789144Y-139505571D02*
X107146287Y-140505571D01*
X107503429Y-139505571D01*
X108003429Y-140434143D02*
X108217715Y-140505571D01*
X108574858Y-140505571D01*
X108717715Y-140434143D01*
X108789144Y-140362714D01*
X108860572Y-140219857D01*
X108860572Y-140077000D01*
X108789144Y-139934143D01*
X108717715Y-139862714D01*
X108574858Y-139791286D01*
X108289144Y-139719857D01*
X108146286Y-139648429D01*
X108074858Y-139577000D01*
X108003429Y-139434143D01*
X108003429Y-139291286D01*
X108074858Y-139148429D01*
X108146286Y-139077000D01*
X108289144Y-139005571D01*
X108646286Y-139005571D01*
X108860572Y-139077000D01*
X109503429Y-139505571D02*
X109503429Y-141005571D01*
X109503429Y-139577000D02*
X109646286Y-139505571D01*
X109932000Y-139505571D01*
X110074857Y-139577000D01*
X110146286Y-139648429D01*
X110217715Y-139791286D01*
X110217715Y-140219857D01*
X110146286Y-140362714D01*
X110074857Y-140434143D01*
X109932000Y-140505571D01*
X109646286Y-140505571D01*
X109503429Y-140434143D01*
X111503429Y-140505571D02*
X111503429Y-139719857D01*
X111432000Y-139577000D01*
X111289143Y-139505571D01*
X111003429Y-139505571D01*
X110860572Y-139577000D01*
X111503429Y-140434143D02*
X111360572Y-140505571D01*
X111003429Y-140505571D01*
X110860572Y-140434143D01*
X110789143Y-140291286D01*
X110789143Y-140148429D01*
X110860572Y-140005571D01*
X111003429Y-139934143D01*
X111360572Y-139934143D01*
X111503429Y-139862714D01*
X112217715Y-140505571D02*
X112217715Y-139505571D01*
X112217715Y-139791286D02*
X112289143Y-139648429D01*
X112360572Y-139577000D01*
X112503429Y-139505571D01*
X112646286Y-139505571D01*
X113146286Y-140505571D02*
X113146286Y-139005571D01*
X113289143Y-139934143D02*
X113717714Y-140505571D01*
X113717714Y-139505571D02*
X113146286Y-140077000D01*
X115432000Y-140434143D02*
X115574857Y-140505571D01*
X115860572Y-140505571D01*
X116003429Y-140434143D01*
X116074857Y-140291286D01*
X116074857Y-140219857D01*
X116003429Y-140077000D01*
X115860572Y-140005571D01*
X115646286Y-140005571D01*
X115503429Y-139934143D01*
X115432000Y-139791286D01*
X115432000Y-139719857D01*
X115503429Y-139577000D01*
X115646286Y-139505571D01*
X115860572Y-139505571D01*
X116003429Y-139577000D01*
X116717715Y-140505571D02*
X116717715Y-139005571D01*
X117360572Y-140505571D02*
X117360572Y-139719857D01*
X117289143Y-139577000D01*
X117146286Y-139505571D01*
X116932001Y-139505571D01*
X116789143Y-139577000D01*
X116717715Y-139648429D01*
X118074858Y-140505571D02*
X118074858Y-139505571D01*
X118074858Y-139005571D02*
X118003429Y-139077000D01*
X118074858Y-139148429D01*
X118146286Y-139077000D01*
X118074858Y-139005571D01*
X118074858Y-139148429D01*
X119360572Y-140434143D02*
X119217715Y-140505571D01*
X118932001Y-140505571D01*
X118789144Y-140434143D01*
X118717715Y-140291286D01*
X118717715Y-139719857D01*
X118789144Y-139577000D01*
X118932001Y-139505571D01*
X119217715Y-139505571D01*
X119360572Y-139577000D01*
X119432001Y-139719857D01*
X119432001Y-139862714D01*
X118717715Y-140005571D01*
X120289144Y-140505571D02*
X120146286Y-140434143D01*
X120074858Y-140291286D01*
X120074858Y-139005571D01*
X121503429Y-140505571D02*
X121503429Y-139005571D01*
X121503429Y-140434143D02*
X121360572Y-140505571D01*
X121074858Y-140505571D01*
X120932000Y-140434143D01*
X120860572Y-140362714D01*
X120789143Y-140219857D01*
X120789143Y-139791286D01*
X120860572Y-139648429D01*
X120932000Y-139577000D01*
X121074858Y-139505571D01*
X121360572Y-139505571D01*
X121503429Y-139577000D01*
X123146286Y-139505571D02*
X123717715Y-139505571D01*
X123360572Y-140505571D02*
X123360572Y-139219857D01*
X123432000Y-139077000D01*
X123574858Y-139005571D01*
X123717715Y-139005571D01*
X124432001Y-140505571D02*
X124289143Y-140434143D01*
X124217715Y-140362714D01*
X124146286Y-140219857D01*
X124146286Y-139791286D01*
X124217715Y-139648429D01*
X124289143Y-139577000D01*
X124432001Y-139505571D01*
X124646286Y-139505571D01*
X124789143Y-139577000D01*
X124860572Y-139648429D01*
X124932001Y-139791286D01*
X124932001Y-140219857D01*
X124860572Y-140362714D01*
X124789143Y-140434143D01*
X124646286Y-140505571D01*
X124432001Y-140505571D01*
X125574858Y-140505571D02*
X125574858Y-139505571D01*
X125574858Y-139791286D02*
X125646286Y-139648429D01*
X125717715Y-139577000D01*
X125860572Y-139505571D01*
X126003429Y-139505571D01*
X128503429Y-140505571D02*
X128003429Y-139791286D01*
X127646286Y-140505571D02*
X127646286Y-139005571D01*
X128217714Y-139005571D01*
X128360572Y-139077000D01*
X128432000Y-139148429D01*
X128503429Y-139291286D01*
X128503429Y-139505571D01*
X128432000Y-139648429D01*
X128360572Y-139719857D01*
X128217714Y-139791286D01*
X127646286Y-139791286D01*
X129789143Y-140505571D02*
X129789143Y-139719857D01*
X129717714Y-139577000D01*
X129574857Y-139505571D01*
X129289143Y-139505571D01*
X129146286Y-139577000D01*
X129789143Y-140434143D02*
X129646286Y-140505571D01*
X129289143Y-140505571D01*
X129146286Y-140434143D01*
X129074857Y-140291286D01*
X129074857Y-140148429D01*
X129146286Y-140005571D01*
X129289143Y-139934143D01*
X129646286Y-139934143D01*
X129789143Y-139862714D01*
X130432000Y-140434143D02*
X130574857Y-140505571D01*
X130860572Y-140505571D01*
X131003429Y-140434143D01*
X131074857Y-140291286D01*
X131074857Y-140219857D01*
X131003429Y-140077000D01*
X130860572Y-140005571D01*
X130646286Y-140005571D01*
X130503429Y-139934143D01*
X130432000Y-139791286D01*
X130432000Y-139719857D01*
X130503429Y-139577000D01*
X130646286Y-139505571D01*
X130860572Y-139505571D01*
X131003429Y-139577000D01*
X131717715Y-139505571D02*
X131717715Y-141005571D01*
X131717715Y-139577000D02*
X131860572Y-139505571D01*
X132146286Y-139505571D01*
X132289143Y-139577000D01*
X132360572Y-139648429D01*
X132432001Y-139791286D01*
X132432001Y-140219857D01*
X132360572Y-140362714D01*
X132289143Y-140434143D01*
X132146286Y-140505571D01*
X131860572Y-140505571D01*
X131717715Y-140434143D01*
X133074858Y-140505571D02*
X133074858Y-139005571D01*
X133074858Y-139577000D02*
X133217715Y-139505571D01*
X133503429Y-139505571D01*
X133646286Y-139577000D01*
X133717715Y-139648429D01*
X133789144Y-139791286D01*
X133789144Y-140219857D01*
X133717715Y-140362714D01*
X133646286Y-140434143D01*
X133503429Y-140505571D01*
X133217715Y-140505571D01*
X133074858Y-140434143D01*
X135003429Y-140434143D02*
X134860572Y-140505571D01*
X134574858Y-140505571D01*
X134432001Y-140434143D01*
X134360572Y-140291286D01*
X134360572Y-139719857D01*
X134432001Y-139577000D01*
X134574858Y-139505571D01*
X134860572Y-139505571D01*
X135003429Y-139577000D01*
X135074858Y-139719857D01*
X135074858Y-139862714D01*
X134360572Y-140005571D01*
X135717715Y-140505571D02*
X135717715Y-139505571D01*
X135717715Y-139791286D02*
X135789143Y-139648429D01*
X135860572Y-139577000D01*
X136003429Y-139505571D01*
X136146286Y-139505571D01*
X136646286Y-140505571D02*
X136646286Y-139505571D01*
X136646286Y-139791286D02*
X136717714Y-139648429D01*
X136789143Y-139577000D01*
X136932000Y-139505571D01*
X137074857Y-139505571D01*
X137432000Y-139505571D02*
X137789143Y-140505571D01*
X138146285Y-139505571D02*
X137789143Y-140505571D01*
X137646285Y-140862714D01*
X137574857Y-140934143D01*
X137432000Y-141005571D01*
X139860571Y-140505571D02*
X139860571Y-139005571D01*
X140431999Y-139005571D01*
X140574857Y-139077000D01*
X140646285Y-139148429D01*
X140717714Y-139291286D01*
X140717714Y-139505571D01*
X140646285Y-139648429D01*
X140574857Y-139719857D01*
X140431999Y-139791286D01*
X139860571Y-139791286D01*
X141360571Y-140505571D02*
X141360571Y-139505571D01*
X141360571Y-139005571D02*
X141289142Y-139077000D01*
X141360571Y-139148429D01*
X141431999Y-139077000D01*
X141360571Y-139005571D01*
X141360571Y-139148429D01*
D11*
X131730000Y-107500000D02*
X131730000Y-105000000D01*
X130730000Y-107500000D02*
X130730000Y-105000000D01*
X129730000Y-107500000D02*
X129730000Y-105000000D01*
X128730000Y-107500000D02*
X128730000Y-105000000D01*
X133730000Y-107500000D02*
X133730000Y-102500000D01*
X126730000Y-107500000D02*
X133730000Y-107500000D01*
X126730000Y-102500000D02*
X126730000Y-107500000D01*
X131706787Y-135000000D02*
G75*
G03X131706787Y-135000000I-1476787J0D01*
G01*
X133230000Y-132000000D02*
X133230000Y-138000000D01*
X127230000Y-132000000D02*
X133230000Y-132000000D01*
X127230000Y-138000000D02*
X127230000Y-132000000D01*
X120000000Y-138000000D02*
X120000000Y-102500000D01*
X140460000Y-102500000D02*
X140460000Y-138000000D01*
X120000000Y-102500000D02*
X140460000Y-102500000D01*
D13*
G36*
X112161753Y-103188524D02*
X112272518Y-103198785D01*
X112382870Y-103214569D01*
X112457089Y-103228373D01*
X112565080Y-103253200D01*
X112671186Y-103283273D01*
X112775246Y-103318463D01*
X112877098Y-103358641D01*
X112976581Y-103403679D01*
X113073535Y-103453447D01*
X113167798Y-103507818D01*
X113259209Y-103566662D01*
X113347607Y-103629850D01*
X113432831Y-103697255D01*
X113514719Y-103768746D01*
X113593111Y-103844195D01*
X113667845Y-103923474D01*
X113738761Y-104006454D01*
X113805697Y-104093005D01*
X113868493Y-104183000D01*
X113926986Y-104276309D01*
X113981017Y-104372804D01*
X114030423Y-104472356D01*
X114040214Y-104493678D01*
X114080485Y-104588820D01*
X114116690Y-104687197D01*
X114148529Y-104787841D01*
X114175701Y-104889783D01*
X114197904Y-104992053D01*
X114202417Y-105016300D01*
X114205946Y-105036652D01*
X114209465Y-105058337D01*
X114212881Y-105080633D01*
X114216099Y-105102819D01*
X114219025Y-105124174D01*
X114221566Y-105143975D01*
X114223627Y-105161503D01*
X114225115Y-105176035D01*
X114225935Y-105186851D01*
X114225994Y-105193228D01*
X114225650Y-105194602D01*
X114222863Y-105193767D01*
X114217268Y-105189966D01*
X114211542Y-105185275D01*
X114186095Y-105166626D01*
X114155962Y-105151054D01*
X114121204Y-105138579D01*
X114081879Y-105129223D01*
X114038048Y-105123004D01*
X114026245Y-105121930D01*
X113985901Y-105120336D01*
X113948310Y-105122560D01*
X113911899Y-105128792D01*
X113875098Y-105139224D01*
X113870344Y-105140849D01*
X113851235Y-105148119D01*
X113830283Y-105157119D01*
X113809311Y-105166991D01*
X113790145Y-105176879D01*
X113775059Y-105185638D01*
X113768616Y-105189961D01*
X113758492Y-105197062D01*
X113745521Y-105206333D01*
X113730536Y-105217164D01*
X113714370Y-105228946D01*
X113697858Y-105241069D01*
X113681833Y-105252925D01*
X113667128Y-105263904D01*
X113654577Y-105273396D01*
X113646667Y-105279494D01*
X113626923Y-105294923D01*
X113623257Y-105282611D01*
X113619446Y-105268044D01*
X113615373Y-105249445D01*
X113611343Y-105228401D01*
X113607658Y-105206496D01*
X113604622Y-105185316D01*
X113604583Y-105185010D01*
X113602785Y-105172031D01*
X113601008Y-105161012D01*
X113599474Y-105153229D01*
X113598516Y-105150094D01*
X113597594Y-105149097D01*
X113595916Y-105148411D01*
X113593013Y-105148095D01*
X113588417Y-105148207D01*
X113581659Y-105148806D01*
X113572271Y-105149951D01*
X113559785Y-105151700D01*
X113543732Y-105154112D01*
X113523644Y-105157246D01*
X113499051Y-105161159D01*
X113469487Y-105165911D01*
X113460389Y-105167378D01*
X113431412Y-105172081D01*
X113407515Y-105176041D01*
X113388199Y-105179368D01*
X113372965Y-105182176D01*
X113361314Y-105184574D01*
X113352747Y-105186675D01*
X113346765Y-105188590D01*
X113342868Y-105190430D01*
X113340558Y-105192307D01*
X113339335Y-105194332D01*
X113339304Y-105194413D01*
X113339300Y-105198692D01*
X113340499Y-105207108D01*
X113342682Y-105218335D01*
X113344856Y-105227899D01*
X113353272Y-105265974D01*
X113361284Y-105308369D01*
X113368682Y-105353763D01*
X113375260Y-105400836D01*
X113380808Y-105448265D01*
X113382904Y-105469266D01*
X113384053Y-105485017D01*
X113385051Y-105506038D01*
X113385896Y-105531960D01*
X113386585Y-105562411D01*
X113387116Y-105597020D01*
X113387485Y-105635415D01*
X113387692Y-105677226D01*
X113387732Y-105722082D01*
X113387603Y-105769611D01*
X113387303Y-105819442D01*
X113386830Y-105871204D01*
X113386180Y-105924526D01*
X113386082Y-105931601D01*
X113385487Y-105976828D01*
X113385049Y-106016751D01*
X113384768Y-106051324D01*
X113384645Y-106080501D01*
X113384680Y-106104237D01*
X113384872Y-106122488D01*
X113385221Y-106135207D01*
X113385728Y-106142349D01*
X113385998Y-106143707D01*
X113390811Y-106150915D01*
X113396367Y-106154626D01*
X113400358Y-106155136D01*
X113409227Y-106155660D01*
X113422207Y-106156186D01*
X113438530Y-106156700D01*
X113457431Y-106157189D01*
X113478142Y-106157641D01*
X113499896Y-106158043D01*
X113521926Y-106158382D01*
X113543467Y-106158646D01*
X113563750Y-106158820D01*
X113582009Y-106158894D01*
X113597477Y-106158853D01*
X113609387Y-106158685D01*
X113616973Y-106158378D01*
X113617629Y-106158325D01*
X113619422Y-106158149D01*
X113621029Y-106157764D01*
X113622460Y-106156874D01*
X113623729Y-106155183D01*
X113624846Y-106152395D01*
X113625823Y-106148214D01*
X113626671Y-106142343D01*
X113627403Y-106134486D01*
X113628029Y-106124347D01*
X113628561Y-106111630D01*
X113629012Y-106096039D01*
X113629392Y-106077277D01*
X113629713Y-106055049D01*
X113629987Y-106029059D01*
X113630225Y-105999009D01*
X113630440Y-105964604D01*
X113630641Y-105925548D01*
X113630842Y-105881545D01*
X113631054Y-105832298D01*
X113631134Y-105813578D01*
X113631332Y-105762393D01*
X113631486Y-105716537D01*
X113631624Y-105675697D01*
X113631774Y-105639555D01*
X113631965Y-105607799D01*
X113632225Y-105580114D01*
X113632582Y-105556184D01*
X113633064Y-105535694D01*
X113633700Y-105518331D01*
X113634518Y-105503780D01*
X113635546Y-105491725D01*
X113636812Y-105481852D01*
X113638344Y-105473846D01*
X113640172Y-105467393D01*
X113642323Y-105462178D01*
X113644824Y-105457885D01*
X113647706Y-105454201D01*
X113650995Y-105450811D01*
X113654721Y-105447399D01*
X113658910Y-105443652D01*
X113663592Y-105439254D01*
X113664840Y-105438019D01*
X113682864Y-105421813D01*
X113705008Y-105404844D01*
X113729969Y-105387907D01*
X113756443Y-105371795D01*
X113783124Y-105357304D01*
X113808709Y-105345228D01*
X113831511Y-105336487D01*
X113841384Y-105333505D01*
X113850357Y-105331535D01*
X113860033Y-105330396D01*
X113872016Y-105329905D01*
X113887908Y-105329878D01*
X113889367Y-105329890D01*
X113920732Y-105331437D01*
X113947938Y-105335658D01*
X113971928Y-105342818D01*
X113993647Y-105353182D01*
X114009392Y-105363492D01*
X114025227Y-105378499D01*
X114038580Y-105398465D01*
X114049470Y-105423430D01*
X114057915Y-105453434D01*
X114061869Y-105474201D01*
X114063074Y-105484753D01*
X114064163Y-105500479D01*
X114065133Y-105520911D01*
X114065980Y-105545578D01*
X114066701Y-105574011D01*
X114067292Y-105605742D01*
X114067750Y-105640302D01*
X114068071Y-105677220D01*
X114068250Y-105716028D01*
X114068286Y-105756257D01*
X114068173Y-105797438D01*
X114067909Y-105839101D01*
X114067490Y-105880776D01*
X114066911Y-105921996D01*
X114066170Y-105962291D01*
X114065778Y-105980190D01*
X114065007Y-106014160D01*
X114064386Y-106042946D01*
X114063920Y-106067004D01*
X114063609Y-106086793D01*
X114063458Y-106102771D01*
X114063468Y-106115395D01*
X114063642Y-106125124D01*
X114063982Y-106132414D01*
X114064492Y-106137724D01*
X114065172Y-106141512D01*
X114066026Y-106144235D01*
X114066678Y-106145654D01*
X114070821Y-106152110D01*
X114075973Y-106155832D01*
X114083717Y-106157522D01*
X114094209Y-106157889D01*
X114102184Y-106158297D01*
X114107203Y-106159340D01*
X114108089Y-106160124D01*
X114106990Y-106165010D01*
X114103877Y-106174379D01*
X114099026Y-106187558D01*
X114092715Y-106203870D01*
X114085219Y-106222642D01*
X114076816Y-106243197D01*
X114067782Y-106264862D01*
X114058394Y-106286961D01*
X114048929Y-106308820D01*
X114039662Y-106329763D01*
X114030872Y-106349115D01*
X114028751Y-106353690D01*
X113979683Y-106452381D01*
X113925625Y-106548591D01*
X113866757Y-106642097D01*
X113803263Y-106732675D01*
X113735323Y-106820104D01*
X113663121Y-106904161D01*
X113586838Y-106984622D01*
X113506656Y-107061265D01*
X113422758Y-107133866D01*
X113336211Y-107201545D01*
X113245316Y-107265573D01*
X113151611Y-107324791D01*
X113055309Y-107379131D01*
X112956621Y-107428522D01*
X112855758Y-107472897D01*
X112752932Y-107512185D01*
X112648354Y-107546317D01*
X112542236Y-107575225D01*
X112434789Y-107598839D01*
X112326225Y-107617090D01*
X112216754Y-107629908D01*
X112106588Y-107637225D01*
X111999889Y-107639005D01*
X111979487Y-107638819D01*
X111959884Y-107638587D01*
X111942139Y-107638328D01*
X111927309Y-107638058D01*
X111916454Y-107637792D01*
X111912400Y-107637646D01*
X111800289Y-107629812D01*
X111688919Y-107616401D01*
X111578457Y-107597453D01*
X111469069Y-107573008D01*
X111360919Y-107543102D01*
X111254175Y-107507777D01*
X111149000Y-107467070D01*
X111103834Y-107447715D01*
X111082780Y-107438107D01*
X111058001Y-107426273D01*
X111030659Y-107412812D01*
X111001919Y-107398318D01*
X110972944Y-107383388D01*
X110944896Y-107368619D01*
X110918940Y-107354606D01*
X110896238Y-107341947D01*
X110886522Y-107336340D01*
X110849627Y-107314037D01*
X110810269Y-107288975D01*
X110769562Y-107261932D01*
X110728617Y-107233686D01*
X110688547Y-107205016D01*
X110650464Y-107176699D01*
X110615481Y-107149513D01*
X110591600Y-107130045D01*
X110555143Y-107098817D01*
X110547570Y-107092044D01*
X111496855Y-107092044D01*
X111499221Y-107128583D01*
X111506677Y-107162716D01*
X111519294Y-107194613D01*
X111537141Y-107224445D01*
X111560286Y-107252383D01*
X111563079Y-107255267D01*
X111590402Y-107279214D01*
X111620297Y-107298279D01*
X111652298Y-107312329D01*
X111685938Y-107321235D01*
X111720753Y-107324865D01*
X111756277Y-107323087D01*
X111784877Y-107317688D01*
X111818098Y-107306493D01*
X111848995Y-107290436D01*
X111877091Y-107269985D01*
X111901913Y-107245612D01*
X111922985Y-107217787D01*
X111939831Y-107186979D01*
X111951977Y-107153659D01*
X111952466Y-107151884D01*
X111956529Y-107131165D01*
X111958649Y-107107428D01*
X111958827Y-107082653D01*
X111957065Y-107058820D01*
X111953365Y-107037907D01*
X111952375Y-107034189D01*
X111939948Y-107000064D01*
X111923324Y-106969186D01*
X111902969Y-106941759D01*
X111879347Y-106917990D01*
X111852921Y-106898084D01*
X111824156Y-106882248D01*
X111793518Y-106870688D01*
X111761469Y-106863609D01*
X111728475Y-106861218D01*
X111695001Y-106863719D01*
X111661509Y-106871321D01*
X111628465Y-106884227D01*
X111621742Y-106887571D01*
X111590912Y-106906543D01*
X111563986Y-106929403D01*
X111541221Y-106955728D01*
X111522874Y-106985097D01*
X111509204Y-107017089D01*
X111500467Y-107051281D01*
X111496921Y-107087254D01*
X111496855Y-107092044D01*
X110547570Y-107092044D01*
X110517598Y-107065239D01*
X110479892Y-107030208D01*
X110442951Y-106994619D01*
X110407700Y-106959367D01*
X110375066Y-106925348D01*
X110345976Y-106893456D01*
X110340776Y-106887540D01*
X110269033Y-106801607D01*
X110210167Y-106724156D01*
X112910675Y-106724156D01*
X112914591Y-106759262D01*
X112917265Y-106771825D01*
X112921746Y-106785961D01*
X112928760Y-106802831D01*
X112937438Y-106820665D01*
X112946906Y-106837698D01*
X112956292Y-106852161D01*
X112958112Y-106854628D01*
X112978944Y-106877821D01*
X113003971Y-106898494D01*
X113032045Y-106915953D01*
X113062019Y-106929502D01*
X113092746Y-106938445D01*
X113098074Y-106939478D01*
X113110761Y-106940829D01*
X113127184Y-106941283D01*
X113145521Y-106940918D01*
X113163950Y-106939812D01*
X113180647Y-106938041D01*
X113193789Y-106935683D01*
X113195100Y-106935349D01*
X113212242Y-106929591D01*
X113231499Y-106921227D01*
X113250868Y-106911270D01*
X113268346Y-106900736D01*
X113279668Y-106892536D01*
X113305201Y-106868430D01*
X113326261Y-106841514D01*
X113342805Y-106812343D01*
X113354791Y-106781473D01*
X113362175Y-106749458D01*
X113364914Y-106716854D01*
X113362965Y-106684215D01*
X113356283Y-106652096D01*
X113344826Y-106621053D01*
X113328551Y-106591640D01*
X113307414Y-106564413D01*
X113305436Y-106562264D01*
X113278540Y-106537008D01*
X113249868Y-106517086D01*
X113219233Y-106502414D01*
X113186446Y-106492911D01*
X113151319Y-106488491D01*
X113137245Y-106488128D01*
X113102000Y-106490757D01*
X113068740Y-106498371D01*
X113037778Y-106510564D01*
X113009430Y-106526929D01*
X112984011Y-106547060D01*
X112961838Y-106570551D01*
X112943224Y-106596994D01*
X112928485Y-106625982D01*
X112917937Y-106657110D01*
X112911895Y-106689970D01*
X112910675Y-106724156D01*
X110210167Y-106724156D01*
X110202599Y-106714200D01*
X110141250Y-106624969D01*
X110084764Y-106533562D01*
X110032917Y-106439631D01*
X109985487Y-106342822D01*
X109964634Y-106296178D01*
X109957143Y-106278624D01*
X109949350Y-106259858D01*
X109941534Y-106240606D01*
X109933976Y-106221593D01*
X109926954Y-106203544D01*
X109920748Y-106187185D01*
X109915637Y-106173241D01*
X109911901Y-106162438D01*
X109909820Y-106155502D01*
X109909561Y-106153187D01*
X109912646Y-106152968D01*
X109920412Y-106153141D01*
X109931911Y-106153665D01*
X109946195Y-106154500D01*
X109958454Y-106155324D01*
X109976209Y-106156529D01*
X109989292Y-106157236D01*
X109998653Y-106157421D01*
X110005243Y-106157065D01*
X110010013Y-106156146D01*
X110013915Y-106154642D01*
X110015111Y-106154046D01*
X110017485Y-106152868D01*
X110019615Y-106151720D01*
X110021508Y-106150308D01*
X110023175Y-106148334D01*
X110024623Y-106145503D01*
X110025863Y-106141517D01*
X110026904Y-106136083D01*
X110027753Y-106128901D01*
X110028421Y-106119678D01*
X110028916Y-106108116D01*
X110029248Y-106093920D01*
X110029426Y-106076793D01*
X110029458Y-106056438D01*
X110029354Y-106032560D01*
X110029123Y-106004863D01*
X110028773Y-105973050D01*
X110028315Y-105936826D01*
X110027756Y-105895893D01*
X110027107Y-105849956D01*
X110026376Y-105798718D01*
X110026252Y-105790020D01*
X110025370Y-105727812D01*
X110024572Y-105670999D01*
X110023857Y-105619334D01*
X110023224Y-105572567D01*
X110022672Y-105530450D01*
X110022200Y-105492735D01*
X110021806Y-105459175D01*
X110021490Y-105429519D01*
X110021251Y-105403520D01*
X110021088Y-105380930D01*
X110020999Y-105361500D01*
X110020983Y-105344981D01*
X110021039Y-105331126D01*
X110021167Y-105319687D01*
X110021365Y-105310414D01*
X110021632Y-105303059D01*
X110021967Y-105297374D01*
X110022369Y-105293111D01*
X110022837Y-105290022D01*
X110023369Y-105287857D01*
X110023965Y-105286369D01*
X110024068Y-105286174D01*
X110027732Y-105279471D01*
X110034203Y-105286174D01*
X110036670Y-105290004D01*
X110041087Y-105298413D01*
X110047469Y-105311441D01*
X110055835Y-105329125D01*
X110066200Y-105351502D01*
X110078583Y-105378612D01*
X110092999Y-105410491D01*
X110109466Y-105447178D01*
X110128000Y-105488710D01*
X110148619Y-105535125D01*
X110171339Y-105586461D01*
X110196177Y-105642756D01*
X110223151Y-105704048D01*
X110252276Y-105770374D01*
X110283570Y-105841773D01*
X110317050Y-105918282D01*
X110352733Y-105999940D01*
X110355772Y-106006900D01*
X110367942Y-106034636D01*
X110379578Y-106060899D01*
X110390464Y-106085219D01*
X110400384Y-106107125D01*
X110409123Y-106126146D01*
X110416463Y-106141811D01*
X110422190Y-106153649D01*
X110426086Y-106161191D01*
X110427831Y-106163899D01*
X110435244Y-106168006D01*
X110446772Y-106171239D01*
X110462735Y-106173635D01*
X110483450Y-106175235D01*
X110509235Y-106176075D01*
X110529511Y-106176233D01*
X110550030Y-106176161D01*
X110565787Y-106175903D01*
X110577665Y-106175399D01*
X110586546Y-106174585D01*
X110593312Y-106173400D01*
X110598844Y-106171783D01*
X110600208Y-106171276D01*
X110605900Y-106168897D01*
X110610113Y-106166217D01*
X110613636Y-106162172D01*
X110617259Y-106155697D01*
X110621772Y-106145729D01*
X110625328Y-106137410D01*
X110635758Y-106112649D01*
X110646599Y-106086536D01*
X110657460Y-106060045D01*
X110667950Y-106034147D01*
X110677675Y-106009814D01*
X110686245Y-105988018D01*
X110693268Y-105969731D01*
X110697179Y-105959192D01*
X110701601Y-105947444D01*
X110708038Y-105930980D01*
X110716290Y-105910280D01*
X110726158Y-105885821D01*
X110737443Y-105858080D01*
X110749946Y-105827536D01*
X110763469Y-105794667D01*
X110777812Y-105759949D01*
X110792776Y-105723861D01*
X110808163Y-105686881D01*
X110823773Y-105649487D01*
X110839408Y-105612156D01*
X110854868Y-105575366D01*
X110869954Y-105539595D01*
X110884468Y-105505320D01*
X110898210Y-105473020D01*
X110910982Y-105443173D01*
X110922584Y-105416255D01*
X110932818Y-105392745D01*
X110937642Y-105381778D01*
X110947992Y-105358438D01*
X110956387Y-105339776D01*
X110963113Y-105325283D01*
X110968450Y-105314456D01*
X110972682Y-105306786D01*
X110976091Y-105301769D01*
X110978961Y-105298899D01*
X110981575Y-105297668D01*
X110984214Y-105297572D01*
X110984667Y-105297630D01*
X110990945Y-105298522D01*
X110990485Y-105426933D01*
X110990274Y-105458739D01*
X110989868Y-105494714D01*
X110989295Y-105533388D01*
X110988581Y-105573290D01*
X110987753Y-105612950D01*
X110986837Y-105650897D01*
X110985861Y-105685660D01*
X110985613Y-105693633D01*
X110984594Y-105726658D01*
X110983505Y-105763898D01*
X110982385Y-105803924D01*
X110981271Y-105845309D01*
X110980202Y-105886623D01*
X110979216Y-105926439D01*
X110978350Y-105963329D01*
X110977977Y-105980089D01*
X110977237Y-106014492D01*
X110976654Y-106043709D01*
X110976263Y-106068197D01*
X110976098Y-106088413D01*
X110976191Y-106104813D01*
X110976576Y-106117854D01*
X110977288Y-106127994D01*
X110978359Y-106135689D01*
X110979823Y-106141396D01*
X110981715Y-106145573D01*
X110984067Y-106148675D01*
X110986913Y-106151159D01*
X110990288Y-106153484D01*
X110990764Y-106153797D01*
X110993676Y-106155429D01*
X110997188Y-106156551D01*
X111002133Y-106157179D01*
X111009343Y-106157329D01*
X111019651Y-106157018D01*
X111033889Y-106156261D01*
X111052889Y-106155074D01*
X111053795Y-106155015D01*
X111093837Y-106153134D01*
X111131423Y-106152925D01*
X111160278Y-106153872D01*
X111178574Y-106154697D01*
X111196715Y-106155414D01*
X111213215Y-106155970D01*
X111226586Y-106156314D01*
X111233199Y-106156400D01*
X111244496Y-106156297D01*
X111251711Y-106155609D01*
X111256405Y-106153913D01*
X111260137Y-106150787D01*
X111262126Y-106148559D01*
X111264857Y-106145082D01*
X111266739Y-106141399D01*
X111267929Y-106136434D01*
X111268582Y-106129114D01*
X111268856Y-106118364D01*
X111268907Y-106103112D01*
X111268906Y-106101992D01*
X111268771Y-106084588D01*
X111268394Y-106061973D01*
X111267788Y-106034575D01*
X111266966Y-106002824D01*
X111265941Y-105967146D01*
X111264724Y-105927970D01*
X111263330Y-105885724D01*
X111261770Y-105840837D01*
X111260057Y-105793735D01*
X111258838Y-105761366D01*
X111256421Y-105693166D01*
X111254509Y-105627912D01*
X111254339Y-105620255D01*
X111315146Y-105620255D01*
X111315316Y-105675967D01*
X111320779Y-105730749D01*
X111331410Y-105784210D01*
X111347083Y-105835958D01*
X111367670Y-105885604D01*
X111393046Y-105932756D01*
X111423085Y-105977023D01*
X111435489Y-105992754D01*
X111472710Y-106034171D01*
X111512173Y-106070422D01*
X111553963Y-106101557D01*
X111598164Y-106127624D01*
X111644860Y-106148674D01*
X111694134Y-106164756D01*
X111746073Y-106175920D01*
X111747378Y-106176132D01*
X111764408Y-106178089D01*
X111785677Y-106179317D01*
X111809831Y-106179845D01*
X111835517Y-106179702D01*
X111861379Y-106178916D01*
X111886065Y-106177517D01*
X111908219Y-106175532D01*
X111926487Y-106172991D01*
X111930377Y-106172254D01*
X111963612Y-106164411D01*
X111994610Y-106154626D01*
X112025627Y-106142114D01*
X112049278Y-106130958D01*
X112078117Y-106115579D01*
X112104350Y-106099130D01*
X112129363Y-106080599D01*
X112154545Y-106058969D01*
X112176563Y-106037944D01*
X112199903Y-106013956D01*
X112219706Y-105991609D01*
X112237145Y-105969437D01*
X112253398Y-105945979D01*
X112264240Y-105928761D01*
X112278803Y-105902941D01*
X112292448Y-105875110D01*
X112304516Y-105846821D01*
X112314350Y-105819628D01*
X112321290Y-105795084D01*
X112321737Y-105793116D01*
X112324265Y-105783937D01*
X112326774Y-105778292D01*
X112328825Y-105776741D01*
X112329978Y-105779848D01*
X112330089Y-105782450D01*
X112331121Y-105788839D01*
X112333962Y-105799341D01*
X112338226Y-105812868D01*
X112343531Y-105828332D01*
X112349491Y-105844645D01*
X112355724Y-105860718D01*
X112361844Y-105875463D01*
X112366734Y-105886271D01*
X112388046Y-105926153D01*
X112413123Y-105964169D01*
X112442538Y-106001091D01*
X112476865Y-106037691D01*
X112485059Y-106045706D01*
X112525008Y-106080527D01*
X112567302Y-106110214D01*
X112611954Y-106134773D01*
X112658978Y-106154212D01*
X112708388Y-106168536D01*
X112760127Y-106177744D01*
X112779064Y-106179393D01*
X112801858Y-106180212D01*
X112827033Y-106180251D01*
X112853118Y-106179555D01*
X112878638Y-106178174D01*
X112902119Y-106176155D01*
X112922089Y-106173546D01*
X112929245Y-106172252D01*
X112978032Y-106159915D01*
X113024043Y-106143076D01*
X113067659Y-106121519D01*
X113109258Y-106095031D01*
X113149221Y-106063397D01*
X113187928Y-106026403D01*
X113188273Y-106026044D01*
X113225095Y-105983915D01*
X113256741Y-105939615D01*
X113283246Y-105893057D01*
X113304648Y-105844156D01*
X113320980Y-105792827D01*
X113332280Y-105738984D01*
X113338582Y-105682541D01*
X113339546Y-105664000D01*
X113339170Y-105606489D01*
X113333566Y-105551104D01*
X113322731Y-105497827D01*
X113306659Y-105446641D01*
X113285347Y-105397529D01*
X113258790Y-105350475D01*
X113250459Y-105337733D01*
X113217836Y-105293898D01*
X113181885Y-105254109D01*
X113142927Y-105218631D01*
X113101287Y-105187729D01*
X113057289Y-105161670D01*
X113011255Y-105140720D01*
X113009868Y-105140181D01*
X112964240Y-105125412D01*
X112916104Y-105115147D01*
X112866351Y-105109386D01*
X112815873Y-105108129D01*
X112765561Y-105111374D01*
X112716307Y-105119122D01*
X112669002Y-105131371D01*
X112643012Y-105140460D01*
X112597546Y-105160991D01*
X112554143Y-105186483D01*
X112513184Y-105216509D01*
X112475049Y-105250641D01*
X112440118Y-105288453D01*
X112408771Y-105329519D01*
X112381388Y-105373410D01*
X112358349Y-105419701D01*
X112340035Y-105467963D01*
X112334251Y-105487242D01*
X112331253Y-105497039D01*
X112328659Y-105503727D01*
X112326872Y-105506336D01*
X112326451Y-105505955D01*
X112325071Y-105501621D01*
X112322451Y-105493207D01*
X112319001Y-105482032D01*
X112316056Y-105472442D01*
X112298572Y-105424563D01*
X112276188Y-105378439D01*
X112249318Y-105334522D01*
X112218379Y-105293264D01*
X112183785Y-105255119D01*
X112145952Y-105220537D01*
X112105297Y-105189973D01*
X112062233Y-105163877D01*
X112017178Y-105142702D01*
X112010801Y-105140181D01*
X111965438Y-105125496D01*
X111917525Y-105115259D01*
X111867973Y-105109469D01*
X111817696Y-105108127D01*
X111767606Y-105111233D01*
X111718618Y-105118788D01*
X111671643Y-105130791D01*
X111644825Y-105140120D01*
X111598226Y-105161118D01*
X111553831Y-105187178D01*
X111511955Y-105218043D01*
X111472910Y-105253457D01*
X111437010Y-105293162D01*
X111404756Y-105336622D01*
X111378173Y-105380366D01*
X111356470Y-105425291D01*
X111339467Y-105471977D01*
X111326979Y-105521000D01*
X111318826Y-105572937D01*
X111315146Y-105620255D01*
X111254339Y-105620255D01*
X111253103Y-105564712D01*
X111252203Y-105502673D01*
X111251809Y-105440901D01*
X111251922Y-105378504D01*
X111252540Y-105314587D01*
X111253665Y-105248258D01*
X111255296Y-105178624D01*
X111257434Y-105104791D01*
X111258942Y-105058633D01*
X111259992Y-105025979D01*
X111261050Y-104989913D01*
X111262081Y-104951933D01*
X111263045Y-104913541D01*
X111263905Y-104876235D01*
X111264624Y-104841517D01*
X111265164Y-104810886D01*
X111265180Y-104809896D01*
X111267016Y-104690981D01*
X111260184Y-104684150D01*
X111258424Y-104682474D01*
X111256449Y-104681073D01*
X111253727Y-104679894D01*
X111249724Y-104678887D01*
X111243908Y-104677998D01*
X111235746Y-104677176D01*
X111224704Y-104676369D01*
X111210251Y-104675525D01*
X111191853Y-104674592D01*
X111168977Y-104673518D01*
X111141091Y-104672252D01*
X111135529Y-104672001D01*
X111101091Y-104670525D01*
X111072071Y-104669447D01*
X111048509Y-104668770D01*
X111030445Y-104668493D01*
X111017918Y-104668617D01*
X111010969Y-104669145D01*
X111009969Y-104669385D01*
X111001999Y-104674813D01*
X110993489Y-104685588D01*
X110984600Y-104701459D01*
X110975491Y-104722172D01*
X110973979Y-104726036D01*
X110942353Y-104807863D01*
X110910307Y-104890288D01*
X110878057Y-104972764D01*
X110845823Y-105054744D01*
X110813822Y-105135679D01*
X110782273Y-105215023D01*
X110751393Y-105292228D01*
X110721402Y-105366745D01*
X110692518Y-105438029D01*
X110664957Y-105505531D01*
X110638940Y-105568703D01*
X110619862Y-105614611D01*
X110604406Y-105651533D01*
X110590898Y-105683560D01*
X110579180Y-105711033D01*
X110569094Y-105734294D01*
X110560483Y-105753685D01*
X110553189Y-105769547D01*
X110547054Y-105782222D01*
X110541921Y-105792053D01*
X110537632Y-105799380D01*
X110534030Y-105804546D01*
X110530956Y-105807892D01*
X110530527Y-105808261D01*
X110528936Y-105809447D01*
X110527354Y-105810083D01*
X110525637Y-105809875D01*
X110523645Y-105808530D01*
X110521235Y-105805753D01*
X110518265Y-105801252D01*
X110514593Y-105794733D01*
X110510078Y-105785901D01*
X110504576Y-105774464D01*
X110497946Y-105760128D01*
X110490046Y-105742598D01*
X110480735Y-105721582D01*
X110469868Y-105696785D01*
X110457306Y-105667914D01*
X110442906Y-105634676D01*
X110426525Y-105596776D01*
X110412291Y-105563811D01*
X110397451Y-105529570D01*
X110381411Y-105492809D01*
X110364313Y-105453843D01*
X110346299Y-105412984D01*
X110327513Y-105370547D01*
X110308097Y-105326847D01*
X110288193Y-105282196D01*
X110267944Y-105236910D01*
X110247492Y-105191302D01*
X110226980Y-105145686D01*
X110206550Y-105100377D01*
X110186344Y-105055688D01*
X110166506Y-105011934D01*
X110147177Y-104969428D01*
X110128501Y-104928484D01*
X110110619Y-104889417D01*
X110093674Y-104852541D01*
X110077808Y-104818170D01*
X110063165Y-104786617D01*
X110049886Y-104758197D01*
X110038114Y-104733223D01*
X110027992Y-104712011D01*
X110019662Y-104694874D01*
X110013266Y-104682125D01*
X110008947Y-104674080D01*
X110007698Y-104672047D01*
X110000027Y-104660700D01*
X109955736Y-104661348D01*
X109940646Y-104661520D01*
X109927764Y-104661573D01*
X109918043Y-104661512D01*
X109912437Y-104661339D01*
X109911445Y-104661183D01*
X109912418Y-104657879D01*
X109915093Y-104650299D01*
X109919102Y-104639416D01*
X109924077Y-104626207D01*
X109929651Y-104611645D01*
X109935456Y-104596706D01*
X109941125Y-104582363D01*
X109941964Y-104580266D01*
X109985361Y-104479516D01*
X110033992Y-104380721D01*
X110087723Y-104284101D01*
X110137930Y-104203500D01*
X110593366Y-104203500D01*
X110595960Y-104233754D01*
X110603743Y-104261786D01*
X110616714Y-104287594D01*
X110634872Y-104311175D01*
X110643458Y-104319863D01*
X110667470Y-104339055D01*
X110693321Y-104353039D01*
X110720672Y-104361717D01*
X110749182Y-104364987D01*
X110778511Y-104362749D01*
X110784922Y-104361532D01*
X110813028Y-104352853D01*
X110838882Y-104339380D01*
X110861890Y-104321674D01*
X110881460Y-104300296D01*
X110896998Y-104275804D01*
X110907909Y-104248760D01*
X110909170Y-104244294D01*
X110911897Y-104228816D01*
X110913083Y-104210229D01*
X110912733Y-104190854D01*
X110910849Y-104173010D01*
X110909020Y-104164136D01*
X110899486Y-104137924D01*
X110885324Y-104113387D01*
X110867315Y-104091522D01*
X110846241Y-104073325D01*
X110829818Y-104063163D01*
X110805822Y-104052497D01*
X110782350Y-104046308D01*
X110757314Y-104044072D01*
X110753878Y-104044044D01*
X110723734Y-104046535D01*
X110696062Y-104054074D01*
X110670614Y-104066765D01*
X110647143Y-104084707D01*
X110640974Y-104090604D01*
X110621287Y-104113556D01*
X110606976Y-104137861D01*
X110597841Y-104163991D01*
X110593683Y-104192421D01*
X110593366Y-104203500D01*
X110137930Y-104203500D01*
X110146418Y-104189874D01*
X110209939Y-104098258D01*
X110257383Y-104036506D01*
X112396319Y-104036506D01*
X112397052Y-104056760D01*
X112398615Y-104074881D01*
X112401008Y-104089325D01*
X112401692Y-104092022D01*
X112414546Y-104128344D01*
X112432046Y-104162033D01*
X112453819Y-104192625D01*
X112479492Y-104219655D01*
X112508692Y-104242660D01*
X112535419Y-104258405D01*
X112561467Y-104270306D01*
X112586249Y-104278553D01*
X112611507Y-104283523D01*
X112638985Y-104285598D01*
X112660289Y-104285534D01*
X112678502Y-104284797D01*
X112692902Y-104283580D01*
X112705316Y-104281638D01*
X112717571Y-104278725D01*
X112723650Y-104276993D01*
X112756403Y-104264805D01*
X112787648Y-104248332D01*
X112816260Y-104228302D01*
X112841112Y-104205443D01*
X112850004Y-104195361D01*
X112872291Y-104164257D01*
X112889418Y-104131651D01*
X112901518Y-104097992D01*
X112908730Y-104063724D01*
X112911188Y-104029297D01*
X112909029Y-103995157D01*
X112902388Y-103961752D01*
X112891402Y-103929528D01*
X112876206Y-103898932D01*
X112856937Y-103870413D01*
X112833731Y-103844417D01*
X112806723Y-103821392D01*
X112776049Y-103801784D01*
X112741846Y-103786041D01*
X112723650Y-103779815D01*
X112713439Y-103776843D01*
X112704567Y-103774745D01*
X112695663Y-103773373D01*
X112685354Y-103772576D01*
X112672269Y-103772204D01*
X112655035Y-103772106D01*
X112653234Y-103772105D01*
X112635553Y-103772186D01*
X112622146Y-103772528D01*
X112611641Y-103773282D01*
X112602667Y-103774596D01*
X112593854Y-103776622D01*
X112583832Y-103779508D01*
X112582901Y-103779791D01*
X112550660Y-103791431D01*
X112522154Y-103805821D01*
X112495773Y-103823890D01*
X112473557Y-103843086D01*
X112450578Y-103868341D01*
X112430556Y-103897628D01*
X112414153Y-103929825D01*
X112402033Y-103963805D01*
X112401692Y-103965022D01*
X112399103Y-103978377D01*
X112397345Y-103995771D01*
X112396417Y-104015662D01*
X112396319Y-104036506D01*
X110257383Y-104036506D01*
X110278153Y-104009474D01*
X110345588Y-103929744D01*
X110360858Y-103912930D01*
X110379313Y-103893319D01*
X110400129Y-103871730D01*
X110422479Y-103848988D01*
X110445541Y-103825913D01*
X110468488Y-103803327D01*
X110490497Y-103782053D01*
X110510742Y-103762913D01*
X110528400Y-103746728D01*
X110535658Y-103740299D01*
X110623474Y-103667196D01*
X110713477Y-103599274D01*
X110805772Y-103536471D01*
X110900462Y-103478721D01*
X110997652Y-103425960D01*
X111097446Y-103378125D01*
X111184267Y-103341342D01*
X111288389Y-103302815D01*
X111394170Y-103269626D01*
X111501380Y-103241798D01*
X111609788Y-103219349D01*
X111719166Y-103202301D01*
X111829281Y-103190674D01*
X111939904Y-103184489D01*
X112050805Y-103183765D01*
X112161753Y-103188524D01*
X112161753Y-103188524D01*
G37*
X112161753Y-103188524D02*
X112272518Y-103198785D01*
X112382870Y-103214569D01*
X112457089Y-103228373D01*
X112565080Y-103253200D01*
X112671186Y-103283273D01*
X112775246Y-103318463D01*
X112877098Y-103358641D01*
X112976581Y-103403679D01*
X113073535Y-103453447D01*
X113167798Y-103507818D01*
X113259209Y-103566662D01*
X113347607Y-103629850D01*
X113432831Y-103697255D01*
X113514719Y-103768746D01*
X113593111Y-103844195D01*
X113667845Y-103923474D01*
X113738761Y-104006454D01*
X113805697Y-104093005D01*
X113868493Y-104183000D01*
X113926986Y-104276309D01*
X113981017Y-104372804D01*
X114030423Y-104472356D01*
X114040214Y-104493678D01*
X114080485Y-104588820D01*
X114116690Y-104687197D01*
X114148529Y-104787841D01*
X114175701Y-104889783D01*
X114197904Y-104992053D01*
X114202417Y-105016300D01*
X114205946Y-105036652D01*
X114209465Y-105058337D01*
X114212881Y-105080633D01*
X114216099Y-105102819D01*
X114219025Y-105124174D01*
X114221566Y-105143975D01*
X114223627Y-105161503D01*
X114225115Y-105176035D01*
X114225935Y-105186851D01*
X114225994Y-105193228D01*
X114225650Y-105194602D01*
X114222863Y-105193767D01*
X114217268Y-105189966D01*
X114211542Y-105185275D01*
X114186095Y-105166626D01*
X114155962Y-105151054D01*
X114121204Y-105138579D01*
X114081879Y-105129223D01*
X114038048Y-105123004D01*
X114026245Y-105121930D01*
X113985901Y-105120336D01*
X113948310Y-105122560D01*
X113911899Y-105128792D01*
X113875098Y-105139224D01*
X113870344Y-105140849D01*
X113851235Y-105148119D01*
X113830283Y-105157119D01*
X113809311Y-105166991D01*
X113790145Y-105176879D01*
X113775059Y-105185638D01*
X113768616Y-105189961D01*
X113758492Y-105197062D01*
X113745521Y-105206333D01*
X113730536Y-105217164D01*
X113714370Y-105228946D01*
X113697858Y-105241069D01*
X113681833Y-105252925D01*
X113667128Y-105263904D01*
X113654577Y-105273396D01*
X113646667Y-105279494D01*
X113626923Y-105294923D01*
X113623257Y-105282611D01*
X113619446Y-105268044D01*
X113615373Y-105249445D01*
X113611343Y-105228401D01*
X113607658Y-105206496D01*
X113604622Y-105185316D01*
X113604583Y-105185010D01*
X113602785Y-105172031D01*
X113601008Y-105161012D01*
X113599474Y-105153229D01*
X113598516Y-105150094D01*
X113597594Y-105149097D01*
X113595916Y-105148411D01*
X113593013Y-105148095D01*
X113588417Y-105148207D01*
X113581659Y-105148806D01*
X113572271Y-105149951D01*
X113559785Y-105151700D01*
X113543732Y-105154112D01*
X113523644Y-105157246D01*
X113499051Y-105161159D01*
X113469487Y-105165911D01*
X113460389Y-105167378D01*
X113431412Y-105172081D01*
X113407515Y-105176041D01*
X113388199Y-105179368D01*
X113372965Y-105182176D01*
X113361314Y-105184574D01*
X113352747Y-105186675D01*
X113346765Y-105188590D01*
X113342868Y-105190430D01*
X113340558Y-105192307D01*
X113339335Y-105194332D01*
X113339304Y-105194413D01*
X113339300Y-105198692D01*
X113340499Y-105207108D01*
X113342682Y-105218335D01*
X113344856Y-105227899D01*
X113353272Y-105265974D01*
X113361284Y-105308369D01*
X113368682Y-105353763D01*
X113375260Y-105400836D01*
X113380808Y-105448265D01*
X113382904Y-105469266D01*
X113384053Y-105485017D01*
X113385051Y-105506038D01*
X113385896Y-105531960D01*
X113386585Y-105562411D01*
X113387116Y-105597020D01*
X113387485Y-105635415D01*
X113387692Y-105677226D01*
X113387732Y-105722082D01*
X113387603Y-105769611D01*
X113387303Y-105819442D01*
X113386830Y-105871204D01*
X113386180Y-105924526D01*
X113386082Y-105931601D01*
X113385487Y-105976828D01*
X113385049Y-106016751D01*
X113384768Y-106051324D01*
X113384645Y-106080501D01*
X113384680Y-106104237D01*
X113384872Y-106122488D01*
X113385221Y-106135207D01*
X113385728Y-106142349D01*
X113385998Y-106143707D01*
X113390811Y-106150915D01*
X113396367Y-106154626D01*
X113400358Y-106155136D01*
X113409227Y-106155660D01*
X113422207Y-106156186D01*
X113438530Y-106156700D01*
X113457431Y-106157189D01*
X113478142Y-106157641D01*
X113499896Y-106158043D01*
X113521926Y-106158382D01*
X113543467Y-106158646D01*
X113563750Y-106158820D01*
X113582009Y-106158894D01*
X113597477Y-106158853D01*
X113609387Y-106158685D01*
X113616973Y-106158378D01*
X113617629Y-106158325D01*
X113619422Y-106158149D01*
X113621029Y-106157764D01*
X113622460Y-106156874D01*
X113623729Y-106155183D01*
X113624846Y-106152395D01*
X113625823Y-106148214D01*
X113626671Y-106142343D01*
X113627403Y-106134486D01*
X113628029Y-106124347D01*
X113628561Y-106111630D01*
X113629012Y-106096039D01*
X113629392Y-106077277D01*
X113629713Y-106055049D01*
X113629987Y-106029059D01*
X113630225Y-105999009D01*
X113630440Y-105964604D01*
X113630641Y-105925548D01*
X113630842Y-105881545D01*
X113631054Y-105832298D01*
X113631134Y-105813578D01*
X113631332Y-105762393D01*
X113631486Y-105716537D01*
X113631624Y-105675697D01*
X113631774Y-105639555D01*
X113631965Y-105607799D01*
X113632225Y-105580114D01*
X113632582Y-105556184D01*
X113633064Y-105535694D01*
X113633700Y-105518331D01*
X113634518Y-105503780D01*
X113635546Y-105491725D01*
X113636812Y-105481852D01*
X113638344Y-105473846D01*
X113640172Y-105467393D01*
X113642323Y-105462178D01*
X113644824Y-105457885D01*
X113647706Y-105454201D01*
X113650995Y-105450811D01*
X113654721Y-105447399D01*
X113658910Y-105443652D01*
X113663592Y-105439254D01*
X113664840Y-105438019D01*
X113682864Y-105421813D01*
X113705008Y-105404844D01*
X113729969Y-105387907D01*
X113756443Y-105371795D01*
X113783124Y-105357304D01*
X113808709Y-105345228D01*
X113831511Y-105336487D01*
X113841384Y-105333505D01*
X113850357Y-105331535D01*
X113860033Y-105330396D01*
X113872016Y-105329905D01*
X113887908Y-105329878D01*
X113889367Y-105329890D01*
X113920732Y-105331437D01*
X113947938Y-105335658D01*
X113971928Y-105342818D01*
X113993647Y-105353182D01*
X114009392Y-105363492D01*
X114025227Y-105378499D01*
X114038580Y-105398465D01*
X114049470Y-105423430D01*
X114057915Y-105453434D01*
X114061869Y-105474201D01*
X114063074Y-105484753D01*
X114064163Y-105500479D01*
X114065133Y-105520911D01*
X114065980Y-105545578D01*
X114066701Y-105574011D01*
X114067292Y-105605742D01*
X114067750Y-105640302D01*
X114068071Y-105677220D01*
X114068250Y-105716028D01*
X114068286Y-105756257D01*
X114068173Y-105797438D01*
X114067909Y-105839101D01*
X114067490Y-105880776D01*
X114066911Y-105921996D01*
X114066170Y-105962291D01*
X114065778Y-105980190D01*
X114065007Y-106014160D01*
X114064386Y-106042946D01*
X114063920Y-106067004D01*
X114063609Y-106086793D01*
X114063458Y-106102771D01*
X114063468Y-106115395D01*
X114063642Y-106125124D01*
X114063982Y-106132414D01*
X114064492Y-106137724D01*
X114065172Y-106141512D01*
X114066026Y-106144235D01*
X114066678Y-106145654D01*
X114070821Y-106152110D01*
X114075973Y-106155832D01*
X114083717Y-106157522D01*
X114094209Y-106157889D01*
X114102184Y-106158297D01*
X114107203Y-106159340D01*
X114108089Y-106160124D01*
X114106990Y-106165010D01*
X114103877Y-106174379D01*
X114099026Y-106187558D01*
X114092715Y-106203870D01*
X114085219Y-106222642D01*
X114076816Y-106243197D01*
X114067782Y-106264862D01*
X114058394Y-106286961D01*
X114048929Y-106308820D01*
X114039662Y-106329763D01*
X114030872Y-106349115D01*
X114028751Y-106353690D01*
X113979683Y-106452381D01*
X113925625Y-106548591D01*
X113866757Y-106642097D01*
X113803263Y-106732675D01*
X113735323Y-106820104D01*
X113663121Y-106904161D01*
X113586838Y-106984622D01*
X113506656Y-107061265D01*
X113422758Y-107133866D01*
X113336211Y-107201545D01*
X113245316Y-107265573D01*
X113151611Y-107324791D01*
X113055309Y-107379131D01*
X112956621Y-107428522D01*
X112855758Y-107472897D01*
X112752932Y-107512185D01*
X112648354Y-107546317D01*
X112542236Y-107575225D01*
X112434789Y-107598839D01*
X112326225Y-107617090D01*
X112216754Y-107629908D01*
X112106588Y-107637225D01*
X111999889Y-107639005D01*
X111979487Y-107638819D01*
X111959884Y-107638587D01*
X111942139Y-107638328D01*
X111927309Y-107638058D01*
X111916454Y-107637792D01*
X111912400Y-107637646D01*
X111800289Y-107629812D01*
X111688919Y-107616401D01*
X111578457Y-107597453D01*
X111469069Y-107573008D01*
X111360919Y-107543102D01*
X111254175Y-107507777D01*
X111149000Y-107467070D01*
X111103834Y-107447715D01*
X111082780Y-107438107D01*
X111058001Y-107426273D01*
X111030659Y-107412812D01*
X111001919Y-107398318D01*
X110972944Y-107383388D01*
X110944896Y-107368619D01*
X110918940Y-107354606D01*
X110896238Y-107341947D01*
X110886522Y-107336340D01*
X110849627Y-107314037D01*
X110810269Y-107288975D01*
X110769562Y-107261932D01*
X110728617Y-107233686D01*
X110688547Y-107205016D01*
X110650464Y-107176699D01*
X110615481Y-107149513D01*
X110591600Y-107130045D01*
X110555143Y-107098817D01*
X110547570Y-107092044D01*
X111496855Y-107092044D01*
X111499221Y-107128583D01*
X111506677Y-107162716D01*
X111519294Y-107194613D01*
X111537141Y-107224445D01*
X111560286Y-107252383D01*
X111563079Y-107255267D01*
X111590402Y-107279214D01*
X111620297Y-107298279D01*
X111652298Y-107312329D01*
X111685938Y-107321235D01*
X111720753Y-107324865D01*
X111756277Y-107323087D01*
X111784877Y-107317688D01*
X111818098Y-107306493D01*
X111848995Y-107290436D01*
X111877091Y-107269985D01*
X111901913Y-107245612D01*
X111922985Y-107217787D01*
X111939831Y-107186979D01*
X111951977Y-107153659D01*
X111952466Y-107151884D01*
X111956529Y-107131165D01*
X111958649Y-107107428D01*
X111958827Y-107082653D01*
X111957065Y-107058820D01*
X111953365Y-107037907D01*
X111952375Y-107034189D01*
X111939948Y-107000064D01*
X111923324Y-106969186D01*
X111902969Y-106941759D01*
X111879347Y-106917990D01*
X111852921Y-106898084D01*
X111824156Y-106882248D01*
X111793518Y-106870688D01*
X111761469Y-106863609D01*
X111728475Y-106861218D01*
X111695001Y-106863719D01*
X111661509Y-106871321D01*
X111628465Y-106884227D01*
X111621742Y-106887571D01*
X111590912Y-106906543D01*
X111563986Y-106929403D01*
X111541221Y-106955728D01*
X111522874Y-106985097D01*
X111509204Y-107017089D01*
X111500467Y-107051281D01*
X111496921Y-107087254D01*
X111496855Y-107092044D01*
X110547570Y-107092044D01*
X110517598Y-107065239D01*
X110479892Y-107030208D01*
X110442951Y-106994619D01*
X110407700Y-106959367D01*
X110375066Y-106925348D01*
X110345976Y-106893456D01*
X110340776Y-106887540D01*
X110269033Y-106801607D01*
X110210167Y-106724156D01*
X112910675Y-106724156D01*
X112914591Y-106759262D01*
X112917265Y-106771825D01*
X112921746Y-106785961D01*
X112928760Y-106802831D01*
X112937438Y-106820665D01*
X112946906Y-106837698D01*
X112956292Y-106852161D01*
X112958112Y-106854628D01*
X112978944Y-106877821D01*
X113003971Y-106898494D01*
X113032045Y-106915953D01*
X113062019Y-106929502D01*
X113092746Y-106938445D01*
X113098074Y-106939478D01*
X113110761Y-106940829D01*
X113127184Y-106941283D01*
X113145521Y-106940918D01*
X113163950Y-106939812D01*
X113180647Y-106938041D01*
X113193789Y-106935683D01*
X113195100Y-106935349D01*
X113212242Y-106929591D01*
X113231499Y-106921227D01*
X113250868Y-106911270D01*
X113268346Y-106900736D01*
X113279668Y-106892536D01*
X113305201Y-106868430D01*
X113326261Y-106841514D01*
X113342805Y-106812343D01*
X113354791Y-106781473D01*
X113362175Y-106749458D01*
X113364914Y-106716854D01*
X113362965Y-106684215D01*
X113356283Y-106652096D01*
X113344826Y-106621053D01*
X113328551Y-106591640D01*
X113307414Y-106564413D01*
X113305436Y-106562264D01*
X113278540Y-106537008D01*
X113249868Y-106517086D01*
X113219233Y-106502414D01*
X113186446Y-106492911D01*
X113151319Y-106488491D01*
X113137245Y-106488128D01*
X113102000Y-106490757D01*
X113068740Y-106498371D01*
X113037778Y-106510564D01*
X113009430Y-106526929D01*
X112984011Y-106547060D01*
X112961838Y-106570551D01*
X112943224Y-106596994D01*
X112928485Y-106625982D01*
X112917937Y-106657110D01*
X112911895Y-106689970D01*
X112910675Y-106724156D01*
X110210167Y-106724156D01*
X110202599Y-106714200D01*
X110141250Y-106624969D01*
X110084764Y-106533562D01*
X110032917Y-106439631D01*
X109985487Y-106342822D01*
X109964634Y-106296178D01*
X109957143Y-106278624D01*
X109949350Y-106259858D01*
X109941534Y-106240606D01*
X109933976Y-106221593D01*
X109926954Y-106203544D01*
X109920748Y-106187185D01*
X109915637Y-106173241D01*
X109911901Y-106162438D01*
X109909820Y-106155502D01*
X109909561Y-106153187D01*
X109912646Y-106152968D01*
X109920412Y-106153141D01*
X109931911Y-106153665D01*
X109946195Y-106154500D01*
X109958454Y-106155324D01*
X109976209Y-106156529D01*
X109989292Y-106157236D01*
X109998653Y-106157421D01*
X110005243Y-106157065D01*
X110010013Y-106156146D01*
X110013915Y-106154642D01*
X110015111Y-106154046D01*
X110017485Y-106152868D01*
X110019615Y-106151720D01*
X110021508Y-106150308D01*
X110023175Y-106148334D01*
X110024623Y-106145503D01*
X110025863Y-106141517D01*
X110026904Y-106136083D01*
X110027753Y-106128901D01*
X110028421Y-106119678D01*
X110028916Y-106108116D01*
X110029248Y-106093920D01*
X110029426Y-106076793D01*
X110029458Y-106056438D01*
X110029354Y-106032560D01*
X110029123Y-106004863D01*
X110028773Y-105973050D01*
X110028315Y-105936826D01*
X110027756Y-105895893D01*
X110027107Y-105849956D01*
X110026376Y-105798718D01*
X110026252Y-105790020D01*
X110025370Y-105727812D01*
X110024572Y-105670999D01*
X110023857Y-105619334D01*
X110023224Y-105572567D01*
X110022672Y-105530450D01*
X110022200Y-105492735D01*
X110021806Y-105459175D01*
X110021490Y-105429519D01*
X110021251Y-105403520D01*
X110021088Y-105380930D01*
X110020999Y-105361500D01*
X110020983Y-105344981D01*
X110021039Y-105331126D01*
X110021167Y-105319687D01*
X110021365Y-105310414D01*
X110021632Y-105303059D01*
X110021967Y-105297374D01*
X110022369Y-105293111D01*
X110022837Y-105290022D01*
X110023369Y-105287857D01*
X110023965Y-105286369D01*
X110024068Y-105286174D01*
X110027732Y-105279471D01*
X110034203Y-105286174D01*
X110036670Y-105290004D01*
X110041087Y-105298413D01*
X110047469Y-105311441D01*
X110055835Y-105329125D01*
X110066200Y-105351502D01*
X110078583Y-105378612D01*
X110092999Y-105410491D01*
X110109466Y-105447178D01*
X110128000Y-105488710D01*
X110148619Y-105535125D01*
X110171339Y-105586461D01*
X110196177Y-105642756D01*
X110223151Y-105704048D01*
X110252276Y-105770374D01*
X110283570Y-105841773D01*
X110317050Y-105918282D01*
X110352733Y-105999940D01*
X110355772Y-106006900D01*
X110367942Y-106034636D01*
X110379578Y-106060899D01*
X110390464Y-106085219D01*
X110400384Y-106107125D01*
X110409123Y-106126146D01*
X110416463Y-106141811D01*
X110422190Y-106153649D01*
X110426086Y-106161191D01*
X110427831Y-106163899D01*
X110435244Y-106168006D01*
X110446772Y-106171239D01*
X110462735Y-106173635D01*
X110483450Y-106175235D01*
X110509235Y-106176075D01*
X110529511Y-106176233D01*
X110550030Y-106176161D01*
X110565787Y-106175903D01*
X110577665Y-106175399D01*
X110586546Y-106174585D01*
X110593312Y-106173400D01*
X110598844Y-106171783D01*
X110600208Y-106171276D01*
X110605900Y-106168897D01*
X110610113Y-106166217D01*
X110613636Y-106162172D01*
X110617259Y-106155697D01*
X110621772Y-106145729D01*
X110625328Y-106137410D01*
X110635758Y-106112649D01*
X110646599Y-106086536D01*
X110657460Y-106060045D01*
X110667950Y-106034147D01*
X110677675Y-106009814D01*
X110686245Y-105988018D01*
X110693268Y-105969731D01*
X110697179Y-105959192D01*
X110701601Y-105947444D01*
X110708038Y-105930980D01*
X110716290Y-105910280D01*
X110726158Y-105885821D01*
X110737443Y-105858080D01*
X110749946Y-105827536D01*
X110763469Y-105794667D01*
X110777812Y-105759949D01*
X110792776Y-105723861D01*
X110808163Y-105686881D01*
X110823773Y-105649487D01*
X110839408Y-105612156D01*
X110854868Y-105575366D01*
X110869954Y-105539595D01*
X110884468Y-105505320D01*
X110898210Y-105473020D01*
X110910982Y-105443173D01*
X110922584Y-105416255D01*
X110932818Y-105392745D01*
X110937642Y-105381778D01*
X110947992Y-105358438D01*
X110956387Y-105339776D01*
X110963113Y-105325283D01*
X110968450Y-105314456D01*
X110972682Y-105306786D01*
X110976091Y-105301769D01*
X110978961Y-105298899D01*
X110981575Y-105297668D01*
X110984214Y-105297572D01*
X110984667Y-105297630D01*
X110990945Y-105298522D01*
X110990485Y-105426933D01*
X110990274Y-105458739D01*
X110989868Y-105494714D01*
X110989295Y-105533388D01*
X110988581Y-105573290D01*
X110987753Y-105612950D01*
X110986837Y-105650897D01*
X110985861Y-105685660D01*
X110985613Y-105693633D01*
X110984594Y-105726658D01*
X110983505Y-105763898D01*
X110982385Y-105803924D01*
X110981271Y-105845309D01*
X110980202Y-105886623D01*
X110979216Y-105926439D01*
X110978350Y-105963329D01*
X110977977Y-105980089D01*
X110977237Y-106014492D01*
X110976654Y-106043709D01*
X110976263Y-106068197D01*
X110976098Y-106088413D01*
X110976191Y-106104813D01*
X110976576Y-106117854D01*
X110977288Y-106127994D01*
X110978359Y-106135689D01*
X110979823Y-106141396D01*
X110981715Y-106145573D01*
X110984067Y-106148675D01*
X110986913Y-106151159D01*
X110990288Y-106153484D01*
X110990764Y-106153797D01*
X110993676Y-106155429D01*
X110997188Y-106156551D01*
X111002133Y-106157179D01*
X111009343Y-106157329D01*
X111019651Y-106157018D01*
X111033889Y-106156261D01*
X111052889Y-106155074D01*
X111053795Y-106155015D01*
X111093837Y-106153134D01*
X111131423Y-106152925D01*
X111160278Y-106153872D01*
X111178574Y-106154697D01*
X111196715Y-106155414D01*
X111213215Y-106155970D01*
X111226586Y-106156314D01*
X111233199Y-106156400D01*
X111244496Y-106156297D01*
X111251711Y-106155609D01*
X111256405Y-106153913D01*
X111260137Y-106150787D01*
X111262126Y-106148559D01*
X111264857Y-106145082D01*
X111266739Y-106141399D01*
X111267929Y-106136434D01*
X111268582Y-106129114D01*
X111268856Y-106118364D01*
X111268907Y-106103112D01*
X111268906Y-106101992D01*
X111268771Y-106084588D01*
X111268394Y-106061973D01*
X111267788Y-106034575D01*
X111266966Y-106002824D01*
X111265941Y-105967146D01*
X111264724Y-105927970D01*
X111263330Y-105885724D01*
X111261770Y-105840837D01*
X111260057Y-105793735D01*
X111258838Y-105761366D01*
X111256421Y-105693166D01*
X111254509Y-105627912D01*
X111254339Y-105620255D01*
X111315146Y-105620255D01*
X111315316Y-105675967D01*
X111320779Y-105730749D01*
X111331410Y-105784210D01*
X111347083Y-105835958D01*
X111367670Y-105885604D01*
X111393046Y-105932756D01*
X111423085Y-105977023D01*
X111435489Y-105992754D01*
X111472710Y-106034171D01*
X111512173Y-106070422D01*
X111553963Y-106101557D01*
X111598164Y-106127624D01*
X111644860Y-106148674D01*
X111694134Y-106164756D01*
X111746073Y-106175920D01*
X111747378Y-106176132D01*
X111764408Y-106178089D01*
X111785677Y-106179317D01*
X111809831Y-106179845D01*
X111835517Y-106179702D01*
X111861379Y-106178916D01*
X111886065Y-106177517D01*
X111908219Y-106175532D01*
X111926487Y-106172991D01*
X111930377Y-106172254D01*
X111963612Y-106164411D01*
X111994610Y-106154626D01*
X112025627Y-106142114D01*
X112049278Y-106130958D01*
X112078117Y-106115579D01*
X112104350Y-106099130D01*
X112129363Y-106080599D01*
X112154545Y-106058969D01*
X112176563Y-106037944D01*
X112199903Y-106013956D01*
X112219706Y-105991609D01*
X112237145Y-105969437D01*
X112253398Y-105945979D01*
X112264240Y-105928761D01*
X112278803Y-105902941D01*
X112292448Y-105875110D01*
X112304516Y-105846821D01*
X112314350Y-105819628D01*
X112321290Y-105795084D01*
X112321737Y-105793116D01*
X112324265Y-105783937D01*
X112326774Y-105778292D01*
X112328825Y-105776741D01*
X112329978Y-105779848D01*
X112330089Y-105782450D01*
X112331121Y-105788839D01*
X112333962Y-105799341D01*
X112338226Y-105812868D01*
X112343531Y-105828332D01*
X112349491Y-105844645D01*
X112355724Y-105860718D01*
X112361844Y-105875463D01*
X112366734Y-105886271D01*
X112388046Y-105926153D01*
X112413123Y-105964169D01*
X112442538Y-106001091D01*
X112476865Y-106037691D01*
X112485059Y-106045706D01*
X112525008Y-106080527D01*
X112567302Y-106110214D01*
X112611954Y-106134773D01*
X112658978Y-106154212D01*
X112708388Y-106168536D01*
X112760127Y-106177744D01*
X112779064Y-106179393D01*
X112801858Y-106180212D01*
X112827033Y-106180251D01*
X112853118Y-106179555D01*
X112878638Y-106178174D01*
X112902119Y-106176155D01*
X112922089Y-106173546D01*
X112929245Y-106172252D01*
X112978032Y-106159915D01*
X113024043Y-106143076D01*
X113067659Y-106121519D01*
X113109258Y-106095031D01*
X113149221Y-106063397D01*
X113187928Y-106026403D01*
X113188273Y-106026044D01*
X113225095Y-105983915D01*
X113256741Y-105939615D01*
X113283246Y-105893057D01*
X113304648Y-105844156D01*
X113320980Y-105792827D01*
X113332280Y-105738984D01*
X113338582Y-105682541D01*
X113339546Y-105664000D01*
X113339170Y-105606489D01*
X113333566Y-105551104D01*
X113322731Y-105497827D01*
X113306659Y-105446641D01*
X113285347Y-105397529D01*
X113258790Y-105350475D01*
X113250459Y-105337733D01*
X113217836Y-105293898D01*
X113181885Y-105254109D01*
X113142927Y-105218631D01*
X113101287Y-105187729D01*
X113057289Y-105161670D01*
X113011255Y-105140720D01*
X113009868Y-105140181D01*
X112964240Y-105125412D01*
X112916104Y-105115147D01*
X112866351Y-105109386D01*
X112815873Y-105108129D01*
X112765561Y-105111374D01*
X112716307Y-105119122D01*
X112669002Y-105131371D01*
X112643012Y-105140460D01*
X112597546Y-105160991D01*
X112554143Y-105186483D01*
X112513184Y-105216509D01*
X112475049Y-105250641D01*
X112440118Y-105288453D01*
X112408771Y-105329519D01*
X112381388Y-105373410D01*
X112358349Y-105419701D01*
X112340035Y-105467963D01*
X112334251Y-105487242D01*
X112331253Y-105497039D01*
X112328659Y-105503727D01*
X112326872Y-105506336D01*
X112326451Y-105505955D01*
X112325071Y-105501621D01*
X112322451Y-105493207D01*
X112319001Y-105482032D01*
X112316056Y-105472442D01*
X112298572Y-105424563D01*
X112276188Y-105378439D01*
X112249318Y-105334522D01*
X112218379Y-105293264D01*
X112183785Y-105255119D01*
X112145952Y-105220537D01*
X112105297Y-105189973D01*
X112062233Y-105163877D01*
X112017178Y-105142702D01*
X112010801Y-105140181D01*
X111965438Y-105125496D01*
X111917525Y-105115259D01*
X111867973Y-105109469D01*
X111817696Y-105108127D01*
X111767606Y-105111233D01*
X111718618Y-105118788D01*
X111671643Y-105130791D01*
X111644825Y-105140120D01*
X111598226Y-105161118D01*
X111553831Y-105187178D01*
X111511955Y-105218043D01*
X111472910Y-105253457D01*
X111437010Y-105293162D01*
X111404756Y-105336622D01*
X111378173Y-105380366D01*
X111356470Y-105425291D01*
X111339467Y-105471977D01*
X111326979Y-105521000D01*
X111318826Y-105572937D01*
X111315146Y-105620255D01*
X111254339Y-105620255D01*
X111253103Y-105564712D01*
X111252203Y-105502673D01*
X111251809Y-105440901D01*
X111251922Y-105378504D01*
X111252540Y-105314587D01*
X111253665Y-105248258D01*
X111255296Y-105178624D01*
X111257434Y-105104791D01*
X111258942Y-105058633D01*
X111259992Y-105025979D01*
X111261050Y-104989913D01*
X111262081Y-104951933D01*
X111263045Y-104913541D01*
X111263905Y-104876235D01*
X111264624Y-104841517D01*
X111265164Y-104810886D01*
X111265180Y-104809896D01*
X111267016Y-104690981D01*
X111260184Y-104684150D01*
X111258424Y-104682474D01*
X111256449Y-104681073D01*
X111253727Y-104679894D01*
X111249724Y-104678887D01*
X111243908Y-104677998D01*
X111235746Y-104677176D01*
X111224704Y-104676369D01*
X111210251Y-104675525D01*
X111191853Y-104674592D01*
X111168977Y-104673518D01*
X111141091Y-104672252D01*
X111135529Y-104672001D01*
X111101091Y-104670525D01*
X111072071Y-104669447D01*
X111048509Y-104668770D01*
X111030445Y-104668493D01*
X111017918Y-104668617D01*
X111010969Y-104669145D01*
X111009969Y-104669385D01*
X111001999Y-104674813D01*
X110993489Y-104685588D01*
X110984600Y-104701459D01*
X110975491Y-104722172D01*
X110973979Y-104726036D01*
X110942353Y-104807863D01*
X110910307Y-104890288D01*
X110878057Y-104972764D01*
X110845823Y-105054744D01*
X110813822Y-105135679D01*
X110782273Y-105215023D01*
X110751393Y-105292228D01*
X110721402Y-105366745D01*
X110692518Y-105438029D01*
X110664957Y-105505531D01*
X110638940Y-105568703D01*
X110619862Y-105614611D01*
X110604406Y-105651533D01*
X110590898Y-105683560D01*
X110579180Y-105711033D01*
X110569094Y-105734294D01*
X110560483Y-105753685D01*
X110553189Y-105769547D01*
X110547054Y-105782222D01*
X110541921Y-105792053D01*
X110537632Y-105799380D01*
X110534030Y-105804546D01*
X110530956Y-105807892D01*
X110530527Y-105808261D01*
X110528936Y-105809447D01*
X110527354Y-105810083D01*
X110525637Y-105809875D01*
X110523645Y-105808530D01*
X110521235Y-105805753D01*
X110518265Y-105801252D01*
X110514593Y-105794733D01*
X110510078Y-105785901D01*
X110504576Y-105774464D01*
X110497946Y-105760128D01*
X110490046Y-105742598D01*
X110480735Y-105721582D01*
X110469868Y-105696785D01*
X110457306Y-105667914D01*
X110442906Y-105634676D01*
X110426525Y-105596776D01*
X110412291Y-105563811D01*
X110397451Y-105529570D01*
X110381411Y-105492809D01*
X110364313Y-105453843D01*
X110346299Y-105412984D01*
X110327513Y-105370547D01*
X110308097Y-105326847D01*
X110288193Y-105282196D01*
X110267944Y-105236910D01*
X110247492Y-105191302D01*
X110226980Y-105145686D01*
X110206550Y-105100377D01*
X110186344Y-105055688D01*
X110166506Y-105011934D01*
X110147177Y-104969428D01*
X110128501Y-104928484D01*
X110110619Y-104889417D01*
X110093674Y-104852541D01*
X110077808Y-104818170D01*
X110063165Y-104786617D01*
X110049886Y-104758197D01*
X110038114Y-104733223D01*
X110027992Y-104712011D01*
X110019662Y-104694874D01*
X110013266Y-104682125D01*
X110008947Y-104674080D01*
X110007698Y-104672047D01*
X110000027Y-104660700D01*
X109955736Y-104661348D01*
X109940646Y-104661520D01*
X109927764Y-104661573D01*
X109918043Y-104661512D01*
X109912437Y-104661339D01*
X109911445Y-104661183D01*
X109912418Y-104657879D01*
X109915093Y-104650299D01*
X109919102Y-104639416D01*
X109924077Y-104626207D01*
X109929651Y-104611645D01*
X109935456Y-104596706D01*
X109941125Y-104582363D01*
X109941964Y-104580266D01*
X109985361Y-104479516D01*
X110033992Y-104380721D01*
X110087723Y-104284101D01*
X110137930Y-104203500D01*
X110593366Y-104203500D01*
X110595960Y-104233754D01*
X110603743Y-104261786D01*
X110616714Y-104287594D01*
X110634872Y-104311175D01*
X110643458Y-104319863D01*
X110667470Y-104339055D01*
X110693321Y-104353039D01*
X110720672Y-104361717D01*
X110749182Y-104364987D01*
X110778511Y-104362749D01*
X110784922Y-104361532D01*
X110813028Y-104352853D01*
X110838882Y-104339380D01*
X110861890Y-104321674D01*
X110881460Y-104300296D01*
X110896998Y-104275804D01*
X110907909Y-104248760D01*
X110909170Y-104244294D01*
X110911897Y-104228816D01*
X110913083Y-104210229D01*
X110912733Y-104190854D01*
X110910849Y-104173010D01*
X110909020Y-104164136D01*
X110899486Y-104137924D01*
X110885324Y-104113387D01*
X110867315Y-104091522D01*
X110846241Y-104073325D01*
X110829818Y-104063163D01*
X110805822Y-104052497D01*
X110782350Y-104046308D01*
X110757314Y-104044072D01*
X110753878Y-104044044D01*
X110723734Y-104046535D01*
X110696062Y-104054074D01*
X110670614Y-104066765D01*
X110647143Y-104084707D01*
X110640974Y-104090604D01*
X110621287Y-104113556D01*
X110606976Y-104137861D01*
X110597841Y-104163991D01*
X110593683Y-104192421D01*
X110593366Y-104203500D01*
X110137930Y-104203500D01*
X110146418Y-104189874D01*
X110209939Y-104098258D01*
X110257383Y-104036506D01*
X112396319Y-104036506D01*
X112397052Y-104056760D01*
X112398615Y-104074881D01*
X112401008Y-104089325D01*
X112401692Y-104092022D01*
X112414546Y-104128344D01*
X112432046Y-104162033D01*
X112453819Y-104192625D01*
X112479492Y-104219655D01*
X112508692Y-104242660D01*
X112535419Y-104258405D01*
X112561467Y-104270306D01*
X112586249Y-104278553D01*
X112611507Y-104283523D01*
X112638985Y-104285598D01*
X112660289Y-104285534D01*
X112678502Y-104284797D01*
X112692902Y-104283580D01*
X112705316Y-104281638D01*
X112717571Y-104278725D01*
X112723650Y-104276993D01*
X112756403Y-104264805D01*
X112787648Y-104248332D01*
X112816260Y-104228302D01*
X112841112Y-104205443D01*
X112850004Y-104195361D01*
X112872291Y-104164257D01*
X112889418Y-104131651D01*
X112901518Y-104097992D01*
X112908730Y-104063724D01*
X112911188Y-104029297D01*
X112909029Y-103995157D01*
X112902388Y-103961752D01*
X112891402Y-103929528D01*
X112876206Y-103898932D01*
X112856937Y-103870413D01*
X112833731Y-103844417D01*
X112806723Y-103821392D01*
X112776049Y-103801784D01*
X112741846Y-103786041D01*
X112723650Y-103779815D01*
X112713439Y-103776843D01*
X112704567Y-103774745D01*
X112695663Y-103773373D01*
X112685354Y-103772576D01*
X112672269Y-103772204D01*
X112655035Y-103772106D01*
X112653234Y-103772105D01*
X112635553Y-103772186D01*
X112622146Y-103772528D01*
X112611641Y-103773282D01*
X112602667Y-103774596D01*
X112593854Y-103776622D01*
X112583832Y-103779508D01*
X112582901Y-103779791D01*
X112550660Y-103791431D01*
X112522154Y-103805821D01*
X112495773Y-103823890D01*
X112473557Y-103843086D01*
X112450578Y-103868341D01*
X112430556Y-103897628D01*
X112414153Y-103929825D01*
X112402033Y-103963805D01*
X112401692Y-103965022D01*
X112399103Y-103978377D01*
X112397345Y-103995771D01*
X112396417Y-104015662D01*
X112396319Y-104036506D01*
X110257383Y-104036506D01*
X110278153Y-104009474D01*
X110345588Y-103929744D01*
X110360858Y-103912930D01*
X110379313Y-103893319D01*
X110400129Y-103871730D01*
X110422479Y-103848988D01*
X110445541Y-103825913D01*
X110468488Y-103803327D01*
X110490497Y-103782053D01*
X110510742Y-103762913D01*
X110528400Y-103746728D01*
X110535658Y-103740299D01*
X110623474Y-103667196D01*
X110713477Y-103599274D01*
X110805772Y-103536471D01*
X110900462Y-103478721D01*
X110997652Y-103425960D01*
X111097446Y-103378125D01*
X111184267Y-103341342D01*
X111288389Y-103302815D01*
X111394170Y-103269626D01*
X111501380Y-103241798D01*
X111609788Y-103219349D01*
X111719166Y-103202301D01*
X111829281Y-103190674D01*
X111939904Y-103184489D01*
X112050805Y-103183765D01*
X112161753Y-103188524D01*
G36*
X115015417Y-105115384D02*
X115061380Y-105121760D01*
X115071878Y-105123824D01*
X115115595Y-105135616D01*
X115158823Y-105152654D01*
X115200873Y-105174545D01*
X115241057Y-105200894D01*
X115278686Y-105231307D01*
X115306239Y-105258037D01*
X115343792Y-105301306D01*
X115376079Y-105346549D01*
X115403187Y-105393936D01*
X115425197Y-105443639D01*
X115442196Y-105495826D01*
X115454265Y-105550670D01*
X115456160Y-105562400D01*
X115460265Y-105600983D01*
X115461571Y-105642746D01*
X115460164Y-105686016D01*
X115456131Y-105729122D01*
X115449560Y-105770392D01*
X115444022Y-105795233D01*
X115429062Y-105844131D01*
X115409379Y-105891538D01*
X115385359Y-105936962D01*
X115357388Y-105979908D01*
X115325851Y-106019882D01*
X115291135Y-106056391D01*
X115253625Y-106088939D01*
X115213708Y-106117033D01*
X115176300Y-106137974D01*
X115145551Y-106152162D01*
X115116634Y-106163169D01*
X115088079Y-106171348D01*
X115058415Y-106177054D01*
X115026172Y-106180639D01*
X114991445Y-106182413D01*
X114963968Y-106182818D01*
X114940612Y-106182193D01*
X114919922Y-106180366D01*
X114900441Y-106177167D01*
X114880711Y-106172426D01*
X114864062Y-106167500D01*
X114840466Y-106159227D01*
X114818370Y-106149560D01*
X114796955Y-106137968D01*
X114775403Y-106123923D01*
X114752897Y-106106893D01*
X114728620Y-106086350D01*
X114703589Y-106063489D01*
X114688447Y-106049338D01*
X114676837Y-106038692D01*
X114668230Y-106031140D01*
X114662096Y-106026270D01*
X114657904Y-106023669D01*
X114655124Y-106022926D01*
X114653226Y-106023629D01*
X114652789Y-106024020D01*
X114651991Y-106025391D01*
X114651286Y-106028051D01*
X114650664Y-106032364D01*
X114650115Y-106038691D01*
X114649631Y-106047395D01*
X114649201Y-106058839D01*
X114648816Y-106073385D01*
X114648466Y-106091397D01*
X114648142Y-106113236D01*
X114647834Y-106139266D01*
X114647533Y-106169848D01*
X114647228Y-106205347D01*
X114646911Y-106246123D01*
X114646908Y-106246554D01*
X114646565Y-106289434D01*
X114646216Y-106326970D01*
X114645853Y-106359458D01*
X114645470Y-106387199D01*
X114645061Y-106410492D01*
X114644618Y-106429635D01*
X114644134Y-106444927D01*
X114643602Y-106456668D01*
X114643017Y-106465156D01*
X114642370Y-106470691D01*
X114641703Y-106473462D01*
X114635457Y-106481769D01*
X114629513Y-106485083D01*
X114623844Y-106486204D01*
X114614090Y-106486982D01*
X114600006Y-106487417D01*
X114581349Y-106487511D01*
X114557875Y-106487263D01*
X114529342Y-106486673D01*
X114495505Y-106485743D01*
X114482034Y-106485327D01*
X114460858Y-106484563D01*
X114444583Y-106483680D01*
X114432464Y-106482526D01*
X114423756Y-106480949D01*
X114417715Y-106478796D01*
X114413596Y-106475914D01*
X114410656Y-106472150D01*
X114409713Y-106470494D01*
X114409259Y-106468283D01*
X114408857Y-106463317D01*
X114408508Y-106455398D01*
X114408211Y-106444330D01*
X114407965Y-106429915D01*
X114407770Y-106411956D01*
X114407625Y-106390256D01*
X114407529Y-106364618D01*
X114407482Y-106334845D01*
X114407483Y-106300739D01*
X114407532Y-106262104D01*
X114407629Y-106218742D01*
X114407771Y-106170457D01*
X114407960Y-106117050D01*
X114408194Y-106058325D01*
X114408372Y-106016886D01*
X114408662Y-105947458D01*
X114408892Y-105883355D01*
X114409050Y-105824260D01*
X114409128Y-105769855D01*
X114409115Y-105719821D01*
X114409001Y-105673840D01*
X114408859Y-105647066D01*
X114654806Y-105647066D01*
X114656850Y-105690550D01*
X114663066Y-105730930D01*
X114673655Y-105769108D01*
X114688814Y-105805990D01*
X114690442Y-105809344D01*
X114711195Y-105845995D01*
X114735226Y-105878403D01*
X114762304Y-105906393D01*
X114792195Y-105929787D01*
X114824668Y-105948409D01*
X114859490Y-105962083D01*
X114896430Y-105970632D01*
X114903956Y-105971699D01*
X114924111Y-105973033D01*
X114947093Y-105972577D01*
X114970431Y-105970490D01*
X114991654Y-105966929D01*
X114996684Y-105965740D01*
X115030106Y-105954332D01*
X115062004Y-105937605D01*
X115092135Y-105915741D01*
X115120251Y-105888921D01*
X115146108Y-105857323D01*
X115148139Y-105854500D01*
X115171735Y-105816780D01*
X115190325Y-105777208D01*
X115203913Y-105736257D01*
X115212501Y-105694402D01*
X115216089Y-105652114D01*
X115214681Y-105609866D01*
X115208278Y-105568133D01*
X115196883Y-105527386D01*
X115180496Y-105488099D01*
X115159121Y-105450746D01*
X115146386Y-105432707D01*
X115119119Y-105400637D01*
X115089623Y-105373725D01*
X115057795Y-105351900D01*
X115023532Y-105335091D01*
X114988622Y-105323701D01*
X114972488Y-105320774D01*
X114952626Y-105318949D01*
X114930823Y-105318233D01*
X114908870Y-105318630D01*
X114888556Y-105320145D01*
X114871668Y-105322784D01*
X114869189Y-105323364D01*
X114835856Y-105334559D01*
X114804142Y-105350998D01*
X114774392Y-105372427D01*
X114746949Y-105398594D01*
X114722158Y-105429244D01*
X114718535Y-105434438D01*
X114696446Y-105470420D01*
X114679319Y-105506793D01*
X114666903Y-105544398D01*
X114658944Y-105584077D01*
X114655191Y-105626672D01*
X114654806Y-105647066D01*
X114408859Y-105647066D01*
X114408776Y-105631594D01*
X114408430Y-105592764D01*
X114407952Y-105557032D01*
X114407332Y-105524081D01*
X114406561Y-105493591D01*
X114405629Y-105465245D01*
X114404524Y-105438724D01*
X114403238Y-105413710D01*
X114401759Y-105389885D01*
X114400079Y-105366930D01*
X114398186Y-105344528D01*
X114396071Y-105322360D01*
X114393723Y-105300107D01*
X114391132Y-105277453D01*
X114388289Y-105254077D01*
X114385183Y-105229663D01*
X114382778Y-105211255D01*
X114375368Y-105155032D01*
X114381741Y-105149872D01*
X114390477Y-105145870D01*
X114400510Y-105144711D01*
X114410581Y-105144272D01*
X114425195Y-105143041D01*
X114443327Y-105141147D01*
X114463951Y-105138718D01*
X114486043Y-105135883D01*
X114508575Y-105132769D01*
X114530524Y-105129506D01*
X114550862Y-105126222D01*
X114558144Y-105124962D01*
X114579200Y-105121295D01*
X114595423Y-105118691D01*
X114607529Y-105117163D01*
X114616231Y-105116721D01*
X114622243Y-105117378D01*
X114626278Y-105119145D01*
X114629051Y-105122034D01*
X114631275Y-105126056D01*
X114631323Y-105126158D01*
X114634317Y-105133500D01*
X114636788Y-105142186D01*
X114638861Y-105153036D01*
X114640659Y-105166873D01*
X114642305Y-105184520D01*
X114643922Y-105206797D01*
X114644305Y-105212687D01*
X114645411Y-105229206D01*
X114646508Y-105244131D01*
X114647508Y-105256393D01*
X114648326Y-105264924D01*
X114648783Y-105268304D01*
X114650431Y-105273314D01*
X114653122Y-105275632D01*
X114657375Y-105274994D01*
X114663710Y-105271134D01*
X114672644Y-105263790D01*
X114684697Y-105252695D01*
X114690752Y-105246913D01*
X114729960Y-105211818D01*
X114768959Y-105182247D01*
X114808050Y-105158103D01*
X114847534Y-105139289D01*
X114887711Y-105125707D01*
X114928884Y-105117260D01*
X114971352Y-105113852D01*
X115015417Y-105115384D01*
X115015417Y-105115384D01*
G37*
X115015417Y-105115384D02*
X115061380Y-105121760D01*
X115071878Y-105123824D01*
X115115595Y-105135616D01*
X115158823Y-105152654D01*
X115200873Y-105174545D01*
X115241057Y-105200894D01*
X115278686Y-105231307D01*
X115306239Y-105258037D01*
X115343792Y-105301306D01*
X115376079Y-105346549D01*
X115403187Y-105393936D01*
X115425197Y-105443639D01*
X115442196Y-105495826D01*
X115454265Y-105550670D01*
X115456160Y-105562400D01*
X115460265Y-105600983D01*
X115461571Y-105642746D01*
X115460164Y-105686016D01*
X115456131Y-105729122D01*
X115449560Y-105770392D01*
X115444022Y-105795233D01*
X115429062Y-105844131D01*
X115409379Y-105891538D01*
X115385359Y-105936962D01*
X115357388Y-105979908D01*
X115325851Y-106019882D01*
X115291135Y-106056391D01*
X115253625Y-106088939D01*
X115213708Y-106117033D01*
X115176300Y-106137974D01*
X115145551Y-106152162D01*
X115116634Y-106163169D01*
X115088079Y-106171348D01*
X115058415Y-106177054D01*
X115026172Y-106180639D01*
X114991445Y-106182413D01*
X114963968Y-106182818D01*
X114940612Y-106182193D01*
X114919922Y-106180366D01*
X114900441Y-106177167D01*
X114880711Y-106172426D01*
X114864062Y-106167500D01*
X114840466Y-106159227D01*
X114818370Y-106149560D01*
X114796955Y-106137968D01*
X114775403Y-106123923D01*
X114752897Y-106106893D01*
X114728620Y-106086350D01*
X114703589Y-106063489D01*
X114688447Y-106049338D01*
X114676837Y-106038692D01*
X114668230Y-106031140D01*
X114662096Y-106026270D01*
X114657904Y-106023669D01*
X114655124Y-106022926D01*
X114653226Y-106023629D01*
X114652789Y-106024020D01*
X114651991Y-106025391D01*
X114651286Y-106028051D01*
X114650664Y-106032364D01*
X114650115Y-106038691D01*
X114649631Y-106047395D01*
X114649201Y-106058839D01*
X114648816Y-106073385D01*
X114648466Y-106091397D01*
X114648142Y-106113236D01*
X114647834Y-106139266D01*
X114647533Y-106169848D01*
X114647228Y-106205347D01*
X114646911Y-106246123D01*
X114646908Y-106246554D01*
X114646565Y-106289434D01*
X114646216Y-106326970D01*
X114645853Y-106359458D01*
X114645470Y-106387199D01*
X114645061Y-106410492D01*
X114644618Y-106429635D01*
X114644134Y-106444927D01*
X114643602Y-106456668D01*
X114643017Y-106465156D01*
X114642370Y-106470691D01*
X114641703Y-106473462D01*
X114635457Y-106481769D01*
X114629513Y-106485083D01*
X114623844Y-106486204D01*
X114614090Y-106486982D01*
X114600006Y-106487417D01*
X114581349Y-106487511D01*
X114557875Y-106487263D01*
X114529342Y-106486673D01*
X114495505Y-106485743D01*
X114482034Y-106485327D01*
X114460858Y-106484563D01*
X114444583Y-106483680D01*
X114432464Y-106482526D01*
X114423756Y-106480949D01*
X114417715Y-106478796D01*
X114413596Y-106475914D01*
X114410656Y-106472150D01*
X114409713Y-106470494D01*
X114409259Y-106468283D01*
X114408857Y-106463317D01*
X114408508Y-106455398D01*
X114408211Y-106444330D01*
X114407965Y-106429915D01*
X114407770Y-106411956D01*
X114407625Y-106390256D01*
X114407529Y-106364618D01*
X114407482Y-106334845D01*
X114407483Y-106300739D01*
X114407532Y-106262104D01*
X114407629Y-106218742D01*
X114407771Y-106170457D01*
X114407960Y-106117050D01*
X114408194Y-106058325D01*
X114408372Y-106016886D01*
X114408662Y-105947458D01*
X114408892Y-105883355D01*
X114409050Y-105824260D01*
X114409128Y-105769855D01*
X114409115Y-105719821D01*
X114409001Y-105673840D01*
X114408859Y-105647066D01*
X114654806Y-105647066D01*
X114656850Y-105690550D01*
X114663066Y-105730930D01*
X114673655Y-105769108D01*
X114688814Y-105805990D01*
X114690442Y-105809344D01*
X114711195Y-105845995D01*
X114735226Y-105878403D01*
X114762304Y-105906393D01*
X114792195Y-105929787D01*
X114824668Y-105948409D01*
X114859490Y-105962083D01*
X114896430Y-105970632D01*
X114903956Y-105971699D01*
X114924111Y-105973033D01*
X114947093Y-105972577D01*
X114970431Y-105970490D01*
X114991654Y-105966929D01*
X114996684Y-105965740D01*
X115030106Y-105954332D01*
X115062004Y-105937605D01*
X115092135Y-105915741D01*
X115120251Y-105888921D01*
X115146108Y-105857323D01*
X115148139Y-105854500D01*
X115171735Y-105816780D01*
X115190325Y-105777208D01*
X115203913Y-105736257D01*
X115212501Y-105694402D01*
X115216089Y-105652114D01*
X115214681Y-105609866D01*
X115208278Y-105568133D01*
X115196883Y-105527386D01*
X115180496Y-105488099D01*
X115159121Y-105450746D01*
X115146386Y-105432707D01*
X115119119Y-105400637D01*
X115089623Y-105373725D01*
X115057795Y-105351900D01*
X115023532Y-105335091D01*
X114988622Y-105323701D01*
X114972488Y-105320774D01*
X114952626Y-105318949D01*
X114930823Y-105318233D01*
X114908870Y-105318630D01*
X114888556Y-105320145D01*
X114871668Y-105322784D01*
X114869189Y-105323364D01*
X114835856Y-105334559D01*
X114804142Y-105350998D01*
X114774392Y-105372427D01*
X114746949Y-105398594D01*
X114722158Y-105429244D01*
X114718535Y-105434438D01*
X114696446Y-105470420D01*
X114679319Y-105506793D01*
X114666903Y-105544398D01*
X114658944Y-105584077D01*
X114655191Y-105626672D01*
X114654806Y-105647066D01*
X114408859Y-105647066D01*
X114408776Y-105631594D01*
X114408430Y-105592764D01*
X114407952Y-105557032D01*
X114407332Y-105524081D01*
X114406561Y-105493591D01*
X114405629Y-105465245D01*
X114404524Y-105438724D01*
X114403238Y-105413710D01*
X114401759Y-105389885D01*
X114400079Y-105366930D01*
X114398186Y-105344528D01*
X114396071Y-105322360D01*
X114393723Y-105300107D01*
X114391132Y-105277453D01*
X114388289Y-105254077D01*
X114385183Y-105229663D01*
X114382778Y-105211255D01*
X114375368Y-105155032D01*
X114381741Y-105149872D01*
X114390477Y-105145870D01*
X114400510Y-105144711D01*
X114410581Y-105144272D01*
X114425195Y-105143041D01*
X114443327Y-105141147D01*
X114463951Y-105138718D01*
X114486043Y-105135883D01*
X114508575Y-105132769D01*
X114530524Y-105129506D01*
X114550862Y-105126222D01*
X114558144Y-105124962D01*
X114579200Y-105121295D01*
X114595423Y-105118691D01*
X114607529Y-105117163D01*
X114616231Y-105116721D01*
X114622243Y-105117378D01*
X114626278Y-105119145D01*
X114629051Y-105122034D01*
X114631275Y-105126056D01*
X114631323Y-105126158D01*
X114634317Y-105133500D01*
X114636788Y-105142186D01*
X114638861Y-105153036D01*
X114640659Y-105166873D01*
X114642305Y-105184520D01*
X114643922Y-105206797D01*
X114644305Y-105212687D01*
X114645411Y-105229206D01*
X114646508Y-105244131D01*
X114647508Y-105256393D01*
X114648326Y-105264924D01*
X114648783Y-105268304D01*
X114650431Y-105273314D01*
X114653122Y-105275632D01*
X114657375Y-105274994D01*
X114663710Y-105271134D01*
X114672644Y-105263790D01*
X114684697Y-105252695D01*
X114690752Y-105246913D01*
X114729960Y-105211818D01*
X114768959Y-105182247D01*
X114808050Y-105158103D01*
X114847534Y-105139289D01*
X114887711Y-105125707D01*
X114928884Y-105117260D01*
X114971352Y-105113852D01*
X115015417Y-105115384D01*
G36*
X118116599Y-105102406D02*
X118168402Y-105108692D01*
X118207340Y-105116909D01*
X118233341Y-105124379D01*
X118260314Y-105133755D01*
X118286972Y-105144482D01*
X118312027Y-105156002D01*
X118334193Y-105167759D01*
X118352182Y-105179195D01*
X118353417Y-105180090D01*
X118361030Y-105186040D01*
X118365042Y-105190758D01*
X118366585Y-105196087D01*
X118366803Y-105201888D01*
X118365943Y-105211821D01*
X118363564Y-105225403D01*
X118359921Y-105241793D01*
X118355273Y-105260150D01*
X118349877Y-105279635D01*
X118343992Y-105299408D01*
X118337874Y-105318627D01*
X118331782Y-105336452D01*
X118325972Y-105352044D01*
X118320704Y-105364561D01*
X118316234Y-105373164D01*
X118313158Y-105376834D01*
X118309921Y-105377064D01*
X118303434Y-105375464D01*
X118293276Y-105371884D01*
X118279025Y-105366169D01*
X118260259Y-105358168D01*
X118253431Y-105355187D01*
X118228298Y-105344395D01*
X118207145Y-105335915D01*
X118188946Y-105329455D01*
X118172670Y-105324724D01*
X118157290Y-105321432D01*
X118141778Y-105319286D01*
X118125106Y-105317997D01*
X118121289Y-105317805D01*
X118080307Y-105318540D01*
X118041124Y-105324602D01*
X118003872Y-105335928D01*
X117968682Y-105352453D01*
X117935687Y-105374111D01*
X117905017Y-105400839D01*
X117876805Y-105432572D01*
X117870318Y-105441054D01*
X117847357Y-105476213D01*
X117829563Y-105513055D01*
X117816791Y-105552000D01*
X117808894Y-105593465D01*
X117806174Y-105624489D01*
X117806318Y-105665889D01*
X117811101Y-105704836D01*
X117820736Y-105742379D01*
X117835436Y-105779566D01*
X117839171Y-105787396D01*
X117859786Y-105823470D01*
X117884455Y-105856288D01*
X117912712Y-105885455D01*
X117944092Y-105910578D01*
X117978128Y-105931265D01*
X118014355Y-105947122D01*
X118036480Y-105954029D01*
X118047812Y-105956873D01*
X118057920Y-105958864D01*
X118068269Y-105960148D01*
X118080325Y-105960870D01*
X118095553Y-105961179D01*
X118108589Y-105961226D01*
X118126729Y-105961123D01*
X118140712Y-105960712D01*
X118152020Y-105959843D01*
X118162140Y-105958362D01*
X118172555Y-105956118D01*
X118181882Y-105953729D01*
X118196686Y-105949033D01*
X118214897Y-105942102D01*
X118235069Y-105933584D01*
X118255755Y-105924128D01*
X118275510Y-105914380D01*
X118292887Y-105904989D01*
X118299903Y-105900834D01*
X118313468Y-105892487D01*
X118319071Y-105905154D01*
X118323241Y-105916511D01*
X118327876Y-105932397D01*
X118332752Y-105951736D01*
X118337647Y-105973456D01*
X118342339Y-105996481D01*
X118346605Y-106019738D01*
X118350223Y-106042153D01*
X118352969Y-106062652D01*
X118354209Y-106074750D01*
X118355072Y-106086192D01*
X118355075Y-106093632D01*
X118353947Y-106098683D01*
X118351417Y-106102958D01*
X118348936Y-106106030D01*
X118338256Y-106115449D01*
X118322074Y-106124932D01*
X118300532Y-106134423D01*
X118273771Y-106143864D01*
X118241932Y-106153195D01*
X118219698Y-106158902D01*
X118182700Y-106167475D01*
X118149968Y-106173960D01*
X118120565Y-106178465D01*
X118093558Y-106181097D01*
X118068010Y-106181963D01*
X118042987Y-106181171D01*
X118032389Y-106180368D01*
X117980115Y-106173043D01*
X117929900Y-106160473D01*
X117881809Y-106142692D01*
X117835905Y-106119734D01*
X117792252Y-106091632D01*
X117750914Y-106058422D01*
X117711956Y-106020137D01*
X117692825Y-105998433D01*
X117660581Y-105956012D01*
X117632588Y-105910726D01*
X117609188Y-105863277D01*
X117590723Y-105814366D01*
X117577537Y-105764693D01*
X117576853Y-105761366D01*
X117568368Y-105705427D01*
X117565125Y-105648291D01*
X117567109Y-105590809D01*
X117574300Y-105533831D01*
X117582243Y-105495452D01*
X117596962Y-105445796D01*
X117616535Y-105397996D01*
X117640616Y-105352439D01*
X117668859Y-105309512D01*
X117700917Y-105269600D01*
X117736445Y-105233088D01*
X117775096Y-105200365D01*
X117816526Y-105171814D01*
X117860388Y-105147823D01*
X117906335Y-105128777D01*
X117912863Y-105126544D01*
X117961577Y-105113172D01*
X118012337Y-105104674D01*
X118064295Y-105101076D01*
X118116599Y-105102406D01*
X118116599Y-105102406D01*
G37*
X118116599Y-105102406D02*
X118168402Y-105108692D01*
X118207340Y-105116909D01*
X118233341Y-105124379D01*
X118260314Y-105133755D01*
X118286972Y-105144482D01*
X118312027Y-105156002D01*
X118334193Y-105167759D01*
X118352182Y-105179195D01*
X118353417Y-105180090D01*
X118361030Y-105186040D01*
X118365042Y-105190758D01*
X118366585Y-105196087D01*
X118366803Y-105201888D01*
X118365943Y-105211821D01*
X118363564Y-105225403D01*
X118359921Y-105241793D01*
X118355273Y-105260150D01*
X118349877Y-105279635D01*
X118343992Y-105299408D01*
X118337874Y-105318627D01*
X118331782Y-105336452D01*
X118325972Y-105352044D01*
X118320704Y-105364561D01*
X118316234Y-105373164D01*
X118313158Y-105376834D01*
X118309921Y-105377064D01*
X118303434Y-105375464D01*
X118293276Y-105371884D01*
X118279025Y-105366169D01*
X118260259Y-105358168D01*
X118253431Y-105355187D01*
X118228298Y-105344395D01*
X118207145Y-105335915D01*
X118188946Y-105329455D01*
X118172670Y-105324724D01*
X118157290Y-105321432D01*
X118141778Y-105319286D01*
X118125106Y-105317997D01*
X118121289Y-105317805D01*
X118080307Y-105318540D01*
X118041124Y-105324602D01*
X118003872Y-105335928D01*
X117968682Y-105352453D01*
X117935687Y-105374111D01*
X117905017Y-105400839D01*
X117876805Y-105432572D01*
X117870318Y-105441054D01*
X117847357Y-105476213D01*
X117829563Y-105513055D01*
X117816791Y-105552000D01*
X117808894Y-105593465D01*
X117806174Y-105624489D01*
X117806318Y-105665889D01*
X117811101Y-105704836D01*
X117820736Y-105742379D01*
X117835436Y-105779566D01*
X117839171Y-105787396D01*
X117859786Y-105823470D01*
X117884455Y-105856288D01*
X117912712Y-105885455D01*
X117944092Y-105910578D01*
X117978128Y-105931265D01*
X118014355Y-105947122D01*
X118036480Y-105954029D01*
X118047812Y-105956873D01*
X118057920Y-105958864D01*
X118068269Y-105960148D01*
X118080325Y-105960870D01*
X118095553Y-105961179D01*
X118108589Y-105961226D01*
X118126729Y-105961123D01*
X118140712Y-105960712D01*
X118152020Y-105959843D01*
X118162140Y-105958362D01*
X118172555Y-105956118D01*
X118181882Y-105953729D01*
X118196686Y-105949033D01*
X118214897Y-105942102D01*
X118235069Y-105933584D01*
X118255755Y-105924128D01*
X118275510Y-105914380D01*
X118292887Y-105904989D01*
X118299903Y-105900834D01*
X118313468Y-105892487D01*
X118319071Y-105905154D01*
X118323241Y-105916511D01*
X118327876Y-105932397D01*
X118332752Y-105951736D01*
X118337647Y-105973456D01*
X118342339Y-105996481D01*
X118346605Y-106019738D01*
X118350223Y-106042153D01*
X118352969Y-106062652D01*
X118354209Y-106074750D01*
X118355072Y-106086192D01*
X118355075Y-106093632D01*
X118353947Y-106098683D01*
X118351417Y-106102958D01*
X118348936Y-106106030D01*
X118338256Y-106115449D01*
X118322074Y-106124932D01*
X118300532Y-106134423D01*
X118273771Y-106143864D01*
X118241932Y-106153195D01*
X118219698Y-106158902D01*
X118182700Y-106167475D01*
X118149968Y-106173960D01*
X118120565Y-106178465D01*
X118093558Y-106181097D01*
X118068010Y-106181963D01*
X118042987Y-106181171D01*
X118032389Y-106180368D01*
X117980115Y-106173043D01*
X117929900Y-106160473D01*
X117881809Y-106142692D01*
X117835905Y-106119734D01*
X117792252Y-106091632D01*
X117750914Y-106058422D01*
X117711956Y-106020137D01*
X117692825Y-105998433D01*
X117660581Y-105956012D01*
X117632588Y-105910726D01*
X117609188Y-105863277D01*
X117590723Y-105814366D01*
X117577537Y-105764693D01*
X117576853Y-105761366D01*
X117568368Y-105705427D01*
X117565125Y-105648291D01*
X117567109Y-105590809D01*
X117574300Y-105533831D01*
X117582243Y-105495452D01*
X117596962Y-105445796D01*
X117616535Y-105397996D01*
X117640616Y-105352439D01*
X117668859Y-105309512D01*
X117700917Y-105269600D01*
X117736445Y-105233088D01*
X117775096Y-105200365D01*
X117816526Y-105171814D01*
X117860388Y-105147823D01*
X117906335Y-105128777D01*
X117912863Y-105126544D01*
X117961577Y-105113172D01*
X118012337Y-105104674D01*
X118064295Y-105101076D01*
X118116599Y-105102406D01*
G36*
X115630729Y-105158973D02*
X115653774Y-105159308D01*
X115681285Y-105159819D01*
X115707769Y-105160347D01*
X115729182Y-105160843D01*
X115746099Y-105161343D01*
X115759093Y-105161886D01*
X115768737Y-105162509D01*
X115775607Y-105163249D01*
X115780275Y-105164144D01*
X115783315Y-105165231D01*
X115785301Y-105166547D01*
X115785371Y-105166610D01*
X115787649Y-105169070D01*
X115789112Y-105172297D01*
X115789861Y-105177347D01*
X115789995Y-105185275D01*
X115789614Y-105197135D01*
X115789168Y-105206800D01*
X115788336Y-105218909D01*
X115786835Y-105235506D01*
X115784785Y-105255485D01*
X115782305Y-105277745D01*
X115779513Y-105301183D01*
X115776528Y-105324696D01*
X115776139Y-105327652D01*
X115771850Y-105360822D01*
X115768333Y-105390087D01*
X115765514Y-105416599D01*
X115763320Y-105441505D01*
X115761677Y-105465955D01*
X115760512Y-105491100D01*
X115759750Y-105518087D01*
X115759319Y-105548068D01*
X115759146Y-105582192D01*
X115759133Y-105593586D01*
X115759407Y-105641369D01*
X115760332Y-105683948D01*
X115761995Y-105721733D01*
X115764483Y-105755136D01*
X115767882Y-105784568D01*
X115772280Y-105810441D01*
X115777764Y-105833165D01*
X115784421Y-105853152D01*
X115792336Y-105870814D01*
X115801598Y-105886562D01*
X115812294Y-105900806D01*
X115824509Y-105913959D01*
X115827406Y-105916745D01*
X115850911Y-105935147D01*
X115878355Y-105949672D01*
X115909893Y-105960403D01*
X115910422Y-105960541D01*
X115927613Y-105964054D01*
X115947633Y-105966596D01*
X115968703Y-105968076D01*
X115989041Y-105968398D01*
X116006870Y-105967471D01*
X116016419Y-105966124D01*
X116041949Y-105959124D01*
X116069485Y-105948035D01*
X116098003Y-105933530D01*
X116126481Y-105916284D01*
X116153896Y-105896970D01*
X116179225Y-105876262D01*
X116201446Y-105854834D01*
X116219536Y-105833361D01*
X116221025Y-105831311D01*
X116226938Y-105822868D01*
X116231796Y-105815201D01*
X116235718Y-105807641D01*
X116238825Y-105799521D01*
X116241236Y-105790170D01*
X116243072Y-105778922D01*
X116244453Y-105765105D01*
X116245498Y-105748053D01*
X116246328Y-105727097D01*
X116247063Y-105701567D01*
X116247508Y-105683755D01*
X116247936Y-105663270D01*
X116248345Y-105637966D01*
X116248729Y-105608671D01*
X116249080Y-105576210D01*
X116249391Y-105541411D01*
X116249654Y-105505099D01*
X116249863Y-105468102D01*
X116250009Y-105431245D01*
X116250085Y-105395354D01*
X116250086Y-105394478D01*
X116250158Y-105361768D01*
X116250298Y-105330494D01*
X116250499Y-105301150D01*
X116250756Y-105274230D01*
X116251060Y-105250227D01*
X116251405Y-105229635D01*
X116251785Y-105212950D01*
X116252193Y-105200664D01*
X116252622Y-105193272D01*
X116252851Y-105191526D01*
X116256632Y-105182222D01*
X116262715Y-105173287D01*
X116264124Y-105171770D01*
X116272836Y-105163055D01*
X116373547Y-105162245D01*
X116404351Y-105162075D01*
X116429726Y-105162108D01*
X116449886Y-105162348D01*
X116465042Y-105162801D01*
X116475407Y-105163471D01*
X116481193Y-105164362D01*
X116481910Y-105164604D01*
X116486487Y-105166995D01*
X116490046Y-105170365D01*
X116492697Y-105175376D01*
X116494555Y-105182690D01*
X116495731Y-105192971D01*
X116496338Y-105206881D01*
X116496489Y-105225083D01*
X116496297Y-105248239D01*
X116496286Y-105249133D01*
X116495969Y-105267560D01*
X116495449Y-105290404D01*
X116494760Y-105316444D01*
X116493937Y-105344457D01*
X116493016Y-105373222D01*
X116492032Y-105401517D01*
X116491400Y-105418466D01*
X116489524Y-105469153D01*
X116487998Y-105515156D01*
X116486814Y-105557428D01*
X116485966Y-105596918D01*
X116485447Y-105634578D01*
X116485251Y-105671358D01*
X116485371Y-105708208D01*
X116485800Y-105746079D01*
X116486532Y-105785922D01*
X116487560Y-105828687D01*
X116488341Y-105857035D01*
X116489219Y-105888822D01*
X116490040Y-105920888D01*
X116490789Y-105952420D01*
X116491449Y-105982608D01*
X116492002Y-106010640D01*
X116492433Y-106035704D01*
X116492724Y-106056990D01*
X116492859Y-106073685D01*
X116492867Y-106077623D01*
X116492867Y-106140454D01*
X116484184Y-106147760D01*
X116475500Y-106155066D01*
X116256238Y-106155066D01*
X116253356Y-106145894D01*
X116251833Y-106140193D01*
X116250491Y-106133020D01*
X116249252Y-106123631D01*
X116248038Y-106111280D01*
X116246773Y-106095221D01*
X116245379Y-106074709D01*
X116244462Y-106060178D01*
X116242847Y-106037914D01*
X116241048Y-106020903D01*
X116238987Y-106008754D01*
X116236591Y-106001076D01*
X116233783Y-105997480D01*
X116232241Y-105997089D01*
X116229025Y-105998801D01*
X116222270Y-106003481D01*
X116212806Y-106010519D01*
X116201459Y-106019308D01*
X116194319Y-106024986D01*
X116147098Y-106060403D01*
X116100371Y-106090468D01*
X116054232Y-106115133D01*
X116008774Y-106134353D01*
X115964093Y-106148079D01*
X115938300Y-106153552D01*
X115918628Y-106156228D01*
X115895387Y-106158141D01*
X115870610Y-106159221D01*
X115846332Y-106159396D01*
X115824585Y-106158596D01*
X115815674Y-106157847D01*
X115770099Y-106150988D01*
X115728671Y-106140368D01*
X115691283Y-106125936D01*
X115657828Y-106107639D01*
X115628199Y-106085427D01*
X115602288Y-106059248D01*
X115596939Y-106052780D01*
X115580648Y-106030038D01*
X115566582Y-106005096D01*
X115554551Y-105977386D01*
X115544366Y-105946340D01*
X115535838Y-105911392D01*
X115528776Y-105871974D01*
X115523647Y-105833333D01*
X115519932Y-105794741D01*
X115517068Y-105751613D01*
X115515056Y-105704996D01*
X115513902Y-105655935D01*
X115513608Y-105605475D01*
X115514178Y-105554662D01*
X115515616Y-105504542D01*
X115517926Y-105456159D01*
X115521111Y-105410559D01*
X115522135Y-105398711D01*
X115524943Y-105370641D01*
X115528315Y-105341923D01*
X115532128Y-105313292D01*
X115536256Y-105285479D01*
X115540576Y-105259217D01*
X115544964Y-105235238D01*
X115549296Y-105214275D01*
X115553448Y-105197061D01*
X115557296Y-105184328D01*
X115559265Y-105179441D01*
X115561895Y-105173990D01*
X115564536Y-105169545D01*
X115567751Y-105166016D01*
X115572106Y-105163310D01*
X115578165Y-105161339D01*
X115586492Y-105160010D01*
X115597652Y-105159233D01*
X115612210Y-105158918D01*
X115630729Y-105158973D01*
X115630729Y-105158973D01*
G37*
X115630729Y-105158973D02*
X115653774Y-105159308D01*
X115681285Y-105159819D01*
X115707769Y-105160347D01*
X115729182Y-105160843D01*
X115746099Y-105161343D01*
X115759093Y-105161886D01*
X115768737Y-105162509D01*
X115775607Y-105163249D01*
X115780275Y-105164144D01*
X115783315Y-105165231D01*
X115785301Y-105166547D01*
X115785371Y-105166610D01*
X115787649Y-105169070D01*
X115789112Y-105172297D01*
X115789861Y-105177347D01*
X115789995Y-105185275D01*
X115789614Y-105197135D01*
X115789168Y-105206800D01*
X115788336Y-105218909D01*
X115786835Y-105235506D01*
X115784785Y-105255485D01*
X115782305Y-105277745D01*
X115779513Y-105301183D01*
X115776528Y-105324696D01*
X115776139Y-105327652D01*
X115771850Y-105360822D01*
X115768333Y-105390087D01*
X115765514Y-105416599D01*
X115763320Y-105441505D01*
X115761677Y-105465955D01*
X115760512Y-105491100D01*
X115759750Y-105518087D01*
X115759319Y-105548068D01*
X115759146Y-105582192D01*
X115759133Y-105593586D01*
X115759407Y-105641369D01*
X115760332Y-105683948D01*
X115761995Y-105721733D01*
X115764483Y-105755136D01*
X115767882Y-105784568D01*
X115772280Y-105810441D01*
X115777764Y-105833165D01*
X115784421Y-105853152D01*
X115792336Y-105870814D01*
X115801598Y-105886562D01*
X115812294Y-105900806D01*
X115824509Y-105913959D01*
X115827406Y-105916745D01*
X115850911Y-105935147D01*
X115878355Y-105949672D01*
X115909893Y-105960403D01*
X115910422Y-105960541D01*
X115927613Y-105964054D01*
X115947633Y-105966596D01*
X115968703Y-105968076D01*
X115989041Y-105968398D01*
X116006870Y-105967471D01*
X116016419Y-105966124D01*
X116041949Y-105959124D01*
X116069485Y-105948035D01*
X116098003Y-105933530D01*
X116126481Y-105916284D01*
X116153896Y-105896970D01*
X116179225Y-105876262D01*
X116201446Y-105854834D01*
X116219536Y-105833361D01*
X116221025Y-105831311D01*
X116226938Y-105822868D01*
X116231796Y-105815201D01*
X116235718Y-105807641D01*
X116238825Y-105799521D01*
X116241236Y-105790170D01*
X116243072Y-105778922D01*
X116244453Y-105765105D01*
X116245498Y-105748053D01*
X116246328Y-105727097D01*
X116247063Y-105701567D01*
X116247508Y-105683755D01*
X116247936Y-105663270D01*
X116248345Y-105637966D01*
X116248729Y-105608671D01*
X116249080Y-105576210D01*
X116249391Y-105541411D01*
X116249654Y-105505099D01*
X116249863Y-105468102D01*
X116250009Y-105431245D01*
X116250085Y-105395354D01*
X116250086Y-105394478D01*
X116250158Y-105361768D01*
X116250298Y-105330494D01*
X116250499Y-105301150D01*
X116250756Y-105274230D01*
X116251060Y-105250227D01*
X116251405Y-105229635D01*
X116251785Y-105212950D01*
X116252193Y-105200664D01*
X116252622Y-105193272D01*
X116252851Y-105191526D01*
X116256632Y-105182222D01*
X116262715Y-105173287D01*
X116264124Y-105171770D01*
X116272836Y-105163055D01*
X116373547Y-105162245D01*
X116404351Y-105162075D01*
X116429726Y-105162108D01*
X116449886Y-105162348D01*
X116465042Y-105162801D01*
X116475407Y-105163471D01*
X116481193Y-105164362D01*
X116481910Y-105164604D01*
X116486487Y-105166995D01*
X116490046Y-105170365D01*
X116492697Y-105175376D01*
X116494555Y-105182690D01*
X116495731Y-105192971D01*
X116496338Y-105206881D01*
X116496489Y-105225083D01*
X116496297Y-105248239D01*
X116496286Y-105249133D01*
X116495969Y-105267560D01*
X116495449Y-105290404D01*
X116494760Y-105316444D01*
X116493937Y-105344457D01*
X116493016Y-105373222D01*
X116492032Y-105401517D01*
X116491400Y-105418466D01*
X116489524Y-105469153D01*
X116487998Y-105515156D01*
X116486814Y-105557428D01*
X116485966Y-105596918D01*
X116485447Y-105634578D01*
X116485251Y-105671358D01*
X116485371Y-105708208D01*
X116485800Y-105746079D01*
X116486532Y-105785922D01*
X116487560Y-105828687D01*
X116488341Y-105857035D01*
X116489219Y-105888822D01*
X116490040Y-105920888D01*
X116490789Y-105952420D01*
X116491449Y-105982608D01*
X116492002Y-106010640D01*
X116492433Y-106035704D01*
X116492724Y-106056990D01*
X116492859Y-106073685D01*
X116492867Y-106077623D01*
X116492867Y-106140454D01*
X116484184Y-106147760D01*
X116475500Y-106155066D01*
X116256238Y-106155066D01*
X116253356Y-106145894D01*
X116251833Y-106140193D01*
X116250491Y-106133020D01*
X116249252Y-106123631D01*
X116248038Y-106111280D01*
X116246773Y-106095221D01*
X116245379Y-106074709D01*
X116244462Y-106060178D01*
X116242847Y-106037914D01*
X116241048Y-106020903D01*
X116238987Y-106008754D01*
X116236591Y-106001076D01*
X116233783Y-105997480D01*
X116232241Y-105997089D01*
X116229025Y-105998801D01*
X116222270Y-106003481D01*
X116212806Y-106010519D01*
X116201459Y-106019308D01*
X116194319Y-106024986D01*
X116147098Y-106060403D01*
X116100371Y-106090468D01*
X116054232Y-106115133D01*
X116008774Y-106134353D01*
X115964093Y-106148079D01*
X115938300Y-106153552D01*
X115918628Y-106156228D01*
X115895387Y-106158141D01*
X115870610Y-106159221D01*
X115846332Y-106159396D01*
X115824585Y-106158596D01*
X115815674Y-106157847D01*
X115770099Y-106150988D01*
X115728671Y-106140368D01*
X115691283Y-106125936D01*
X115657828Y-106107639D01*
X115628199Y-106085427D01*
X115602288Y-106059248D01*
X115596939Y-106052780D01*
X115580648Y-106030038D01*
X115566582Y-106005096D01*
X115554551Y-105977386D01*
X115544366Y-105946340D01*
X115535838Y-105911392D01*
X115528776Y-105871974D01*
X115523647Y-105833333D01*
X115519932Y-105794741D01*
X115517068Y-105751613D01*
X115515056Y-105704996D01*
X115513902Y-105655935D01*
X115513608Y-105605475D01*
X115514178Y-105554662D01*
X115515616Y-105504542D01*
X115517926Y-105456159D01*
X115521111Y-105410559D01*
X115522135Y-105398711D01*
X115524943Y-105370641D01*
X115528315Y-105341923D01*
X115532128Y-105313292D01*
X115536256Y-105285479D01*
X115540576Y-105259217D01*
X115544964Y-105235238D01*
X115549296Y-105214275D01*
X115553448Y-105197061D01*
X115557296Y-105184328D01*
X115559265Y-105179441D01*
X115561895Y-105173990D01*
X115564536Y-105169545D01*
X115567751Y-105166016D01*
X115572106Y-105163310D01*
X115578165Y-105161339D01*
X115586492Y-105160010D01*
X115597652Y-105159233D01*
X115612210Y-105158918D01*
X115630729Y-105158973D01*
G36*
X117242437Y-105123823D02*
X117259594Y-105124281D01*
X117273836Y-105125136D01*
X117286523Y-105126487D01*
X117299018Y-105128437D01*
X117307970Y-105130130D01*
X117347338Y-105139865D01*
X117382316Y-105152652D01*
X117413114Y-105168722D01*
X117439942Y-105188304D01*
X117463010Y-105211628D01*
X117482527Y-105238925D01*
X117498705Y-105270424D01*
X117511752Y-105306356D01*
X117521879Y-105346951D01*
X117525881Y-105368873D01*
X117527873Y-105383194D01*
X117529801Y-105400901D01*
X117531599Y-105420923D01*
X117533203Y-105442191D01*
X117534550Y-105463634D01*
X117535573Y-105484183D01*
X117536210Y-105502768D01*
X117536396Y-105518319D01*
X117536066Y-105529767D01*
X117535766Y-105533022D01*
X117535359Y-105539240D01*
X117535004Y-105550619D01*
X117534701Y-105566676D01*
X117534451Y-105586926D01*
X117534254Y-105610888D01*
X117534108Y-105638076D01*
X117534015Y-105668009D01*
X117533974Y-105700202D01*
X117533984Y-105734172D01*
X117534046Y-105769437D01*
X117534160Y-105805511D01*
X117534326Y-105841913D01*
X117534543Y-105878159D01*
X117534811Y-105913764D01*
X117535131Y-105948247D01*
X117535502Y-105981124D01*
X117535874Y-106008610D01*
X117537902Y-106145787D01*
X117524943Y-106158746D01*
X117413515Y-106157155D01*
X117385487Y-106156745D01*
X117362556Y-106156371D01*
X117344177Y-106155999D01*
X117329803Y-106155593D01*
X117318888Y-106155118D01*
X117310886Y-106154542D01*
X117305250Y-106153828D01*
X117301434Y-106152942D01*
X117298892Y-106151850D01*
X117297078Y-106150516D01*
X117296249Y-106149725D01*
X117294335Y-106147559D01*
X117292904Y-106144900D01*
X117291896Y-106140980D01*
X117291252Y-106135031D01*
X117290912Y-106126286D01*
X117290819Y-106113979D01*
X117290911Y-106097340D01*
X117291058Y-106082448D01*
X117291289Y-106064676D01*
X117291647Y-106042444D01*
X117292109Y-106016932D01*
X117292651Y-105989324D01*
X117293252Y-105960802D01*
X117293887Y-105932546D01*
X117294335Y-105913766D01*
X117294888Y-105886259D01*
X117295276Y-105856154D01*
X117295507Y-105823998D01*
X117295590Y-105790332D01*
X117295532Y-105755702D01*
X117295341Y-105720652D01*
X117295025Y-105685725D01*
X117294593Y-105651466D01*
X117294052Y-105618419D01*
X117293410Y-105587127D01*
X117292676Y-105558135D01*
X117291857Y-105531987D01*
X117290962Y-105509226D01*
X117289998Y-105490398D01*
X117288973Y-105476045D01*
X117287896Y-105466712D01*
X117287733Y-105465792D01*
X117280483Y-105435270D01*
X117271120Y-105409592D01*
X117259303Y-105388243D01*
X117244692Y-105370707D01*
X117226947Y-105356470D01*
X117208949Y-105346484D01*
X117180935Y-105336201D01*
X117149141Y-105329862D01*
X117113860Y-105327443D01*
X117096692Y-105327657D01*
X117081469Y-105329054D01*
X117066877Y-105331983D01*
X117051604Y-105336794D01*
X117034336Y-105343838D01*
X117013759Y-105353465D01*
X117010745Y-105354938D01*
X116982121Y-105369980D01*
X116954944Y-105386197D01*
X116929852Y-105403099D01*
X116907482Y-105420194D01*
X116888471Y-105436993D01*
X116873457Y-105453004D01*
X116863077Y-105467737D01*
X116862241Y-105469266D01*
X116855522Y-105481966D01*
X116854111Y-105815922D01*
X116853896Y-105866346D01*
X116853697Y-105911428D01*
X116853507Y-105951472D01*
X116853320Y-105986781D01*
X116853130Y-106017658D01*
X116852931Y-106044405D01*
X116852716Y-106067327D01*
X116852480Y-106086725D01*
X116852216Y-106102904D01*
X116851918Y-106116165D01*
X116851580Y-106126812D01*
X116851196Y-106135149D01*
X116850759Y-106141478D01*
X116850264Y-106146102D01*
X116849704Y-106149324D01*
X116849073Y-106151448D01*
X116848365Y-106152776D01*
X116847573Y-106153612D01*
X116847222Y-106153883D01*
X116844584Y-106155114D01*
X116840046Y-106156054D01*
X116832991Y-106156729D01*
X116822803Y-106157165D01*
X116808866Y-106157387D01*
X116790564Y-106157422D01*
X116767279Y-106157293D01*
X116765377Y-106157278D01*
X116742878Y-106157075D01*
X116720170Y-106156826D01*
X116698490Y-106156548D01*
X116679075Y-106156259D01*
X116663162Y-106155976D01*
X116654447Y-106155780D01*
X116639944Y-106155358D01*
X116630019Y-106154825D01*
X116623609Y-106153960D01*
X116619649Y-106152542D01*
X116617075Y-106150351D01*
X116615117Y-106147618D01*
X116614316Y-106146116D01*
X116613620Y-106143986D01*
X116613026Y-106140886D01*
X116612534Y-106136473D01*
X116612140Y-106130404D01*
X116611844Y-106122335D01*
X116611642Y-106111923D01*
X116611533Y-106098825D01*
X116611516Y-106082698D01*
X116611587Y-106063198D01*
X116611746Y-106039984D01*
X116611989Y-106012711D01*
X116612316Y-105981036D01*
X116612724Y-105944617D01*
X116613211Y-105903109D01*
X116613552Y-105874655D01*
X116614228Y-105814324D01*
X116614715Y-105759205D01*
X116614984Y-105708867D01*
X116615008Y-105662879D01*
X116614758Y-105620811D01*
X116614205Y-105582232D01*
X116613321Y-105546711D01*
X116612078Y-105513818D01*
X116610446Y-105483122D01*
X116608397Y-105454193D01*
X116605903Y-105426600D01*
X116602936Y-105399912D01*
X116599466Y-105373698D01*
X116595466Y-105347529D01*
X116590906Y-105320973D01*
X116585759Y-105293600D01*
X116579995Y-105264979D01*
X116573587Y-105234680D01*
X116570137Y-105218789D01*
X116567730Y-105207174D01*
X116566662Y-105199741D01*
X116566890Y-105195199D01*
X116568373Y-105192256D01*
X116569244Y-105191302D01*
X116572829Y-105190009D01*
X116581440Y-105187968D01*
X116594523Y-105185276D01*
X116611524Y-105182029D01*
X116631887Y-105178323D01*
X116655060Y-105174254D01*
X116680486Y-105169920D01*
X116707612Y-105165416D01*
X116735883Y-105160840D01*
X116764745Y-105156287D01*
X116793643Y-105151853D01*
X116811068Y-105149246D01*
X116816977Y-105148990D01*
X116821044Y-105150885D01*
X116823782Y-105155820D01*
X116825707Y-105164686D01*
X116827210Y-105177166D01*
X116829773Y-105197662D01*
X116833389Y-105220315D01*
X116837727Y-105243437D01*
X116842456Y-105265340D01*
X116847246Y-105284336D01*
X116850058Y-105293779D01*
X116852741Y-105293832D01*
X116859430Y-105290162D01*
X116869972Y-105282863D01*
X116880203Y-105275152D01*
X116913715Y-105249562D01*
X116943575Y-105227428D01*
X116970323Y-105208428D01*
X116994500Y-105192236D01*
X117016644Y-105178530D01*
X117037296Y-105166984D01*
X117056994Y-105157275D01*
X117076279Y-105149079D01*
X117095691Y-105142072D01*
X117108589Y-105138014D01*
X117125540Y-105133113D01*
X117139905Y-105129453D01*
X117153053Y-105126860D01*
X117166355Y-105125159D01*
X117181182Y-105124175D01*
X117198903Y-105123734D01*
X117220888Y-105123659D01*
X117221000Y-105123659D01*
X117242437Y-105123823D01*
X117242437Y-105123823D01*
G37*
X117242437Y-105123823D02*
X117259594Y-105124281D01*
X117273836Y-105125136D01*
X117286523Y-105126487D01*
X117299018Y-105128437D01*
X117307970Y-105130130D01*
X117347338Y-105139865D01*
X117382316Y-105152652D01*
X117413114Y-105168722D01*
X117439942Y-105188304D01*
X117463010Y-105211628D01*
X117482527Y-105238925D01*
X117498705Y-105270424D01*
X117511752Y-105306356D01*
X117521879Y-105346951D01*
X117525881Y-105368873D01*
X117527873Y-105383194D01*
X117529801Y-105400901D01*
X117531599Y-105420923D01*
X117533203Y-105442191D01*
X117534550Y-105463634D01*
X117535573Y-105484183D01*
X117536210Y-105502768D01*
X117536396Y-105518319D01*
X117536066Y-105529767D01*
X117535766Y-105533022D01*
X117535359Y-105539240D01*
X117535004Y-105550619D01*
X117534701Y-105566676D01*
X117534451Y-105586926D01*
X117534254Y-105610888D01*
X117534108Y-105638076D01*
X117534015Y-105668009D01*
X117533974Y-105700202D01*
X117533984Y-105734172D01*
X117534046Y-105769437D01*
X117534160Y-105805511D01*
X117534326Y-105841913D01*
X117534543Y-105878159D01*
X117534811Y-105913764D01*
X117535131Y-105948247D01*
X117535502Y-105981124D01*
X117535874Y-106008610D01*
X117537902Y-106145787D01*
X117524943Y-106158746D01*
X117413515Y-106157155D01*
X117385487Y-106156745D01*
X117362556Y-106156371D01*
X117344177Y-106155999D01*
X117329803Y-106155593D01*
X117318888Y-106155118D01*
X117310886Y-106154542D01*
X117305250Y-106153828D01*
X117301434Y-106152942D01*
X117298892Y-106151850D01*
X117297078Y-106150516D01*
X117296249Y-106149725D01*
X117294335Y-106147559D01*
X117292904Y-106144900D01*
X117291896Y-106140980D01*
X117291252Y-106135031D01*
X117290912Y-106126286D01*
X117290819Y-106113979D01*
X117290911Y-106097340D01*
X117291058Y-106082448D01*
X117291289Y-106064676D01*
X117291647Y-106042444D01*
X117292109Y-106016932D01*
X117292651Y-105989324D01*
X117293252Y-105960802D01*
X117293887Y-105932546D01*
X117294335Y-105913766D01*
X117294888Y-105886259D01*
X117295276Y-105856154D01*
X117295507Y-105823998D01*
X117295590Y-105790332D01*
X117295532Y-105755702D01*
X117295341Y-105720652D01*
X117295025Y-105685725D01*
X117294593Y-105651466D01*
X117294052Y-105618419D01*
X117293410Y-105587127D01*
X117292676Y-105558135D01*
X117291857Y-105531987D01*
X117290962Y-105509226D01*
X117289998Y-105490398D01*
X117288973Y-105476045D01*
X117287896Y-105466712D01*
X117287733Y-105465792D01*
X117280483Y-105435270D01*
X117271120Y-105409592D01*
X117259303Y-105388243D01*
X117244692Y-105370707D01*
X117226947Y-105356470D01*
X117208949Y-105346484D01*
X117180935Y-105336201D01*
X117149141Y-105329862D01*
X117113860Y-105327443D01*
X117096692Y-105327657D01*
X117081469Y-105329054D01*
X117066877Y-105331983D01*
X117051604Y-105336794D01*
X117034336Y-105343838D01*
X117013759Y-105353465D01*
X117010745Y-105354938D01*
X116982121Y-105369980D01*
X116954944Y-105386197D01*
X116929852Y-105403099D01*
X116907482Y-105420194D01*
X116888471Y-105436993D01*
X116873457Y-105453004D01*
X116863077Y-105467737D01*
X116862241Y-105469266D01*
X116855522Y-105481966D01*
X116854111Y-105815922D01*
X116853896Y-105866346D01*
X116853697Y-105911428D01*
X116853507Y-105951472D01*
X116853320Y-105986781D01*
X116853130Y-106017658D01*
X116852931Y-106044405D01*
X116852716Y-106067327D01*
X116852480Y-106086725D01*
X116852216Y-106102904D01*
X116851918Y-106116165D01*
X116851580Y-106126812D01*
X116851196Y-106135149D01*
X116850759Y-106141478D01*
X116850264Y-106146102D01*
X116849704Y-106149324D01*
X116849073Y-106151448D01*
X116848365Y-106152776D01*
X116847573Y-106153612D01*
X116847222Y-106153883D01*
X116844584Y-106155114D01*
X116840046Y-106156054D01*
X116832991Y-106156729D01*
X116822803Y-106157165D01*
X116808866Y-106157387D01*
X116790564Y-106157422D01*
X116767279Y-106157293D01*
X116765377Y-106157278D01*
X116742878Y-106157075D01*
X116720170Y-106156826D01*
X116698490Y-106156548D01*
X116679075Y-106156259D01*
X116663162Y-106155976D01*
X116654447Y-106155780D01*
X116639944Y-106155358D01*
X116630019Y-106154825D01*
X116623609Y-106153960D01*
X116619649Y-106152542D01*
X116617075Y-106150351D01*
X116615117Y-106147618D01*
X116614316Y-106146116D01*
X116613620Y-106143986D01*
X116613026Y-106140886D01*
X116612534Y-106136473D01*
X116612140Y-106130404D01*
X116611844Y-106122335D01*
X116611642Y-106111923D01*
X116611533Y-106098825D01*
X116611516Y-106082698D01*
X116611587Y-106063198D01*
X116611746Y-106039984D01*
X116611989Y-106012711D01*
X116612316Y-105981036D01*
X116612724Y-105944617D01*
X116613211Y-105903109D01*
X116613552Y-105874655D01*
X116614228Y-105814324D01*
X116614715Y-105759205D01*
X116614984Y-105708867D01*
X116615008Y-105662879D01*
X116614758Y-105620811D01*
X116614205Y-105582232D01*
X116613321Y-105546711D01*
X116612078Y-105513818D01*
X116610446Y-105483122D01*
X116608397Y-105454193D01*
X116605903Y-105426600D01*
X116602936Y-105399912D01*
X116599466Y-105373698D01*
X116595466Y-105347529D01*
X116590906Y-105320973D01*
X116585759Y-105293600D01*
X116579995Y-105264979D01*
X116573587Y-105234680D01*
X116570137Y-105218789D01*
X116567730Y-105207174D01*
X116566662Y-105199741D01*
X116566890Y-105195199D01*
X116568373Y-105192256D01*
X116569244Y-105191302D01*
X116572829Y-105190009D01*
X116581440Y-105187968D01*
X116594523Y-105185276D01*
X116611524Y-105182029D01*
X116631887Y-105178323D01*
X116655060Y-105174254D01*
X116680486Y-105169920D01*
X116707612Y-105165416D01*
X116735883Y-105160840D01*
X116764745Y-105156287D01*
X116793643Y-105151853D01*
X116811068Y-105149246D01*
X116816977Y-105148990D01*
X116821044Y-105150885D01*
X116823782Y-105155820D01*
X116825707Y-105164686D01*
X116827210Y-105177166D01*
X116829773Y-105197662D01*
X116833389Y-105220315D01*
X116837727Y-105243437D01*
X116842456Y-105265340D01*
X116847246Y-105284336D01*
X116850058Y-105293779D01*
X116852741Y-105293832D01*
X116859430Y-105290162D01*
X116869972Y-105282863D01*
X116880203Y-105275152D01*
X116913715Y-105249562D01*
X116943575Y-105227428D01*
X116970323Y-105208428D01*
X116994500Y-105192236D01*
X117016644Y-105178530D01*
X117037296Y-105166984D01*
X117056994Y-105157275D01*
X117076279Y-105149079D01*
X117095691Y-105142072D01*
X117108589Y-105138014D01*
X117125540Y-105133113D01*
X117139905Y-105129453D01*
X117153053Y-105126860D01*
X117166355Y-105125159D01*
X117181182Y-105124175D01*
X117198903Y-105123734D01*
X117220888Y-105123659D01*
X117221000Y-105123659D01*
X117242437Y-105123823D01*
G36*
X118624806Y-104653846D02*
X118628669Y-104654971D01*
X118631044Y-104657446D01*
X118632239Y-104659528D01*
X118633177Y-104664277D01*
X118633853Y-104674243D01*
X118634272Y-104689004D01*
X118634438Y-104708140D01*
X118634356Y-104731229D01*
X118634032Y-104757851D01*
X118633469Y-104787583D01*
X118632673Y-104820005D01*
X118631648Y-104854696D01*
X118630400Y-104891234D01*
X118629290Y-104920344D01*
X118626942Y-104980928D01*
X118624950Y-105035940D01*
X118623314Y-105085442D01*
X118622032Y-105129498D01*
X118621103Y-105168167D01*
X118620527Y-105201513D01*
X118620302Y-105229597D01*
X118620428Y-105252481D01*
X118620904Y-105270227D01*
X118621729Y-105282897D01*
X118622903Y-105290552D01*
X118623969Y-105293000D01*
X118626013Y-105294038D01*
X118629146Y-105293430D01*
X118634032Y-105290760D01*
X118641336Y-105285611D01*
X118651721Y-105277566D01*
X118663161Y-105268387D01*
X118691332Y-105245756D01*
X118715836Y-105226466D01*
X118737248Y-105210135D01*
X118756148Y-105196386D01*
X118773113Y-105184839D01*
X118788721Y-105175114D01*
X118803549Y-105166833D01*
X118818175Y-105159616D01*
X118833176Y-105153083D01*
X118847081Y-105147625D01*
X118869221Y-105139747D01*
X118889409Y-105133732D01*
X118909001Y-105129360D01*
X118929353Y-105126415D01*
X118951820Y-105124678D01*
X118977759Y-105123930D01*
X118994767Y-105123863D01*
X119016767Y-105124022D01*
X119034307Y-105124423D01*
X119048570Y-105125149D01*
X119060738Y-105126282D01*
X119071992Y-105127903D01*
X119082855Y-105129957D01*
X119117516Y-105138351D01*
X119147648Y-105148508D01*
X119174221Y-105160908D01*
X119198205Y-105176032D01*
X119220567Y-105194361D01*
X119229143Y-105202566D01*
X119246282Y-105221328D01*
X119260653Y-105241090D01*
X119272751Y-105262833D01*
X119283070Y-105287541D01*
X119292106Y-105316198D01*
X119298005Y-105339444D01*
X119300066Y-105348378D01*
X119301924Y-105356891D01*
X119303590Y-105365309D01*
X119305076Y-105373958D01*
X119306394Y-105383164D01*
X119307554Y-105393253D01*
X119308567Y-105404551D01*
X119309446Y-105417384D01*
X119310201Y-105432078D01*
X119310843Y-105448959D01*
X119311385Y-105468353D01*
X119311836Y-105490585D01*
X119312210Y-105515983D01*
X119312516Y-105544872D01*
X119312766Y-105577577D01*
X119312972Y-105614426D01*
X119313144Y-105655743D01*
X119313295Y-105701856D01*
X119313435Y-105753089D01*
X119313519Y-105786766D01*
X119313652Y-105839703D01*
X119313767Y-105887283D01*
X119313855Y-105929796D01*
X119313903Y-105967529D01*
X119313901Y-106000771D01*
X119313837Y-106029811D01*
X119313701Y-106054936D01*
X119313481Y-106076435D01*
X119313167Y-106094597D01*
X119312746Y-106109710D01*
X119312208Y-106122062D01*
X119311542Y-106131941D01*
X119310736Y-106139637D01*
X119309780Y-106145436D01*
X119308662Y-106149628D01*
X119307372Y-106152502D01*
X119305897Y-106154344D01*
X119304228Y-106155445D01*
X119302352Y-106156091D01*
X119300259Y-106156572D01*
X119299231Y-106156814D01*
X119294056Y-106157358D01*
X119284183Y-106157710D01*
X119270389Y-106157887D01*
X119253449Y-106157904D01*
X119234142Y-106157776D01*
X119213244Y-106157519D01*
X119191530Y-106157149D01*
X119169778Y-106156681D01*
X119148764Y-106156130D01*
X119129265Y-106155513D01*
X119112057Y-106154844D01*
X119097917Y-106154139D01*
X119087621Y-106153414D01*
X119081947Y-106152685D01*
X119081237Y-106152454D01*
X119078372Y-106150651D01*
X119075984Y-106148263D01*
X119074045Y-106144818D01*
X119072527Y-106139850D01*
X119071403Y-106132887D01*
X119070644Y-106123462D01*
X119070222Y-106111104D01*
X119070111Y-106095345D01*
X119070281Y-106075716D01*
X119070704Y-106051747D01*
X119071354Y-106022969D01*
X119071995Y-105997063D01*
X119072707Y-105969628D01*
X119073425Y-105943316D01*
X119074130Y-105918794D01*
X119074800Y-105896725D01*
X119075414Y-105877774D01*
X119075953Y-105862606D01*
X119076395Y-105851886D01*
X119076665Y-105846967D01*
X119076906Y-105839621D01*
X119076964Y-105827456D01*
X119076851Y-105811294D01*
X119076577Y-105791958D01*
X119076153Y-105770269D01*
X119075590Y-105747049D01*
X119075147Y-105731256D01*
X119073831Y-105686891D01*
X119072668Y-105647803D01*
X119071640Y-105613629D01*
X119070730Y-105584002D01*
X119069919Y-105558558D01*
X119069191Y-105536933D01*
X119068529Y-105518762D01*
X119067913Y-105503680D01*
X119067329Y-105491322D01*
X119066756Y-105481325D01*
X119066180Y-105473323D01*
X119065581Y-105466951D01*
X119064942Y-105461846D01*
X119064247Y-105457642D01*
X119063477Y-105453974D01*
X119062615Y-105450478D01*
X119061643Y-105446790D01*
X119061510Y-105446284D01*
X119051309Y-105416844D01*
X119037316Y-105391584D01*
X119019537Y-105370507D01*
X118997977Y-105353619D01*
X118972643Y-105340923D01*
X118943542Y-105332424D01*
X118910679Y-105328127D01*
X118896484Y-105327586D01*
X118876891Y-105328112D01*
X118858440Y-105330506D01*
X118839821Y-105335117D01*
X118819720Y-105342294D01*
X118796826Y-105352388D01*
X118788745Y-105356266D01*
X118761258Y-105370693D01*
X118734904Y-105386492D01*
X118710368Y-105403132D01*
X118688333Y-105420083D01*
X118669482Y-105436814D01*
X118654498Y-105452796D01*
X118644066Y-105467497D01*
X118643091Y-105469266D01*
X118636345Y-105481966D01*
X118634934Y-105813988D01*
X118634717Y-105864281D01*
X118634516Y-105909235D01*
X118634323Y-105949156D01*
X118634133Y-105984349D01*
X118633939Y-106015121D01*
X118633736Y-106041776D01*
X118633516Y-106064620D01*
X118633274Y-106083958D01*
X118633005Y-106100097D01*
X118632700Y-106113342D01*
X118632356Y-106123998D01*
X118631965Y-106132371D01*
X118631521Y-106138767D01*
X118631018Y-106143491D01*
X118630450Y-106146849D01*
X118629811Y-106149146D01*
X118629095Y-106150688D01*
X118628295Y-106151781D01*
X118628146Y-106151949D01*
X118626397Y-106153687D01*
X118624228Y-106155042D01*
X118620982Y-106156058D01*
X118616001Y-106156775D01*
X118608628Y-106157236D01*
X118598206Y-106157483D01*
X118584076Y-106157559D01*
X118565581Y-106157504D01*
X118543479Y-106157372D01*
X118520973Y-106157173D01*
X118498612Y-106156880D01*
X118477519Y-106156516D01*
X118458820Y-106156101D01*
X118443639Y-106155657D01*
X118433978Y-106155255D01*
X118421272Y-106154314D01*
X118410564Y-106153021D01*
X118403176Y-106151567D01*
X118400598Y-106150473D01*
X118397934Y-106145784D01*
X118395357Y-106138217D01*
X118394893Y-106136361D01*
X118394547Y-106132085D01*
X118394216Y-106122522D01*
X118393901Y-106108029D01*
X118393606Y-106088965D01*
X118393333Y-106065687D01*
X118393086Y-106038553D01*
X118392866Y-106007920D01*
X118392678Y-105974145D01*
X118392523Y-105937588D01*
X118392405Y-105898604D01*
X118392327Y-105857552D01*
X118392291Y-105814790D01*
X118392290Y-105810466D01*
X118392270Y-105759178D01*
X118392227Y-105712548D01*
X118392150Y-105669953D01*
X118392029Y-105630769D01*
X118391854Y-105594372D01*
X118391614Y-105560140D01*
X118391299Y-105527448D01*
X118390898Y-105495672D01*
X118390402Y-105464191D01*
X118389799Y-105432379D01*
X118389080Y-105399613D01*
X118388235Y-105365271D01*
X118387252Y-105328727D01*
X118386121Y-105289360D01*
X118384833Y-105246545D01*
X118383376Y-105199659D01*
X118381741Y-105148079D01*
X118380821Y-105119311D01*
X118379404Y-105075875D01*
X118378079Y-105037022D01*
X118376797Y-105001691D01*
X118375510Y-104968821D01*
X118374168Y-104937354D01*
X118372725Y-104906227D01*
X118371132Y-104874382D01*
X118369341Y-104840757D01*
X118367303Y-104804293D01*
X118364970Y-104763930D01*
X118363579Y-104740274D01*
X118362479Y-104720774D01*
X118361809Y-104706146D01*
X118361577Y-104695632D01*
X118361794Y-104688475D01*
X118362469Y-104683917D01*
X118363612Y-104681200D01*
X118364336Y-104680321D01*
X118368496Y-104677668D01*
X118375527Y-104675450D01*
X118385919Y-104673608D01*
X118400165Y-104672086D01*
X118418757Y-104670827D01*
X118442185Y-104669772D01*
X118459956Y-104669178D01*
X118492343Y-104667811D01*
X118520555Y-104665801D01*
X118544006Y-104663197D01*
X118553089Y-104661802D01*
X118568740Y-104659310D01*
X118584973Y-104657034D01*
X118599491Y-104655280D01*
X118607106Y-104654553D01*
X118618077Y-104653797D01*
X118624806Y-104653846D01*
X118624806Y-104653846D01*
G37*
X118624806Y-104653846D02*
X118628669Y-104654971D01*
X118631044Y-104657446D01*
X118632239Y-104659528D01*
X118633177Y-104664277D01*
X118633853Y-104674243D01*
X118634272Y-104689004D01*
X118634438Y-104708140D01*
X118634356Y-104731229D01*
X118634032Y-104757851D01*
X118633469Y-104787583D01*
X118632673Y-104820005D01*
X118631648Y-104854696D01*
X118630400Y-104891234D01*
X118629290Y-104920344D01*
X118626942Y-104980928D01*
X118624950Y-105035940D01*
X118623314Y-105085442D01*
X118622032Y-105129498D01*
X118621103Y-105168167D01*
X118620527Y-105201513D01*
X118620302Y-105229597D01*
X118620428Y-105252481D01*
X118620904Y-105270227D01*
X118621729Y-105282897D01*
X118622903Y-105290552D01*
X118623969Y-105293000D01*
X118626013Y-105294038D01*
X118629146Y-105293430D01*
X118634032Y-105290760D01*
X118641336Y-105285611D01*
X118651721Y-105277566D01*
X118663161Y-105268387D01*
X118691332Y-105245756D01*
X118715836Y-105226466D01*
X118737248Y-105210135D01*
X118756148Y-105196386D01*
X118773113Y-105184839D01*
X118788721Y-105175114D01*
X118803549Y-105166833D01*
X118818175Y-105159616D01*
X118833176Y-105153083D01*
X118847081Y-105147625D01*
X118869221Y-105139747D01*
X118889409Y-105133732D01*
X118909001Y-105129360D01*
X118929353Y-105126415D01*
X118951820Y-105124678D01*
X118977759Y-105123930D01*
X118994767Y-105123863D01*
X119016767Y-105124022D01*
X119034307Y-105124423D01*
X119048570Y-105125149D01*
X119060738Y-105126282D01*
X119071992Y-105127903D01*
X119082855Y-105129957D01*
X119117516Y-105138351D01*
X119147648Y-105148508D01*
X119174221Y-105160908D01*
X119198205Y-105176032D01*
X119220567Y-105194361D01*
X119229143Y-105202566D01*
X119246282Y-105221328D01*
X119260653Y-105241090D01*
X119272751Y-105262833D01*
X119283070Y-105287541D01*
X119292106Y-105316198D01*
X119298005Y-105339444D01*
X119300066Y-105348378D01*
X119301924Y-105356891D01*
X119303590Y-105365309D01*
X119305076Y-105373958D01*
X119306394Y-105383164D01*
X119307554Y-105393253D01*
X119308567Y-105404551D01*
X119309446Y-105417384D01*
X119310201Y-105432078D01*
X119310843Y-105448959D01*
X119311385Y-105468353D01*
X119311836Y-105490585D01*
X119312210Y-105515983D01*
X119312516Y-105544872D01*
X119312766Y-105577577D01*
X119312972Y-105614426D01*
X119313144Y-105655743D01*
X119313295Y-105701856D01*
X119313435Y-105753089D01*
X119313519Y-105786766D01*
X119313652Y-105839703D01*
X119313767Y-105887283D01*
X119313855Y-105929796D01*
X119313903Y-105967529D01*
X119313901Y-106000771D01*
X119313837Y-106029811D01*
X119313701Y-106054936D01*
X119313481Y-106076435D01*
X119313167Y-106094597D01*
X119312746Y-106109710D01*
X119312208Y-106122062D01*
X119311542Y-106131941D01*
X119310736Y-106139637D01*
X119309780Y-106145436D01*
X119308662Y-106149628D01*
X119307372Y-106152502D01*
X119305897Y-106154344D01*
X119304228Y-106155445D01*
X119302352Y-106156091D01*
X119300259Y-106156572D01*
X119299231Y-106156814D01*
X119294056Y-106157358D01*
X119284183Y-106157710D01*
X119270389Y-106157887D01*
X119253449Y-106157904D01*
X119234142Y-106157776D01*
X119213244Y-106157519D01*
X119191530Y-106157149D01*
X119169778Y-106156681D01*
X119148764Y-106156130D01*
X119129265Y-106155513D01*
X119112057Y-106154844D01*
X119097917Y-106154139D01*
X119087621Y-106153414D01*
X119081947Y-106152685D01*
X119081237Y-106152454D01*
X119078372Y-106150651D01*
X119075984Y-106148263D01*
X119074045Y-106144818D01*
X119072527Y-106139850D01*
X119071403Y-106132887D01*
X119070644Y-106123462D01*
X119070222Y-106111104D01*
X119070111Y-106095345D01*
X119070281Y-106075716D01*
X119070704Y-106051747D01*
X119071354Y-106022969D01*
X119071995Y-105997063D01*
X119072707Y-105969628D01*
X119073425Y-105943316D01*
X119074130Y-105918794D01*
X119074800Y-105896725D01*
X119075414Y-105877774D01*
X119075953Y-105862606D01*
X119076395Y-105851886D01*
X119076665Y-105846967D01*
X119076906Y-105839621D01*
X119076964Y-105827456D01*
X119076851Y-105811294D01*
X119076577Y-105791958D01*
X119076153Y-105770269D01*
X119075590Y-105747049D01*
X119075147Y-105731256D01*
X119073831Y-105686891D01*
X119072668Y-105647803D01*
X119071640Y-105613629D01*
X119070730Y-105584002D01*
X119069919Y-105558558D01*
X119069191Y-105536933D01*
X119068529Y-105518762D01*
X119067913Y-105503680D01*
X119067329Y-105491322D01*
X119066756Y-105481325D01*
X119066180Y-105473323D01*
X119065581Y-105466951D01*
X119064942Y-105461846D01*
X119064247Y-105457642D01*
X119063477Y-105453974D01*
X119062615Y-105450478D01*
X119061643Y-105446790D01*
X119061510Y-105446284D01*
X119051309Y-105416844D01*
X119037316Y-105391584D01*
X119019537Y-105370507D01*
X118997977Y-105353619D01*
X118972643Y-105340923D01*
X118943542Y-105332424D01*
X118910679Y-105328127D01*
X118896484Y-105327586D01*
X118876891Y-105328112D01*
X118858440Y-105330506D01*
X118839821Y-105335117D01*
X118819720Y-105342294D01*
X118796826Y-105352388D01*
X118788745Y-105356266D01*
X118761258Y-105370693D01*
X118734904Y-105386492D01*
X118710368Y-105403132D01*
X118688333Y-105420083D01*
X118669482Y-105436814D01*
X118654498Y-105452796D01*
X118644066Y-105467497D01*
X118643091Y-105469266D01*
X118636345Y-105481966D01*
X118634934Y-105813988D01*
X118634717Y-105864281D01*
X118634516Y-105909235D01*
X118634323Y-105949156D01*
X118634133Y-105984349D01*
X118633939Y-106015121D01*
X118633736Y-106041776D01*
X118633516Y-106064620D01*
X118633274Y-106083958D01*
X118633005Y-106100097D01*
X118632700Y-106113342D01*
X118632356Y-106123998D01*
X118631965Y-106132371D01*
X118631521Y-106138767D01*
X118631018Y-106143491D01*
X118630450Y-106146849D01*
X118629811Y-106149146D01*
X118629095Y-106150688D01*
X118628295Y-106151781D01*
X118628146Y-106151949D01*
X118626397Y-106153687D01*
X118624228Y-106155042D01*
X118620982Y-106156058D01*
X118616001Y-106156775D01*
X118608628Y-106157236D01*
X118598206Y-106157483D01*
X118584076Y-106157559D01*
X118565581Y-106157504D01*
X118543479Y-106157372D01*
X118520973Y-106157173D01*
X118498612Y-106156880D01*
X118477519Y-106156516D01*
X118458820Y-106156101D01*
X118443639Y-106155657D01*
X118433978Y-106155255D01*
X118421272Y-106154314D01*
X118410564Y-106153021D01*
X118403176Y-106151567D01*
X118400598Y-106150473D01*
X118397934Y-106145784D01*
X118395357Y-106138217D01*
X118394893Y-106136361D01*
X118394547Y-106132085D01*
X118394216Y-106122522D01*
X118393901Y-106108029D01*
X118393606Y-106088965D01*
X118393333Y-106065687D01*
X118393086Y-106038553D01*
X118392866Y-106007920D01*
X118392678Y-105974145D01*
X118392523Y-105937588D01*
X118392405Y-105898604D01*
X118392327Y-105857552D01*
X118392291Y-105814790D01*
X118392290Y-105810466D01*
X118392270Y-105759178D01*
X118392227Y-105712548D01*
X118392150Y-105669953D01*
X118392029Y-105630769D01*
X118391854Y-105594372D01*
X118391614Y-105560140D01*
X118391299Y-105527448D01*
X118390898Y-105495672D01*
X118390402Y-105464191D01*
X118389799Y-105432379D01*
X118389080Y-105399613D01*
X118388235Y-105365271D01*
X118387252Y-105328727D01*
X118386121Y-105289360D01*
X118384833Y-105246545D01*
X118383376Y-105199659D01*
X118381741Y-105148079D01*
X118380821Y-105119311D01*
X118379404Y-105075875D01*
X118378079Y-105037022D01*
X118376797Y-105001691D01*
X118375510Y-104968821D01*
X118374168Y-104937354D01*
X118372725Y-104906227D01*
X118371132Y-104874382D01*
X118369341Y-104840757D01*
X118367303Y-104804293D01*
X118364970Y-104763930D01*
X118363579Y-104740274D01*
X118362479Y-104720774D01*
X118361809Y-104706146D01*
X118361577Y-104695632D01*
X118361794Y-104688475D01*
X118362469Y-104683917D01*
X118363612Y-104681200D01*
X118364336Y-104680321D01*
X118368496Y-104677668D01*
X118375527Y-104675450D01*
X118385919Y-104673608D01*
X118400165Y-104672086D01*
X118418757Y-104670827D01*
X118442185Y-104669772D01*
X118459956Y-104669178D01*
X118492343Y-104667811D01*
X118520555Y-104665801D01*
X118544006Y-104663197D01*
X118553089Y-104661802D01*
X118568740Y-104659310D01*
X118584973Y-104657034D01*
X118599491Y-104655280D01*
X118607106Y-104654553D01*
X118618077Y-104653797D01*
X118624806Y-104653846D01*
G36*
X111857244Y-105330534D02*
X111881531Y-105333092D01*
X111903656Y-105337753D01*
X111925269Y-105344852D01*
X111945522Y-105353549D01*
X111976701Y-105371133D01*
X112006057Y-105393523D01*
X112033009Y-105420019D01*
X112056976Y-105449921D01*
X112077379Y-105482530D01*
X112093636Y-105517146D01*
X112102369Y-105542644D01*
X112110646Y-105579731D01*
X112114923Y-105619102D01*
X112115227Y-105659342D01*
X112111581Y-105699040D01*
X112104010Y-105736782D01*
X112098619Y-105754902D01*
X112083287Y-105792502D01*
X112063473Y-105827733D01*
X112039658Y-105860025D01*
X112012327Y-105888803D01*
X111981962Y-105913496D01*
X111949045Y-105933532D01*
X111947104Y-105934521D01*
X111926067Y-105944016D01*
X111905237Y-105950897D01*
X111883104Y-105955500D01*
X111858158Y-105958159D01*
X111836200Y-105959089D01*
X111820653Y-105959334D01*
X111806778Y-105959384D01*
X111795706Y-105959247D01*
X111788570Y-105958931D01*
X111786811Y-105958704D01*
X111781254Y-105957413D01*
X111772191Y-105955327D01*
X111761960Y-105952983D01*
X111728397Y-105942479D01*
X111696087Y-105926786D01*
X111665498Y-105906307D01*
X111637097Y-105881444D01*
X111611349Y-105852598D01*
X111588722Y-105820170D01*
X111572050Y-105789589D01*
X111558306Y-105757147D01*
X111548604Y-105724868D01*
X111542690Y-105691443D01*
X111540311Y-105655560D01*
X111540651Y-105627311D01*
X111543317Y-105592124D01*
X111548594Y-105560513D01*
X111556862Y-105530865D01*
X111568503Y-105501571D01*
X111572398Y-105493255D01*
X111589691Y-105462450D01*
X111610747Y-105433309D01*
X111634719Y-105406725D01*
X111660762Y-105383590D01*
X111688029Y-105364797D01*
X111700732Y-105357865D01*
X111724603Y-105346990D01*
X111747301Y-105339089D01*
X111770418Y-105333815D01*
X111795542Y-105330819D01*
X111824264Y-105329754D01*
X111829145Y-105329740D01*
X111857244Y-105330534D01*
X111857244Y-105330534D01*
G37*
X111857244Y-105330534D02*
X111881531Y-105333092D01*
X111903656Y-105337753D01*
X111925269Y-105344852D01*
X111945522Y-105353549D01*
X111976701Y-105371133D01*
X112006057Y-105393523D01*
X112033009Y-105420019D01*
X112056976Y-105449921D01*
X112077379Y-105482530D01*
X112093636Y-105517146D01*
X112102369Y-105542644D01*
X112110646Y-105579731D01*
X112114923Y-105619102D01*
X112115227Y-105659342D01*
X112111581Y-105699040D01*
X112104010Y-105736782D01*
X112098619Y-105754902D01*
X112083287Y-105792502D01*
X112063473Y-105827733D01*
X112039658Y-105860025D01*
X112012327Y-105888803D01*
X111981962Y-105913496D01*
X111949045Y-105933532D01*
X111947104Y-105934521D01*
X111926067Y-105944016D01*
X111905237Y-105950897D01*
X111883104Y-105955500D01*
X111858158Y-105958159D01*
X111836200Y-105959089D01*
X111820653Y-105959334D01*
X111806778Y-105959384D01*
X111795706Y-105959247D01*
X111788570Y-105958931D01*
X111786811Y-105958704D01*
X111781254Y-105957413D01*
X111772191Y-105955327D01*
X111761960Y-105952983D01*
X111728397Y-105942479D01*
X111696087Y-105926786D01*
X111665498Y-105906307D01*
X111637097Y-105881444D01*
X111611349Y-105852598D01*
X111588722Y-105820170D01*
X111572050Y-105789589D01*
X111558306Y-105757147D01*
X111548604Y-105724868D01*
X111542690Y-105691443D01*
X111540311Y-105655560D01*
X111540651Y-105627311D01*
X111543317Y-105592124D01*
X111548594Y-105560513D01*
X111556862Y-105530865D01*
X111568503Y-105501571D01*
X111572398Y-105493255D01*
X111589691Y-105462450D01*
X111610747Y-105433309D01*
X111634719Y-105406725D01*
X111660762Y-105383590D01*
X111688029Y-105364797D01*
X111700732Y-105357865D01*
X111724603Y-105346990D01*
X111747301Y-105339089D01*
X111770418Y-105333815D01*
X111795542Y-105330819D01*
X111824264Y-105329754D01*
X111829145Y-105329740D01*
X111857244Y-105330534D01*
G36*
X112843734Y-105329032D02*
X112882713Y-105333609D01*
X112918933Y-105343011D01*
X112952707Y-105357385D01*
X112984352Y-105376878D01*
X113014182Y-105401636D01*
X113027060Y-105414495D01*
X113053852Y-105446545D01*
X113075942Y-105481430D01*
X113093518Y-105519487D01*
X113105580Y-105556547D01*
X113108051Y-105566122D01*
X113109893Y-105574639D01*
X113111198Y-105583189D01*
X113112059Y-105592860D01*
X113112569Y-105604745D01*
X113112820Y-105619933D01*
X113112905Y-105639514D01*
X113112910Y-105642833D01*
X113112885Y-105663088D01*
X113112703Y-105678784D01*
X113112274Y-105691008D01*
X113111504Y-105700844D01*
X113110304Y-105709378D01*
X113108581Y-105717696D01*
X113106243Y-105726883D01*
X113105640Y-105729119D01*
X113092040Y-105769942D01*
X113074350Y-105807707D01*
X113052860Y-105842096D01*
X113027860Y-105872790D01*
X112999638Y-105899472D01*
X112968483Y-105921822D01*
X112934685Y-105939525D01*
X112904411Y-105950584D01*
X112893318Y-105953665D01*
X112883160Y-105955852D01*
X112872448Y-105957331D01*
X112859690Y-105958283D01*
X112843396Y-105958893D01*
X112835267Y-105959089D01*
X112819719Y-105959334D01*
X112805844Y-105959384D01*
X112794773Y-105959247D01*
X112787637Y-105958931D01*
X112785878Y-105958704D01*
X112780321Y-105957413D01*
X112771257Y-105955327D01*
X112761026Y-105952983D01*
X112728001Y-105942624D01*
X112695992Y-105927084D01*
X112665532Y-105906810D01*
X112637155Y-105882245D01*
X112611393Y-105853833D01*
X112588778Y-105822020D01*
X112575127Y-105798003D01*
X112558940Y-105760517D01*
X112547508Y-105720796D01*
X112540838Y-105679623D01*
X112538934Y-105637781D01*
X112541803Y-105596051D01*
X112549452Y-105555216D01*
X112561886Y-105516058D01*
X112572740Y-105491466D01*
X112593597Y-105455212D01*
X112617960Y-105423166D01*
X112645549Y-105395493D01*
X112676084Y-105372362D01*
X112709286Y-105353940D01*
X112744876Y-105340395D01*
X112782575Y-105331894D01*
X112822104Y-105328603D01*
X112843734Y-105329032D01*
X112843734Y-105329032D01*
G37*
X112843734Y-105329032D02*
X112882713Y-105333609D01*
X112918933Y-105343011D01*
X112952707Y-105357385D01*
X112984352Y-105376878D01*
X113014182Y-105401636D01*
X113027060Y-105414495D01*
X113053852Y-105446545D01*
X113075942Y-105481430D01*
X113093518Y-105519487D01*
X113105580Y-105556547D01*
X113108051Y-105566122D01*
X113109893Y-105574639D01*
X113111198Y-105583189D01*
X113112059Y-105592860D01*
X113112569Y-105604745D01*
X113112820Y-105619933D01*
X113112905Y-105639514D01*
X113112910Y-105642833D01*
X113112885Y-105663088D01*
X113112703Y-105678784D01*
X113112274Y-105691008D01*
X113111504Y-105700844D01*
X113110304Y-105709378D01*
X113108581Y-105717696D01*
X113106243Y-105726883D01*
X113105640Y-105729119D01*
X113092040Y-105769942D01*
X113074350Y-105807707D01*
X113052860Y-105842096D01*
X113027860Y-105872790D01*
X112999638Y-105899472D01*
X112968483Y-105921822D01*
X112934685Y-105939525D01*
X112904411Y-105950584D01*
X112893318Y-105953665D01*
X112883160Y-105955852D01*
X112872448Y-105957331D01*
X112859690Y-105958283D01*
X112843396Y-105958893D01*
X112835267Y-105959089D01*
X112819719Y-105959334D01*
X112805844Y-105959384D01*
X112794773Y-105959247D01*
X112787637Y-105958931D01*
X112785878Y-105958704D01*
X112780321Y-105957413D01*
X112771257Y-105955327D01*
X112761026Y-105952983D01*
X112728001Y-105942624D01*
X112695992Y-105927084D01*
X112665532Y-105906810D01*
X112637155Y-105882245D01*
X112611393Y-105853833D01*
X112588778Y-105822020D01*
X112575127Y-105798003D01*
X112558940Y-105760517D01*
X112547508Y-105720796D01*
X112540838Y-105679623D01*
X112538934Y-105637781D01*
X112541803Y-105596051D01*
X112549452Y-105555216D01*
X112561886Y-105516058D01*
X112572740Y-105491466D01*
X112593597Y-105455212D01*
X112617960Y-105423166D01*
X112645549Y-105395493D01*
X112676084Y-105372362D01*
X112709286Y-105353940D01*
X112744876Y-105340395D01*
X112782575Y-105331894D01*
X112822104Y-105328603D01*
X112843734Y-105329032D01*
D14*
X121158000Y-134366000D02*
X121158000Y-103886000D01*
X121158000Y-103886000D02*
X123698000Y-103886000D01*
X123698000Y-103886000D02*
X123698000Y-134366000D01*
X123978000Y-137186000D02*
X123978000Y-135636000D01*
X123698000Y-134366000D02*
X121158000Y-134366000D01*
X120878000Y-135636000D02*
X120878000Y-137186000D01*
X120878000Y-137186000D02*
X123978000Y-137186000D01*
X138938000Y-134366000D02*
X138938000Y-106426000D01*
X138938000Y-106426000D02*
X136398000Y-106426000D01*
X136398000Y-106426000D02*
X136398000Y-134366000D01*
X139218000Y-137186000D02*
X139218000Y-135636000D01*
X138938000Y-134366000D02*
X136398000Y-134366000D01*
X136118000Y-135636000D02*
X136118000Y-137186000D01*
X136118000Y-137186000D02*
X139218000Y-137186000D01*
M02*
