M48
;DRILL file {KiCad 4.0.1-stable} date Mon 21 Dec 2015 12:25:32 PM CST
;FORMAT={2:4/ absolute / inch / keep zeros}
FMAT,2
INCH,TZ
T1C0.016
T2C0.040
%
G90
G05
M72
T1
X040650Y-046559
X043386Y-045354
X044134Y-044291
X044146Y-053866
X044300Y-046900
X045039Y-049449
X045118Y-048583
X045118Y-053780
X045197Y-052598
X045496Y-043185
X045512Y-045780
X045551Y-047510
X045673Y-051299
X046644Y-049872
X046772Y-049370
X046783Y-051031
X047047Y-046772
X047047Y-047913
X049335Y-053579
X049843Y-043150
X049843Y-045748
X049846Y-048043
X049846Y-049382
X049846Y-051571
X049858Y-049382
X049858Y-051598
X051614Y-044459
X051811Y-054331
X052126Y-050945
X052409Y-046858
X053524Y-054232
X053780Y-048504
X053780Y-050945
T2
X041400Y-041400
X041400Y-042400
X041400Y-043400
X041400Y-044400
X041400Y-045400
X041400Y-046400
X041400Y-047400
X041400Y-048400
X041400Y-049400
X041400Y-050400
X041400Y-051400
X041400Y-052400
X041400Y-053400
X042400Y-041400
X042400Y-042400
X042400Y-043400
X042400Y-044400
X042400Y-045400
X042400Y-046400
X042400Y-047400
X042400Y-048400
X042400Y-049400
X042400Y-050400
X042400Y-051400
X042400Y-052400
X042400Y-053400
X048200Y-041400
X048200Y-042400
X048200Y-043400
X048200Y-044400
X048200Y-045400
X048200Y-046400
X048200Y-047400
X048200Y-048400
X048200Y-049400
X048200Y-050400
X048200Y-051400
X048200Y-052400
X048200Y-053400
X055200Y-042400
X055200Y-043400
X055200Y-044400
X055200Y-045400
X055200Y-046400
X055200Y-047400
X055200Y-048400
X055200Y-049400
X055200Y-050400
X055200Y-051400
X055200Y-052400
X055200Y-053400
T0
M30
